gortondigitalHeavy.ufo
<glyph name="exclam" format="2">
  <advance width="1190"/>
  <unicode hex="0021"/>
  <outline>
    <contour>
      <point x="175" y="210" type="curve" smooth="yes"/>
      <point x="175" y="384"/>
      <point x="316" y="525"/>
      <point x="490" y="525" type="curve" smooth="yes"/>
      <point x="664" y="525"/>
      <point x="805" y="384"/>
      <point x="805" y="210" type="curve" smooth="yes"/>
      <point x="805" y="36"/>
      <point x="664" y="-105"/>
      <point x="490" y="-105" type="curve" smooth="yes"/>
      <point x="316" y="-105"/>
      <point x="175" y="36"/>
    </contour>
    <contour>
      <point x="210" y="1680" type="curve" smooth="yes"/>
      <point x="210" y="2450" type="line" smooth="yes"/>
      <point x="210" y="2605"/>
      <point x="336" y="2730"/>
      <point x="490" y="2730" type="curve" smooth="yes"/>
      <point x="644" y="2730"/>
      <point x="770" y="2605"/>
      <point x="770" y="2450" type="curve" smooth="yes"/>
      <point x="770" y="1680" type="line" smooth="yes"/>
      <point x="770" y="1674"/>
      <point x="769" y="1668"/>
      <point x="769" y="1662" type="curve" smooth="yes"/>
      <point x="699" y="822" type="line" smooth="yes"/>
      <point x="690" y="714"/>
      <point x="600" y="630"/>
      <point x="490" y="630" type="curve" smooth="yes"/>
      <point x="380" y="630"/>
      <point x="290" y="714"/>
      <point x="281" y="822" type="curve" smooth="yes"/>
      <point x="211" y="1662" type="line" smooth="yes"/>
      <point x="211" y="1668"/>
      <point x="210" y="1674"/>
    </contour>
    <contour>
      <point x="385" y="210" type="line"/>
      <point x="490" y="105" type="line"/>
      <point x="595" y="210" type="line"/>
      <point x="490" y="315" type="line"/>
    </contour>
  </outline>
</glyph>
<glyph name="quotedbl" format="2">
  <advance width="1960"/>
  <unicode hex="0022"/>
  <outline>
    <contour>
      <point x="210" y="2380" type="curve" smooth="yes"/>
      <point x="210" y="2450" type="line" smooth="yes"/>
      <point x="210" y="2605"/>
      <point x="336" y="2730"/>
      <point x="490" y="2730" type="curve" smooth="yes"/>
      <point x="644" y="2730"/>
      <point x="770" y="2605"/>
      <point x="770" y="2450" type="curve" smooth="yes"/>
      <point x="770" y="2380" type="line" smooth="yes"/>
      <point x="770" y="2363"/>
      <point x="768" y="2346"/>
      <point x="764" y="2329" type="curve" smooth="yes"/>
      <point x="694" y="2049" type="line" smooth="yes"/>
      <point x="671" y="1958"/>
      <point x="588" y="1890"/>
      <point x="490" y="1890" type="curve" smooth="yes"/>
      <point x="392" y="1890"/>
      <point x="309" y="1958"/>
      <point x="286" y="2049" type="curve" smooth="yes"/>
      <point x="216" y="2329" type="line" smooth="yes"/>
      <point x="212" y="2346"/>
      <point x="210" y="2363"/>
    </contour>
    <contour>
      <point x="980" y="2380" type="curve" smooth="yes"/>
      <point x="980" y="2450" type="line" smooth="yes"/>
      <point x="980" y="2605"/>
      <point x="1106" y="2730"/>
      <point x="1260" y="2730" type="curve" smooth="yes"/>
      <point x="1414" y="2730"/>
      <point x="1540" y="2605"/>
      <point x="1540" y="2450" type="curve" smooth="yes"/>
      <point x="1540" y="2380" type="line" smooth="yes"/>
      <point x="1540" y="2363"/>
      <point x="1538" y="2346"/>
      <point x="1534" y="2329" type="curve" smooth="yes"/>
      <point x="1464" y="2049" type="line" smooth="yes"/>
      <point x="1441" y="1956"/>
      <point x="1357" y="1890"/>
      <point x="1260" y="1890" type="curve" smooth="yes"/>
      <point x="1165" y="1890"/>
      <point x="1080" y="1955"/>
      <point x="1056" y="2049" type="curve" smooth="yes"/>
      <point x="986" y="2329" type="line" smooth="yes"/>
      <point x="982" y="2346"/>
      <point x="980" y="2363"/>
    </contour>
  </outline>
</glyph>
<glyph name="numbersign" format="2">
  <advance width="2762"/>
  <unicode hex="0023"/>
  <outline>
    <contour>
      <point x="250" y="756" type="curve" smooth="yes"/>
      <point x="250" y="872"/>
      <point x="344" y="966"/>
      <point x="460" y="966" type="curve" smooth="yes"/>
      <point x="650" y="966" type="line"/>
      <point x="681" y="1554" type="line"/>
      <point x="512" y="1554" type="line" smooth="yes"/>
      <point x="396" y="1554"/>
      <point x="302" y="1648"/>
      <point x="302" y="1764" type="curve" smooth="yes"/>
      <point x="302" y="1880"/>
      <point x="395" y="1974"/>
      <point x="511" y="1974" type="curve" smooth="yes"/>
      <point x="702" y="1974" type="line"/>
      <point x="732" y="2531" type="line" smooth="yes"/>
      <point x="738" y="2642"/>
      <point x="830" y="2730"/>
      <point x="942" y="2730" type="curve" smooth="yes"/>
      <point x="1058" y="2730"/>
      <point x="1152" y="2636"/>
      <point x="1152" y="2520" type="curve" smooth="yes"/>
      <point x="1152" y="2514"/>
      <point x="1152" y="2515"/>
      <point x="1124" y="1974" type="curve"/>
      <point x="1543" y="1974" type="line"/>
      <point x="1572" y="2531" type="line" smooth="yes"/>
      <point x="1578" y="2642"/>
      <point x="1670" y="2730"/>
      <point x="1782" y="2730" type="curve" smooth="yes"/>
      <point x="1898" y="2730"/>
      <point x="1992" y="2636"/>
      <point x="1992" y="2520" type="curve" smooth="yes"/>
      <point x="1992" y="2515"/>
      <point x="1992" y="2514"/>
      <point x="1964" y="1974" type="curve"/>
      <point x="2132" y="1974" type="line" smooth="yes"/>
      <point x="2248" y="1974"/>
      <point x="2342" y="1880"/>
      <point x="2342" y="1764" type="curve" smooth="yes"/>
      <point x="2342" y="1648"/>
      <point x="2248" y="1554"/>
      <point x="2132" y="1554" type="curve" smooth="yes"/>
      <point x="1942" y="1554" type="line"/>
      <point x="1911" y="966" type="line"/>
      <point x="2080" y="966" type="line" smooth="yes"/>
      <point x="2196" y="966"/>
      <point x="2290" y="872"/>
      <point x="2290" y="756" type="curve" smooth="yes"/>
      <point x="2290" y="640"/>
      <point x="2196" y="546"/>
      <point x="2080" y="546" type="curve" smooth="yes"/>
      <point x="1890" y="546" type="line"/>
      <point x="1860" y="-11" type="line" smooth="yes"/>
      <point x="1854" y="-122"/>
      <point x="1762" y="-211"/>
      <point x="1650" y="-211" type="curve" smooth="yes"/>
      <point x="1534" y="-211"/>
      <point x="1440" y="-117"/>
      <point x="1440" y="-1" type="curve" smooth="yes"/>
      <point x="1440" y="5"/>
      <point x="1440" y="5"/>
      <point x="1468" y="546" type="curve"/>
      <point x="1049" y="546" type="line"/>
      <point x="1020" y="-11" type="line" smooth="yes"/>
      <point x="1014" y="-122"/>
      <point x="922" y="-211"/>
      <point x="810" y="-211" type="curve" smooth="yes"/>
      <point x="694" y="-211"/>
      <point x="600" y="-117"/>
      <point x="600" y="-1" type="curve" smooth="yes"/>
      <point x="600" y="4"/>
      <point x="600" y="5"/>
      <point x="628" y="546" type="curve"/>
      <point x="460" y="546" type="line" smooth="yes"/>
      <point x="344" y="546"/>
      <point x="250" y="640"/>
    </contour>
    <contour>
      <point x="1071" y="966" type="line"/>
      <point x="1490" y="966" type="line"/>
      <point x="1521" y="1554" type="line"/>
      <point x="1102" y="1554" type="line"/>
    </contour>
  </outline>
</glyph>
<glyph name="dollar" format="2">
  <advance width="2771"/>
  <unicode hex="0024"/>
  <outline>
    <contour>
      <point x="210" y="750" type="curve" smooth="yes"/>
      <point x="210" y="866"/>
      <point x="304" y="960"/>
      <point x="420" y="960" type="curve" smooth="yes"/>
      <point x="518" y="960"/>
      <point x="601" y="893"/>
      <point x="624" y="802" type="curve" smooth="yes"/>
      <point x="674" y="606"/>
      <point x="673" y="606"/>
      <point x="674" y="602" type="curve" smooth="yes"/>
      <point x="685" y="553"/>
      <point x="745" y="355"/>
      <point x="1030" y="255" type="curve"/>
      <point x="1051" y="1150" type="line"/>
      <point x="607" y="1219"/>
      <point x="274" y="1543"/>
      <point x="274" y="1933" type="curve" smooth="yes"/>
      <point x="274" y="2315"/>
      <point x="604" y="2662"/>
      <point x="1087" y="2721" type="curve"/>
      <point x="1089" y="2805" type="line" smooth="yes"/>
      <point x="1092" y="2919"/>
      <point x="1185" y="3010"/>
      <point x="1299" y="3010" type="curve" smooth="yes"/>
      <point x="1415" y="3010"/>
      <point x="1509" y="2916"/>
      <point x="1509" y="2800" type="curve" smooth="yes"/>
      <point x="1509" y="2797"/>
      <point x="1508" y="2798"/>
      <point x="1506" y="2696" type="curve"/>
      <point x="1755" y="2633"/>
      <point x="1973" y="2484"/>
      <point x="2091" y="2275" type="curve" smooth="yes"/>
      <point x="2131" y="2204"/>
      <point x="2182" y="2000"/>
      <point x="2182" y="1933" type="curve" smooth="yes"/>
      <point x="2182" y="1817"/>
      <point x="2088" y="1723"/>
      <point x="1972" y="1723" type="curve" smooth="yes"/>
      <point x="1867" y="1723"/>
      <point x="1779" y="1801"/>
      <point x="1764" y="1903" type="curve" smooth="yes"/>
      <point x="1760" y="1929"/>
      <point x="1747" y="2006"/>
      <point x="1719" y="2078" type="curve"/>
      <point x="1705" y="2101"/>
      <point x="1646" y="2194"/>
      <point x="1496" y="2257" type="curve"/>
      <point x="1480" y="1544" type="line"/>
      <point x="1976" y="1472"/>
      <point x="2351" y="1109"/>
      <point x="2351" y="673" type="curve" smooth="yes"/>
      <point x="2351" y="244"/>
      <point x="1978" y="-142"/>
      <point x="1440" y="-202" type="curve"/>
      <point x="1438" y="-285" type="line" smooth="yes"/>
      <point x="1435" y="-399"/>
      <point x="1342" y="-490"/>
      <point x="1228" y="-490" type="curve" smooth="yes"/>
      <point x="1112" y="-490"/>
      <point x="1018" y="-396"/>
      <point x="1018" y="-280" type="curve" smooth="yes"/>
      <point x="1018" y="-277"/>
      <point x="1018" y="-278"/>
      <point x="1020" y="-179" type="curve"/>
      <point x="635" y="-91"/>
      <point x="339" y="175"/>
      <point x="265" y="509" type="curve"/>
      <point x="216" y="698" type="line" smooth="yes"/>
      <point x="212" y="714"/>
      <point x="210" y="732"/>
    </contour>
    <contour>
      <point x="694" y="1933" type="curve" smooth="yes"/>
      <point x="694" y="1770"/>
      <point x="851" y="1628"/>
      <point x="1061" y="1577" type="curve"/>
      <point x="1077" y="2294" type="line"/>
      <point x="858" y="2247"/>
      <point x="694" y="2100"/>
    </contour>
    <contour>
      <point x="1450" y="224" type="line"/>
      <point x="1724" y="275"/>
      <point x="1931" y="459"/>
      <point x="1931" y="673" type="curve" smooth="yes"/>
      <point x="1931" y="889"/>
      <point x="1723" y="1065"/>
      <point x="1470" y="1119" type="curve"/>
    </contour>
  </outline>
</glyph>
<glyph name="percent" format="2">
  <advance width="3570"/>
  <unicode hex="0025"/>
  <outline>
    <contour>
      <point x="210" y="1851" type="curve" smooth="yes"/>
      <point x="210" y="2342"/>
      <point x="518" y="2730"/>
      <point x="901" y="2730" type="curve" smooth="yes"/>
      <point x="1284" y="2730"/>
      <point x="1592" y="2342"/>
      <point x="1592" y="1851" type="curve" smooth="yes"/>
      <point x="1592" y="1772"/>
      <point x="1585" y="1559"/>
      <point x="1467" y="1344" type="curve"/>
      <point x="2792" y="2668" type="line" smooth="yes"/>
      <point x="2830" y="2706"/>
      <point x="2882" y="2730"/>
      <point x="2940" y="2730" type="curve" smooth="yes"/>
      <point x="3056" y="2730"/>
      <point x="3150" y="2636"/>
      <point x="3150" y="2520" type="curve" smooth="yes"/>
      <point x="3150" y="2462"/>
      <point x="3126" y="2410"/>
      <point x="3088" y="2372" type="curve" smooth="yes"/>
      <point x="2204" y="1487" type="line"/>
      <point x="2281" y="1525"/>
      <point x="2367" y="1548"/>
      <point x="2459" y="1548" type="curve" smooth="yes"/>
      <point x="2842" y="1548"/>
      <point x="3150" y="1160"/>
      <point x="3150" y="669" type="curve" smooth="yes"/>
      <point x="3150" y="178"/>
      <point x="2842" y="-210"/>
      <point x="2459" y="-210" type="curve" smooth="yes"/>
      <point x="2076" y="-210"/>
      <point x="1768" y="178"/>
      <point x="1768" y="669" type="curve" smooth="yes"/>
      <point x="1768" y="748"/>
      <point x="1775" y="961"/>
      <point x="1893" y="1176" type="curve"/>
      <point x="568" y="-148" type="line" smooth="yes"/>
      <point x="530" y="-186"/>
      <point x="478" y="-210"/>
      <point x="420" y="-210" type="curve" smooth="yes"/>
      <point x="304" y="-210"/>
      <point x="210" y="-116"/>
      <point x="210" y="0" type="curve" smooth="yes"/>
      <point x="210" y="58"/>
      <point x="234" y="110"/>
      <point x="272" y="148" type="curve" smooth="yes"/>
      <point x="1156" y="1033" type="line"/>
      <point x="1079" y="995"/>
      <point x="993" y="972"/>
      <point x="901" y="972" type="curve" smooth="yes"/>
      <point x="518" y="972"/>
      <point x="210" y="1360"/>
    </contour>
    <contour>
      <point x="630" y="1851" type="curve" smooth="yes"/>
      <point x="630" y="1594"/>
      <point x="767" y="1392"/>
      <point x="901" y="1392" type="curve" smooth="yes"/>
      <point x="1035" y="1392"/>
      <point x="1172" y="1594"/>
      <point x="1172" y="1851" type="curve" smooth="yes"/>
      <point x="1172" y="2108"/>
      <point x="1035" y="2310"/>
      <point x="901" y="2310" type="curve" smooth="yes"/>
      <point x="767" y="2310"/>
      <point x="630" y="2108"/>
    </contour>
    <contour>
      <point x="2188" y="669" type="curve" smooth="yes"/>
      <point x="2188" y="412"/>
      <point x="2325" y="210"/>
      <point x="2459" y="210" type="curve" smooth="yes"/>
      <point x="2593" y="210"/>
      <point x="2730" y="412"/>
      <point x="2730" y="669" type="curve" smooth="yes"/>
      <point x="2730" y="926"/>
      <point x="2593" y="1128"/>
      <point x="2459" y="1128" type="curve" smooth="yes"/>
      <point x="2325" y="1128"/>
      <point x="2188" y="926"/>
    </contour>
  </outline>
</glyph>
<glyph name="ampersand" format="2">
  <advance width="3018"/>
  <unicode hex="0026"/>
  <outline>
    <contour>
      <point x="1870" y="153" type="curve"/>
      <point x="1732" y="-86"/>
      <point x="1524" y="-210"/>
      <point x="1184" y="-210" type="curve" smooth="yes"/>
      <point x="683" y="-210"/>
      <point x="210" y="168"/>
      <point x="210" y="668" type="curve" smooth="yes"/>
      <point x="210" y="1110"/>
      <point x="560" y="1379"/>
      <point x="803" y="1537" type="curve"/>
      <point x="739" y="1697"/>
      <point x="680" y="1894"/>
      <point x="680" y="2072" type="curve" smooth="yes"/>
      <point x="680" y="2448"/>
      <point x="913" y="2730"/>
      <point x="1220" y="2730" type="curve" smooth="yes"/>
      <point x="1569" y="2730"/>
      <point x="1844" y="2465"/>
      <point x="1844" y="2132" type="curve" smooth="yes"/>
      <point x="1844" y="1978"/>
      <point x="1775" y="1688"/>
      <point x="1344" y="1382" type="curve"/>
      <point x="1437" y="1228"/>
      <point x="1567" y="1055"/>
      <point x="1730" y="876" type="curve"/>
      <point x="1776" y="971"/>
      <point x="1825" y="1056"/>
      <point x="1877" y="1136" type="curve" smooth="yes"/>
      <point x="1915" y="1193"/>
      <point x="1979" y="1230"/>
      <point x="2052" y="1230" type="curve" smooth="yes"/>
      <point x="2168" y="1230"/>
      <point x="2262" y="1136"/>
      <point x="2262" y="1020" type="curve" smooth="yes"/>
      <point x="2262" y="902"/>
      <point x="2198" y="917"/>
      <point x="2048" y="558" type="curve"/>
      <point x="2182" y="435"/>
      <point x="2336" y="304"/>
      <point x="2515" y="167" type="curve" smooth="yes"/>
      <point x="2515" y="165"/>
      <point x="2598" y="112"/>
      <point x="2598" y="-0" type="curve" smooth="yes"/>
      <point x="2598" y="-116"/>
      <point x="2504" y="-210"/>
      <point x="2388" y="-210" type="curve" smooth="yes"/>
      <point x="2340" y="-210"/>
      <point x="2296" y="-194"/>
      <point x="2261" y="-167" type="curve" smooth="yes"/>
      <point x="2117" y="-57"/>
      <point x="1987" y="50"/>
    </contour>
    <contour>
      <point x="630" y="668" type="curve" smooth="yes"/>
      <point x="630" y="405"/>
      <point x="917" y="210"/>
      <point x="1184" y="210" type="curve" smooth="yes"/>
      <point x="1419" y="210"/>
      <point x="1476" y="283"/>
      <point x="1552" y="454" type="curve"/>
      <point x="1424" y="584"/>
      <point x="1177" y="850"/>
      <point x="990" y="1157" type="curve"/>
      <point x="725" y="977"/>
      <point x="630" y="827"/>
    </contour>
    <contour>
      <point x="1220" y="2310" type="curve" smooth="yes"/>
      <point x="1155" y="2310"/>
      <point x="1100" y="2200"/>
      <point x="1100" y="2072" type="curve" smooth="yes"/>
      <point x="1100" y="2001"/>
      <point x="1120" y="1897"/>
      <point x="1164" y="1771" type="curve"/>
      <point x="1215" y="1812"/>
      <point x="1424" y="1986"/>
      <point x="1424" y="2132" type="curve" smooth="yes"/>
      <point x="1424" y="2238"/>
      <point x="1331" y="2310"/>
    </contour>
  </outline>
</glyph>
<glyph name="quotesingle" format="2">
  <advance width="1190"/>
  <unicode hex="0027"/>
  <outline>
    <contour>
      <point x="210" y="2380" type="curve" smooth="yes"/>
      <point x="210" y="2450" type="line" smooth="yes"/>
      <point x="210" y="2605"/>
      <point x="336" y="2730"/>
      <point x="490" y="2730" type="curve" smooth="yes"/>
      <point x="644" y="2730"/>
      <point x="770" y="2605"/>
      <point x="770" y="2450" type="curve" smooth="yes"/>
      <point x="770" y="2380" type="line" smooth="yes"/>
      <point x="770" y="2363"/>
      <point x="768" y="2346"/>
      <point x="764" y="2329" type="curve" smooth="yes"/>
      <point x="694" y="2049" type="line" smooth="yes"/>
      <point x="671" y="1958"/>
      <point x="588" y="1890"/>
      <point x="490" y="1890" type="curve" smooth="yes"/>
      <point x="392" y="1890"/>
      <point x="309" y="1958"/>
      <point x="286" y="2049" type="curve" smooth="yes"/>
      <point x="216" y="2329" type="line" smooth="yes"/>
      <point x="212" y="2346"/>
      <point x="210" y="2363"/>
    </contour>
  </outline>
</glyph>
<glyph name="parenleft" format="2">
  <advance width="1890"/>
  <unicode hex="0028"/>
  <outline>
    <contour>
      <point x="210" y="1260" type="curve" smooth="yes"/>
      <point x="210" y="1721"/>
      <point x="326" y="2147"/>
      <point x="527" y="2487" type="curve" smooth="yes"/>
      <point x="786" y="2926"/>
      <point x="1146" y="3133"/>
      <point x="1260" y="3133" type="curve" smooth="yes"/>
      <point x="1376" y="3133"/>
      <point x="1470" y="3039"/>
      <point x="1470" y="2923" type="curve" smooth="yes"/>
      <point x="1470" y="2844"/>
      <point x="1426" y="2771"/>
      <point x="1354" y="2735" type="curve" smooth="yes"/>
      <point x="939" y="2526"/>
      <point x="630" y="1945"/>
      <point x="630" y="1260" type="curve" smooth="yes"/>
      <point x="630" y="577"/>
      <point x="936" y="-5"/>
      <point x="1354" y="-215" type="curve" smooth="yes"/>
      <point x="1422" y="-249"/>
      <point x="1470" y="-321"/>
      <point x="1470" y="-403" type="curve" smooth="yes"/>
      <point x="1470" y="-519"/>
      <point x="1376" y="-613"/>
      <point x="1260" y="-613" type="curve" smooth="yes"/>
      <point x="1226" y="-613"/>
      <point x="1194" y="-605"/>
      <point x="1166" y="-591" type="curve" smooth="yes"/>
      <point x="604" y="-308"/>
      <point x="210" y="413"/>
    </contour>
  </outline>
</glyph>
<glyph name="parenright" format="2">
  <advance width="1890"/>
  <unicode hex="0029"/>
  <outline>
    <contour>
      <point x="210" y="-403" type="curve" smooth="yes"/>
      <point x="210" y="-323"/>
      <point x="254" y="-251"/>
      <point x="326" y="-215" type="curve" smooth="yes"/>
      <point x="741" y="-6"/>
      <point x="1050" y="575"/>
      <point x="1050" y="1260" type="curve" smooth="yes"/>
      <point x="1050" y="1943"/>
      <point x="743" y="2525"/>
      <point x="325" y="2735" type="curve" smooth="yes"/>
      <point x="256" y="2770"/>
      <point x="210" y="2841"/>
      <point x="210" y="2923" type="curve" smooth="yes"/>
      <point x="210" y="3039"/>
      <point x="304" y="3133"/>
      <point x="420" y="3133" type="curve" smooth="yes"/>
      <point x="454" y="3133"/>
      <point x="485" y="3125"/>
      <point x="514" y="3111" type="curve" smooth="yes"/>
      <point x="1076" y="2828"/>
      <point x="1470" y="2107"/>
      <point x="1470" y="1260" type="curve" smooth="yes"/>
      <point x="1470" y="799"/>
      <point x="1354" y="373"/>
      <point x="1153" y="33" type="curve" smooth="yes"/>
      <point x="893" y="-407"/>
      <point x="534" y="-613"/>
      <point x="420" y="-613" type="curve" smooth="yes"/>
      <point x="304" y="-613"/>
      <point x="210" y="-519"/>
    </contour>
  </outline>
</glyph>
<glyph name="asterisk" format="2">
  <advance width="2194"/>
  <unicode hex="002A"/>
  <outline>
    <contour>
      <point x="468" y="1558" type="curve" smooth="yes"/>
      <point x="469" y="1559"/>
      <point x="540" y="1657"/>
      <point x="650" y="1809" type="curve"/>
      <point x="355" y="1905" type="line" smooth="yes"/>
      <point x="271" y="1932"/>
      <point x="210" y="2012"/>
      <point x="210" y="2105" type="curve" smooth="yes"/>
      <point x="210" y="2221"/>
      <point x="304" y="2315"/>
      <point x="420" y="2315" type="curve" smooth="yes"/>
      <point x="446" y="2315"/>
      <point x="468" y="2311"/>
      <point x="485" y="2305" type="curve"/>
      <point x="780" y="2209" type="line"/>
      <point x="781" y="2520" type="line" smooth="yes"/>
      <point x="781" y="2636"/>
      <point x="875" y="2730"/>
      <point x="991" y="2730" type="curve" smooth="yes"/>
      <point x="1107" y="2730"/>
      <point x="1201" y="2636"/>
      <point x="1201" y="2520" type="curve" smooth="yes"/>
      <point x="1201" y="2209" type="line"/>
      <point x="1499" y="2305" type="line" smooth="yes"/>
      <point x="1519" y="2312"/>
      <point x="1541" y="2315"/>
      <point x="1564" y="2315" type="curve" smooth="yes"/>
      <point x="1680" y="2315"/>
      <point x="1774" y="2221"/>
      <point x="1774" y="2105" type="curve" smooth="yes"/>
      <point x="1774" y="2012"/>
      <point x="1713" y="1932"/>
      <point x="1629" y="1905" type="curve" smooth="yes"/>
      <point x="1332" y="1809" type="line"/>
      <point x="1514" y="1558" type="line" smooth="yes"/>
      <point x="1539" y="1523"/>
      <point x="1554" y="1481"/>
      <point x="1554" y="1435" type="curve" smooth="yes"/>
      <point x="1554" y="1319"/>
      <point x="1460" y="1225"/>
      <point x="1344" y="1225" type="curve" smooth="yes"/>
      <point x="1233" y="1225"/>
      <point x="1174" y="1310"/>
      <point x="1174" y="1312" type="curve"/>
      <point x="991" y="1563" type="line"/>
      <point x="807" y="1311" type="line" smooth="yes"/>
      <point x="769" y="1259"/>
      <point x="708" y="1224"/>
      <point x="638" y="1224" type="curve" smooth="yes"/>
      <point x="522" y="1224"/>
      <point x="428" y="1318"/>
      <point x="428" y="1434" type="curve" smooth="yes"/>
      <point x="428" y="1480"/>
      <point x="442" y="1523"/>
    </contour>
    <contour>
      <point x="485" y="2305" type="line"/>
    </contour>
  </outline>
</glyph>
<glyph name="plus" format="2">
  <advance width="2250"/>
  <unicode hex="002B"/>
  <outline>
    <contour>
      <point x="210" y="1338" type="curve" smooth="yes"/>
      <point x="210" y="1454"/>
      <point x="304" y="1548"/>
      <point x="420" y="1548" type="curve" smooth="yes"/>
      <point x="809" y="1548" type="line"/>
      <point x="810" y="1930" type="line" smooth="yes"/>
      <point x="810" y="2046"/>
      <point x="904" y="2140"/>
      <point x="1020" y="2140" type="curve" smooth="yes"/>
      <point x="1136" y="2140"/>
      <point x="1230" y="2046"/>
      <point x="1230" y="1930" type="curve" smooth="yes"/>
      <point x="1230" y="1548" type="line"/>
      <point x="1360" y="1548"/>
      <point x="1490" y="1548"/>
      <point x="1620" y="1548" type="curve" smooth="yes"/>
      <point x="1736" y="1548"/>
      <point x="1830" y="1454"/>
      <point x="1830" y="1338" type="curve" smooth="yes"/>
      <point x="1830" y="1222"/>
      <point x="1736" y="1128"/>
      <point x="1620" y="1128" type="curve" smooth="yes"/>
      <point x="1231" y="1128" type="line"/>
      <point x="1231" y="955"/>
      <point x="1230" y="738"/>
      <point x="1230" y="738" type="curve" smooth="yes"/>
      <point x="1230" y="622"/>
      <point x="1136" y="528"/>
      <point x="1020" y="528" type="curve" smooth="yes"/>
      <point x="904" y="528"/>
      <point x="810" y="622"/>
      <point x="810" y="738" type="curve" smooth="yes"/>
      <point x="810" y="1128" type="line"/>
      <point x="420" y="1128" type="line" smooth="yes"/>
      <point x="304" y="1128"/>
      <point x="210" y="1222"/>
    </contour>
  </outline>
</glyph>
<glyph name="comma" format="2">
  <advance width="1260"/>
  <unicode hex="002C"/>
  <outline>
    <contour>
      <point x="183" y="-211" type="curve" smooth="yes"/>
      <point x="183" y="-145"/>
      <point x="214" y="-87"/>
      <point x="261" y="-48" type="curve" smooth="yes"/>
      <point x="269" y="-41"/>
      <point x="284" y="-27"/>
      <point x="300" y="-10" type="curve"/>
      <point x="244" y="47"/>
      <point x="210" y="124"/>
      <point x="210" y="210" type="curve" smooth="yes"/>
      <point x="210" y="384"/>
      <point x="351" y="525"/>
      <point x="525" y="525" type="curve" smooth="yes"/>
      <point x="699" y="525"/>
      <point x="840" y="384"/>
      <point x="840" y="210" type="curve" smooth="yes"/>
      <point x="840" y="-110"/>
      <point x="558" y="-347"/>
      <point x="526" y="-373" type="curve" smooth="yes"/>
      <point x="490" y="-403"/>
      <point x="443" y="-420"/>
      <point x="393" y="-420" type="curve" smooth="yes"/>
      <point x="277" y="-420"/>
      <point x="183" y="-327"/>
    </contour>
  </outline>
</glyph>
<glyph name="hyphen" format="2">
  <advance width="2250"/>
  <unicode hex="002D"/>
  <outline>
    <contour>
      <point x="210" y="1339" type="curve" smooth="yes"/>
      <point x="210" y="1455"/>
      <point x="304" y="1549"/>
      <point x="420" y="1549" type="curve" smooth="yes"/>
      <point x="1620" y="1549" type="line" smooth="yes"/>
      <point x="1736" y="1549"/>
      <point x="1830" y="1455"/>
      <point x="1830" y="1339" type="curve" smooth="yes"/>
      <point x="1830" y="1223"/>
      <point x="1736" y="1129"/>
      <point x="1620" y="1129" type="curve" smooth="yes"/>
      <point x="420" y="1129" type="line" smooth="yes"/>
      <point x="304" y="1129"/>
      <point x="210" y="1223"/>
    </contour>
  </outline>
</glyph>
<glyph name="slash" format="2">
  <advance width="2680"/>
  <unicode hex="002F"/>
  <outline>
    <contour>
      <point x="210" y="-140" type="curve" smooth="yes"/>
      <point x="210" y="-102"/>
      <point x="220" y="-66"/>
      <point x="238" y="-35" type="curve" smooth="yes"/>
      <point x="1869" y="2766" type="line" smooth="yes"/>
      <point x="1905" y="2829"/>
      <point x="1973" y="2870"/>
      <point x="2050" y="2870" type="curve" smooth="yes"/>
      <point x="2166" y="2870"/>
      <point x="2260" y="2776"/>
      <point x="2260" y="2660" type="curve" smooth="yes"/>
      <point x="2260" y="2622"/>
      <point x="2250" y="2586"/>
      <point x="2232" y="2555" type="curve" smooth="yes"/>
      <point x="601" y="-246" type="line" smooth="yes"/>
      <point x="565" y="-308"/>
      <point x="497" y="-350"/>
      <point x="420" y="-350" type="curve" smooth="yes"/>
      <point x="304" y="-350"/>
      <point x="210" y="-256"/>
    </contour>
  </outline>
</glyph>
<glyph name="zero" format="2">
  <advance width="2860"/>
  <unicode hex="0030"/>
  <outline>
    <contour>
      <point x="1325" y="-210" type="curve" smooth="yes"/>
      <point x="707" y="-210"/>
      <point x="210" y="443"/>
      <point x="210" y="1260" type="curve" smooth="yes"/>
      <point x="210" y="2076"/>
      <point x="707" y="2730"/>
      <point x="1325" y="2730" type="curve" smooth="yes"/>
      <point x="1943" y="2730"/>
      <point x="2440" y="2077"/>
      <point x="2440" y="1260" type="curve" smooth="yes"/>
      <point x="2440" y="444"/>
      <point x="1943" y="-210"/>
    </contour>
    <contour>
      <point x="1325" y="2310" type="curve" smooth="yes"/>
      <point x="952" y="2310"/>
      <point x="630" y="1838"/>
      <point x="630" y="1260" type="curve" smooth="yes"/>
      <point x="630" y="682"/>
      <point x="952" y="210"/>
      <point x="1325" y="210" type="curve" smooth="yes"/>
      <point x="1698" y="210"/>
      <point x="2020" y="682"/>
      <point x="2020" y="1260" type="curve" smooth="yes"/>
      <point x="2020" y="1838"/>
      <point x="1698" y="2310"/>
    </contour>
  </outline>
</glyph>
<glyph name="two" format="2">
  <advance width="2680"/>
  <unicode hex="0032"/>
  <outline>
    <contour>
      <point x="1150" y="2731" type="curve" smooth="yes"/>
      <point x="1692" y="2731"/>
      <point x="2119" y="2393"/>
      <point x="2119" y="1965" type="curve" smooth="yes"/>
      <point x="2119" y="1494"/>
      <point x="1842" y="1335"/>
      <point x="1484" y="1129" type="curve" smooth="yes"/>
      <point x="1051" y="880"/>
      <point x="738" y="693"/>
      <point x="652" y="210" type="curve"/>
      <point x="2050" y="210" type="line" smooth="yes"/>
      <point x="2166" y="210"/>
      <point x="2260" y="116"/>
      <point x="2260" y="0" type="curve" smooth="yes"/>
      <point x="2260" y="-116"/>
      <point x="2166" y="-210"/>
      <point x="2050" y="-210" type="curve" smooth="yes"/>
      <point x="420" y="-210" type="line" smooth="yes"/>
      <point x="304" y="-210"/>
      <point x="210" y="-116"/>
      <point x="210" y="0" type="curve" smooth="yes"/>
      <point x="210" y="2"/>
      <point x="210" y="6"/>
      <point x="210" y="8" type="curve" smooth="yes"/>
      <point x="241" y="898"/>
      <point x="774" y="1204"/>
      <point x="1275" y="1493" type="curve" smooth="yes"/>
      <point x="1613" y="1688"/>
      <point x="1699" y="1742"/>
      <point x="1699" y="1965" type="curve" smooth="yes"/>
      <point x="1699" y="2149"/>
      <point x="1452" y="2311"/>
      <point x="1150" y="2311" type="curve" smooth="yes"/>
      <point x="878" y="2311"/>
      <point x="659" y="2174"/>
      <point x="647" y="2037" type="curve" smooth="yes"/>
      <point x="647" y="2037"/>
      <point x="633" y="1864"/>
      <point x="630" y="1832" type="curve" smooth="yes"/>
      <point x="624" y="1722"/>
      <point x="532" y="1634"/>
      <point x="420" y="1634" type="curve" smooth="yes"/>
      <point x="304" y="1634"/>
      <point x="210" y="1728"/>
      <point x="210" y="1844" type="curve" smooth="yes"/>
      <point x="210" y="1845" type="line" smooth="yes"/>
      <point x="210" y="1854"/>
      <point x="210" y="1854"/>
      <point x="229" y="2073" type="curve" smooth="yes"/>
      <point x="260" y="2428"/>
      <point x="637" y="2731"/>
    </contour>
  </outline>
</glyph>
<glyph name="three" format="2">
  <advance width="2805"/>
  <unicode hex="0033"/>
  <outline>
    <contour>
      <point x="1497" y="1354" type="curve" smooth="yes"/>
      <point x="1120" y="1354"/>
      <point x="1203" y="1290"/>
      <point x="1075" y="1290" type="curve" smooth="yes"/>
      <point x="958" y="1290"/>
      <point x="865" y="1385"/>
      <point x="865" y="1500" type="curve" smooth="yes"/>
      <point x="865" y="1528"/>
      <point x="872" y="1611"/>
      <point x="950" y="1669" type="curve" smooth="yes"/>
      <point x="1322" y="1946"/>
      <point x="1487" y="2128"/>
      <point x="1582" y="2310" type="curve"/>
      <point x="483" y="2310" type="line" smooth="yes"/>
      <point x="367" y="2310"/>
      <point x="273" y="2404"/>
      <point x="273" y="2520" type="curve" smooth="yes"/>
      <point x="273" y="2636"/>
      <point x="367" y="2730"/>
      <point x="483" y="2730" type="curve" smooth="yes"/>
      <point x="1883" y="2730" type="line" smooth="yes"/>
      <point x="2000" y="2730"/>
      <point x="2093" y="2634"/>
      <point x="2093" y="2520" type="curve" smooth="yes"/>
      <point x="2093" y="2502"/>
      <point x="2091" y="2484"/>
      <point x="2086" y="2467" type="curve" smooth="yes"/>
      <point x="2017" y="2203"/>
      <point x="1907" y="1983"/>
      <point x="1690" y="1752" type="curve"/>
      <point x="2074" y="1663"/>
      <point x="2385" y="1313"/>
      <point x="2385" y="836" type="curve" smooth="yes"/>
      <point x="2385" y="252"/>
      <point x="1931" y="-210"/>
      <point x="1295" y="-210" type="curve" smooth="yes"/>
      <point x="1082" y="-210"/>
      <point x="562" y="-153"/>
      <point x="322" y="372" type="curve" smooth="yes"/>
      <point x="284" y="456"/>
      <point x="210" y="616"/>
      <point x="210" y="675" type="curve" smooth="yes"/>
      <point x="210" y="791"/>
      <point x="304" y="885"/>
      <point x="420" y="885" type="curve" smooth="yes"/>
      <point x="506" y="885"/>
      <point x="581" y="832"/>
      <point x="613" y="758" type="curve" smooth="yes"/>
      <point x="705" y="544" type="line"/>
      <point x="772" y="400"/>
      <point x="929" y="210"/>
      <point x="1295" y="210" type="curve" smooth="yes"/>
      <point x="1699" y="210"/>
      <point x="1965" y="483"/>
      <point x="1965" y="836" type="curve" smooth="yes"/>
      <point x="1965" y="1172"/>
      <point x="1719" y="1354"/>
    </contour>
  </outline>
</glyph>
<glyph name="four" format="2">
  <advance width="2940"/>
  <unicode hex="0034"/>
  <outline>
    <contour>
      <point x="210" y="1145" type="line" smooth="yes"/>
      <point x="210" y="1191"/>
      <point x="226" y="1236"/>
      <point x="254" y="1273" type="curve" smooth="yes"/>
      <point x="1313" y="2648" type="line" smooth="yes"/>
      <point x="1353" y="2700"/>
      <point x="1415" y="2730"/>
      <point x="1480" y="2730" type="curve" smooth="yes"/>
      <point x="1785" y="2730" type="line" smooth="yes"/>
      <point x="1901" y="2730"/>
      <point x="1995" y="2636"/>
      <point x="1995" y="2520" type="curve" smooth="yes"/>
      <point x="1995" y="1098" type="line"/>
      <point x="2310" y="1098" type="line" smooth="yes"/>
      <point x="2426" y="1098"/>
      <point x="2520" y="1004"/>
      <point x="2520" y="888" type="curve" smooth="yes"/>
      <point x="2520" y="772"/>
      <point x="2426" y="678"/>
      <point x="2310" y="678" type="curve" smooth="yes"/>
      <point x="1995" y="678" type="line"/>
      <point x="1995" y="0" type="line" smooth="yes"/>
      <point x="1995" y="-116"/>
      <point x="1901" y="-210"/>
      <point x="1785" y="-210" type="curve" smooth="yes"/>
      <point x="1669" y="-210"/>
      <point x="1575" y="-116"/>
      <point x="1575" y="0" type="curve" smooth="yes"/>
      <point x="1575" y="678" type="line"/>
      <point x="420" y="678" type="line" smooth="yes"/>
      <point x="304" y="678"/>
      <point x="210" y="772"/>
      <point x="210" y="888" type="curve" smooth="yes"/>
    </contour>
    <contour>
      <point x="649" y="1098" type="line"/>
      <point x="1575" y="1098" type="line"/>
      <point x="1575" y="2299" type="line"/>
    </contour>
  </outline>
</glyph>
<glyph name="five" format="2">
  <advance width="2675"/>
  <unicode hex="0035"/>
  <outline>
    <contour>
      <point x="210" y="502" type="curve"/>
      <point x="210" y="503" type="line"/>
      <point x="210" y="619"/>
      <point x="304" y="713"/>
      <point x="420" y="713" type="curve" smooth="yes"/>
      <point x="529" y="713"/>
      <point x="562" y="665"/>
      <point x="650" y="540" type="curve" smooth="yes"/>
      <point x="790" y="340"/>
      <point x="982" y="210"/>
      <point x="1205" y="210" type="curve" smooth="yes"/>
      <point x="1553" y="210"/>
      <point x="1835" y="492"/>
      <point x="1835" y="840" type="curve" smooth="yes"/>
      <point x="1835" y="1188"/>
      <point x="1553" y="1470"/>
      <point x="1205" y="1470" type="curve" smooth="yes"/>
      <point x="1145" y="1470"/>
      <point x="867" y="1456"/>
      <point x="689" y="1202" type="curve" smooth="yes"/>
      <point x="674" y="1181"/>
      <point x="618" y="1112"/>
      <point x="517" y="1112" type="curve" smooth="yes"/>
      <point x="401" y="1112"/>
      <point x="307" y="1206"/>
      <point x="307" y="1322" type="curve" smooth="yes"/>
      <point x="307" y="1332"/>
      <point x="308" y="1341"/>
      <point x="309" y="1351" type="curve" smooth="yes"/>
      <point x="477" y="2550" type="line" smooth="yes"/>
      <point x="491" y="2653"/>
      <point x="581" y="2730"/>
      <point x="685" y="2730" type="curve" smooth="yes"/>
      <point x="1805" y="2730" type="line" smooth="yes"/>
      <point x="1921" y="2730"/>
      <point x="2015" y="2636"/>
      <point x="2015" y="2520" type="curve" smooth="yes"/>
      <point x="2015" y="2404"/>
      <point x="1921" y="2310"/>
      <point x="1805" y="2310" type="curve" smooth="yes"/>
      <point x="868" y="2310" type="line"/>
      <point x="797" y="1807" type="line"/>
      <point x="923" y="1861"/>
      <point x="1061" y="1890"/>
      <point x="1205" y="1890" type="curve" smooth="yes"/>
      <point x="1785" y="1890"/>
      <point x="2255" y="1420"/>
      <point x="2255" y="840" type="curve" smooth="yes"/>
      <point x="2255" y="260"/>
      <point x="1785" y="-210"/>
      <point x="1205" y="-210" type="curve" smooth="yes"/>
      <point x="806" y="-210"/>
      <point x="497" y="25"/>
      <point x="305" y="300" type="curve" smooth="yes"/>
      <point x="248" y="382" type="line" smooth="yes"/>
      <point x="223" y="417"/>
      <point x="210" y="459"/>
    </contour>
  </outline>
</glyph>
<glyph name="six" format="2">
  <advance width="2717"/>
  <unicode hex="0036"/>
  <outline>
    <contour>
      <point x="210" y="1303" type="curve" smooth="yes"/>
      <point x="210" y="1529"/>
      <point x="239" y="2045"/>
      <point x="626" y="2428" type="curve" smooth="yes"/>
      <point x="844" y="2644"/>
      <point x="1051" y="2731"/>
      <point x="1379" y="2731" type="curve" smooth="yes"/>
      <point x="1734" y="2731"/>
      <point x="2042" y="2520"/>
      <point x="2142" y="2344" type="curve" smooth="yes"/>
      <point x="2236" y="2178" type="line" smooth="yes"/>
      <point x="2254" y="2147"/>
      <point x="2263" y="2113"/>
      <point x="2263" y="2075" type="curve" smooth="yes"/>
      <point x="2263" y="1959"/>
      <point x="2169" y="1865"/>
      <point x="2053" y="1865" type="curve" smooth="yes"/>
      <point x="1975" y="1865"/>
      <point x="1906" y="1907"/>
      <point x="1870" y="1971" type="curve" smooth="yes"/>
      <point x="1782" y="2127" type="line"/>
      <point x="1768" y="2145"/>
      <point x="1633" y="2311"/>
      <point x="1379" y="2311" type="curve" smooth="yes"/>
      <point x="1163" y="2311"/>
      <point x="1061" y="2268"/>
      <point x="922" y="2130" type="curve" smooth="yes"/>
      <point x="828" y="2037"/>
      <point x="652" y="1824"/>
      <point x="632" y="1383" type="curve"/>
      <point x="871" y="1612"/>
      <point x="1139" y="1626"/>
      <point x="1299" y="1626" type="curve" smooth="yes"/>
      <point x="1848" y="1626"/>
      <point x="2297" y="1271"/>
      <point x="2297" y="687" type="curve" smooth="yes"/>
      <point x="2297" y="174"/>
      <point x="1887" y="-210"/>
      <point x="1326" y="-210" type="curve" smooth="yes"/>
      <point x="665" y="-210"/>
      <point x="210" y="322"/>
    </contour>
    <contour>
      <point x="710" y="720" type="curve"/>
      <point x="861" y="251"/>
      <point x="1166" y="210"/>
      <point x="1326" y="210" type="curve" smooth="yes"/>
      <point x="1637" y="210"/>
      <point x="1877" y="392"/>
      <point x="1877" y="687" type="curve" smooth="yes"/>
      <point x="1877" y="1086"/>
      <point x="1549" y="1206"/>
      <point x="1299" y="1206" type="curve" smooth="yes"/>
      <point x="1111" y="1206"/>
      <point x="881" y="1188"/>
    </contour>
  </outline>
</glyph>
<glyph name="seven" format="2">
  <advance width="2680"/>
  <unicode hex="0037"/>
  <outline>
    <contour>
      <point x="210" y="2520" type="curve" smooth="yes"/>
      <point x="210" y="2636"/>
      <point x="304" y="2730"/>
      <point x="420" y="2730" type="curve" smooth="yes"/>
      <point x="2050" y="2730" type="line" smooth="yes"/>
      <point x="2166" y="2730"/>
      <point x="2260" y="2636"/>
      <point x="2260" y="2520" type="curve" smooth="yes"/>
      <point x="2260" y="2310" type="line" smooth="yes"/>
      <point x="2260" y="2254"/>
      <point x="2238" y="2200"/>
      <point x="2199" y="2161" type="curve" smooth="yes"/>
      <point x="2198" y="2161" type="line" smooth="yes"/>
      <point x="1815" y="1778"/>
      <point x="1260" y="1186"/>
      <point x="1260" y="0" type="curve" smooth="yes"/>
      <point x="1260" y="-116"/>
      <point x="1166" y="-210"/>
      <point x="1050" y="-210" type="curve" smooth="yes"/>
      <point x="934" y="-210"/>
      <point x="840" y="-116"/>
      <point x="840" y="0" type="curve" smooth="yes"/>
      <point x="840" y="1214"/>
      <point x="1366" y="1899"/>
      <point x="1756" y="2310" type="curve"/>
      <point x="420" y="2310" type="line" smooth="yes"/>
      <point x="304" y="2310"/>
      <point x="210" y="2404"/>
    </contour>
  </outline>
</glyph>
<glyph name="eight" format="2">
  <advance width="2730"/>
  <unicode hex="0038"/>
  <outline>
    <contour>
      <point x="1294" y="-211" type="curve" smooth="yes"/>
      <point x="716" y="-211"/>
      <point x="210" y="185"/>
      <point x="210" y="696" type="curve" smooth="yes"/>
      <point x="210" y="958"/>
      <point x="340" y="1228"/>
      <point x="577" y="1407" type="curve"/>
      <point x="407" y="1544"/>
      <point x="310" y="1735"/>
      <point x="310" y="1952" type="curve" smooth="yes"/>
      <point x="310" y="2384"/>
      <point x="715" y="2731"/>
      <point x="1228" y="2731" type="curve" smooth="yes"/>
      <point x="1749" y="2731"/>
      <point x="2210" y="2403"/>
      <point x="2210" y="1964" type="curve" smooth="yes"/>
      <point x="2210" y="1836"/>
      <point x="2175" y="1590"/>
      <point x="1942" y="1402" type="curve"/>
      <point x="2020" y="1343"/>
      <point x="2310" y="1094"/>
      <point x="2310" y="702" type="curve" smooth="yes"/>
      <point x="2310" y="219"/>
      <point x="1880" y="-211"/>
    </contour>
    <contour>
      <point x="1294" y="209" type="curve" smooth="yes"/>
      <point x="1644" y="209"/>
      <point x="1890" y="449"/>
      <point x="1890" y="702" type="curve" smooth="yes"/>
      <point x="1890" y="886"/>
      <point x="1716" y="1156"/>
      <point x="1370" y="1190" type="curve"/>
      <point x="1150" y="1190" type="line"/>
      <point x="785" y="1154"/>
      <point x="630" y="885"/>
      <point x="630" y="696" type="curve" smooth="yes"/>
      <point x="630" y="426"/>
      <point x="950" y="209"/>
    </contour>
    <contour>
      <point x="1228" y="2311" type="curve" smooth="yes"/>
      <point x="953" y="2311"/>
      <point x="730" y="2148"/>
      <point x="730" y="1952" type="curve" smooth="yes"/>
      <point x="730" y="1725.2"/>
      <point x="999.248" y="1605.85"/>
      <point x="1266.35" y="1605.85" type="curve" smooth="yes"/>
      <point x="1529.21" y="1605.85"/>
      <point x="1790" y="1721.45"/>
      <point x="1790" y="1964" type="curve" smooth="yes"/>
      <point x="1790" y="2148"/>
      <point x="1519" y="2311"/>
    </contour>
  </outline>
</glyph>
<glyph name="nine" format="2">
  <advance width="2717"/>
  <unicode hex="0039"/>
  <outline>
    <contour>
      <point x="210" y="1834" type="curve" smooth="yes"/>
      <point x="210" y="2347"/>
      <point x="620" y="2731"/>
      <point x="1181" y="2731" type="curve" smooth="yes"/>
      <point x="1842" y="2731"/>
      <point x="2297" y="2199"/>
      <point x="2297" y="1218" type="curve" smooth="yes"/>
      <point x="2297" y="992"/>
      <point x="2268" y="476"/>
      <point x="1881" y="93" type="curve" smooth="yes"/>
      <point x="1663" y="-123"/>
      <point x="1456" y="-210"/>
      <point x="1128" y="-210" type="curve" smooth="yes"/>
      <point x="773" y="-210"/>
      <point x="465" y="1"/>
      <point x="365" y="177" type="curve" smooth="yes"/>
      <point x="271" y="343" type="line" smooth="yes"/>
      <point x="253" y="374"/>
      <point x="244" y="408"/>
      <point x="244" y="446" type="curve" smooth="yes"/>
      <point x="244" y="562"/>
      <point x="338" y="656"/>
      <point x="454" y="656" type="curve" smooth="yes"/>
      <point x="532" y="656"/>
      <point x="601" y="614"/>
      <point x="637" y="550" type="curve" smooth="yes"/>
      <point x="725" y="394" type="line"/>
      <point x="739" y="376"/>
      <point x="874" y="210"/>
      <point x="1128" y="210" type="curve" smooth="yes"/>
      <point x="1344" y="210"/>
      <point x="1446" y="253"/>
      <point x="1585" y="391" type="curve" smooth="yes"/>
      <point x="1679" y="484"/>
      <point x="1855" y="697"/>
      <point x="1875" y="1138" type="curve"/>
      <point x="1636" y="909"/>
      <point x="1368" y="895"/>
      <point x="1208" y="895" type="curve" smooth="yes"/>
      <point x="659" y="895"/>
      <point x="210" y="1250"/>
    </contour>
    <contour>
      <point x="1797" y="1801" type="curve"/>
      <point x="1646" y="2270"/>
      <point x="1341" y="2311"/>
      <point x="1181" y="2311" type="curve" smooth="yes"/>
      <point x="870" y="2311"/>
      <point x="630" y="2129"/>
      <point x="630" y="1834" type="curve" smooth="yes"/>
      <point x="630" y="1435"/>
      <point x="958" y="1315"/>
      <point x="1208" y="1315" type="curve" smooth="yes"/>
      <point x="1396" y="1315"/>
      <point x="1626" y="1333"/>
    </contour>
  </outline>
</glyph>
<glyph name="colon" format="2">
  <advance width="1260"/>
  <unicode hex="003A"/>
  <outline>
    <contour>
      <point x="210" y="210" type="curve" smooth="yes"/>
      <point x="210" y="384"/>
      <point x="351" y="525"/>
      <point x="525" y="525" type="curve" smooth="yes"/>
      <point x="699" y="525"/>
      <point x="840" y="384"/>
      <point x="840" y="210" type="curve" smooth="yes"/>
      <point x="840" y="36"/>
      <point x="699" y="-105"/>
      <point x="525" y="-105" type="curve" smooth="yes"/>
      <point x="351" y="-105"/>
      <point x="210" y="36"/>
    </contour>
    <contour>
      <point x="210" y="1338" type="curve" smooth="yes"/>
      <point x="210" y="1512"/>
      <point x="351" y="1653"/>
      <point x="525" y="1653" type="curve" smooth="yes"/>
      <point x="699" y="1653"/>
      <point x="840" y="1512"/>
      <point x="840" y="1338" type="curve" smooth="yes"/>
      <point x="840" y="1164"/>
      <point x="699" y="1023"/>
      <point x="525" y="1023" type="curve" smooth="yes"/>
      <point x="351" y="1023"/>
      <point x="210" y="1164"/>
    </contour>
    <contour>
      <point x="420" y="210" type="line"/>
      <point x="525" y="105" type="line"/>
      <point x="630" y="210" type="line"/>
      <point x="525" y="315" type="line"/>
    </contour>
    <contour>
      <point x="420" y="1338" type="line"/>
      <point x="525" y="1233" type="line"/>
      <point x="630" y="1338" type="line"/>
      <point x="525" y="1443" type="line"/>
    </contour>
  </outline>
</glyph>
<glyph name="semicolon" format="2">
  <advance width="1260"/>
  <unicode hex="003B"/>
  <outline>
    <contour>
      <point x="210" y="204" type="curve" smooth="yes"/>
      <point x="210" y="400"/>
      <point x="364" y="525"/>
      <point x="525" y="525" type="curve" smooth="yes"/>
      <point x="699" y="525"/>
      <point x="840" y="384"/>
      <point x="840" y="210" type="curve" smooth="yes"/>
      <point x="840" y="-110"/>
      <point x="558" y="-347"/>
      <point x="526" y="-373" type="curve" smooth="yes"/>
      <point x="490" y="-403"/>
      <point x="443" y="-420"/>
      <point x="393" y="-420" type="curve" smooth="yes"/>
      <point x="277" y="-420"/>
      <point x="183" y="-327"/>
      <point x="183" y="-211" type="curve" smooth="yes"/>
      <point x="183" y="-145"/>
      <point x="214" y="-87"/>
      <point x="261" y="-48" type="curve" smooth="yes"/>
      <point x="269" y="-42"/>
      <point x="283" y="-27"/>
      <point x="299" y="-11" type="curve"/>
      <point x="267" y="21"/>
      <point x="210" y="95"/>
    </contour>
    <contour>
      <point x="210" y="1338" type="curve" smooth="yes"/>
      <point x="210" y="1512"/>
      <point x="351" y="1653"/>
      <point x="525" y="1653" type="curve" smooth="yes"/>
      <point x="699" y="1653"/>
      <point x="840" y="1512"/>
      <point x="840" y="1338" type="curve" smooth="yes"/>
      <point x="840" y="1164"/>
      <point x="699" y="1023"/>
      <point x="525" y="1023" type="curve" smooth="yes"/>
      <point x="351" y="1023"/>
      <point x="210" y="1164"/>
    </contour>
    <contour>
      <point x="420" y="1338" type="line"/>
      <point x="525" y="1233" type="line"/>
      <point x="630" y="1338" type="line"/>
      <point x="525" y="1443" type="line"/>
    </contour>
  </outline>
</glyph>
<glyph name="less" format="2">
  <advance width="2250"/>
  <unicode hex="003C"/>
  <outline>
    <contour>
      <point x="210" y="1338" type="curve" smooth="yes"/>
      <point x="210" y="1354"/>
      <point x="214" y="1480"/>
      <point x="340" y="1532" type="curve" smooth="yes"/>
      <point x="1540" y="2029" type="line" smooth="yes"/>
      <point x="1565" y="2039"/>
      <point x="1592" y="2045"/>
      <point x="1620" y="2045" type="curve" smooth="yes"/>
      <point x="1736" y="2045"/>
      <point x="1830" y="1951"/>
      <point x="1830" y="1835" type="curve" smooth="yes"/>
      <point x="1830" y="1747"/>
      <point x="1777" y="1673"/>
      <point x="1701" y="1641" type="curve" smooth="yes"/>
      <point x="969" y="1338" type="line"/>
      <point x="1701" y="1035" type="line" smooth="yes"/>
      <point x="1777" y="1003"/>
      <point x="1830" y="929"/>
      <point x="1830" y="841" type="curve" smooth="yes"/>
      <point x="1830" y="725"/>
      <point x="1736" y="631"/>
      <point x="1620" y="631" type="curve" smooth="yes"/>
      <point x="1592" y="631"/>
      <point x="1565" y="637"/>
      <point x="1540" y="647" type="curve" smooth="yes"/>
      <point x="340" y="1144" type="line" smooth="yes"/>
      <point x="264" y="1176"/>
      <point x="210" y="1251"/>
    </contour>
  </outline>
</glyph>
<glyph name="equal" format="2">
  <advance width="2250"/>
  <unicode hex="003D"/>
  <outline>
    <contour>
      <point x="210" y="918" type="curve" smooth="yes"/>
      <point x="210" y="1034"/>
      <point x="304" y="1128"/>
      <point x="420" y="1128" type="curve" smooth="yes"/>
      <point x="1620" y="1128" type="line" smooth="yes"/>
      <point x="1736" y="1128"/>
      <point x="1830" y="1034"/>
      <point x="1830" y="918" type="curve" smooth="yes"/>
      <point x="1830" y="802"/>
      <point x="1736" y="708"/>
      <point x="1620" y="708" type="curve" smooth="yes"/>
      <point x="420" y="708" type="line" smooth="yes"/>
      <point x="304" y="708"/>
      <point x="210" y="802"/>
    </contour>
    <contour>
      <point x="210" y="1758" type="curve" smooth="yes"/>
      <point x="210" y="1874"/>
      <point x="304" y="1968"/>
      <point x="420" y="1968" type="curve" smooth="yes"/>
      <point x="1620" y="1968" type="line" smooth="yes"/>
      <point x="1736" y="1968"/>
      <point x="1830" y="1874"/>
      <point x="1830" y="1758" type="curve" smooth="yes"/>
      <point x="1830" y="1642"/>
      <point x="1736" y="1548"/>
      <point x="1620" y="1548" type="curve" smooth="yes"/>
      <point x="420" y="1548" type="line" smooth="yes"/>
      <point x="304" y="1548"/>
      <point x="210" y="1642"/>
    </contour>
  </outline>
</glyph>
<glyph name="greater" format="2">
  <advance width="2250"/>
  <unicode hex="003E"/>
  <outline>
    <contour>
      <point x="210" y="1835" type="curve" smooth="yes"/>
      <point x="210" y="1951"/>
      <point x="304" y="2045"/>
      <point x="420" y="2045" type="curve" smooth="yes"/>
      <point x="448" y="2045"/>
      <point x="475" y="2039"/>
      <point x="500" y="2029" type="curve" smooth="yes"/>
      <point x="1700" y="1532" type="line" smooth="yes"/>
      <point x="1714" y="1526"/>
      <point x="1830" y="1474"/>
      <point x="1830" y="1338" type="curve" smooth="yes"/>
      <point x="1830" y="1252"/>
      <point x="1778" y="1176"/>
      <point x="1700" y="1144" type="curve" smooth="yes"/>
      <point x="500" y="647" type="line" smooth="yes"/>
      <point x="475" y="637"/>
      <point x="448" y="631"/>
      <point x="420" y="631" type="curve" smooth="yes"/>
      <point x="304" y="631"/>
      <point x="210" y="725"/>
      <point x="210" y="841" type="curve" smooth="yes"/>
      <point x="210" y="929"/>
      <point x="263" y="1004"/>
      <point x="339" y="1035" type="curve" smooth="yes"/>
      <point x="1071" y="1338" type="line"/>
      <point x="339" y="1641" type="line" smooth="yes"/>
      <point x="263" y="1672"/>
      <point x="210" y="1747"/>
    </contour>
  </outline>
</glyph>
<glyph name="question" format="2">
  <advance width="2292"/>
  <unicode hex="003F"/>
  <outline>
    <contour>
      <point x="491" y="1536" type="curve" smooth="yes"/>
      <point x="278" y="1536"/>
      <point x="210" y="1841"/>
      <point x="210" y="2018" type="curve" smooth="yes"/>
      <point x="210" y="2019"/>
      <point x="210" y="2054"/>
      <point x="210" y="2054" type="curve" smooth="yes"/>
      <point x="210" y="2428"/>
      <point x="577" y="2730"/>
      <point x="1041" y="2730" type="curve" smooth="yes"/>
      <point x="1505" y="2730"/>
      <point x="1873" y="2428"/>
      <point x="1873" y="2054" type="curve" smooth="yes"/>
      <point x="1873" y="1490"/>
      <point x="1251" y="1251"/>
      <point x="1251" y="840" type="curve" smooth="yes"/>
      <point x="1251" y="724"/>
      <point x="1157" y="630"/>
      <point x="1041" y="630" type="curve" smooth="yes"/>
      <point x="925" y="630"/>
      <point x="831" y="724"/>
      <point x="831" y="840" type="curve" smooth="yes"/>
      <point x="831" y="1446"/>
      <point x="1453" y="1706"/>
      <point x="1453" y="2054" type="curve" smooth="yes"/>
      <point x="1453" y="2184"/>
      <point x="1269" y="2310"/>
      <point x="1041" y="2310" type="curve" smooth="yes"/>
      <point x="813" y="2310"/>
      <point x="630" y="2184"/>
      <point x="630" y="2054" type="curve" smooth="yes"/>
      <point x="630" y="2052"/>
      <point x="630" y="2018"/>
      <point x="630" y="2018" type="curve" smooth="yes"/>
      <point x="630" y="1855"/>
      <point x="701" y="1862"/>
      <point x="701" y="1746" type="curve" smooth="yes"/>
      <point x="701" y="1630"/>
      <point x="607" y="1536"/>
    </contour>
    <contour>
      <point x="726" y="210" type="curve" smooth="yes"/>
      <point x="726" y="384"/>
      <point x="867" y="525"/>
      <point x="1041" y="525" type="curve" smooth="yes"/>
      <point x="1215" y="525"/>
      <point x="1356" y="384"/>
      <point x="1356" y="210" type="curve" smooth="yes"/>
      <point x="1356" y="36"/>
      <point x="1215" y="-105"/>
      <point x="1041" y="-105" type="curve" smooth="yes"/>
      <point x="867" y="-105"/>
      <point x="726" y="36"/>
    </contour>
    <contour>
      <point x="936" y="210" type="line"/>
      <point x="1041" y="105" type="line"/>
      <point x="1146" y="210" type="line"/>
      <point x="1041" y="315" type="line"/>
    </contour>
  </outline>
</glyph>
<glyph name="at" format="2">
  <advance width="3779"/>
  <unicode hex="0040"/>
  <outline>
    <contour>
      <point x="1785" y="0" type="curve" smooth="yes"/>
      <point x="2159" y="0"/>
      <point x="2310" y="159"/>
      <point x="2425" y="159" type="curve" smooth="yes"/>
      <point x="2541" y="159"/>
      <point x="2635" y="65"/>
      <point x="2635" y="-51" type="curve" smooth="yes"/>
      <point x="2635" y="-128"/>
      <point x="2593" y="-199"/>
      <point x="2524" y="-236" type="curve" smooth="yes"/>
      <point x="2304" y="-353"/>
      <point x="2052" y="-420"/>
      <point x="1785" y="-420" type="curve" smooth="yes"/>
      <point x="918" y="-420"/>
      <point x="210" y="331"/>
      <point x="210" y="1260" type="curve" smooth="yes"/>
      <point x="210" y="2189"/>
      <point x="918" y="2940"/>
      <point x="1785" y="2940" type="curve" smooth="yes"/>
      <point x="2652" y="2940"/>
      <point x="3360" y="2189"/>
      <point x="3360" y="1260" type="curve" smooth="yes"/>
      <point x="3360" y="1112"/>
      <point x="3346" y="690"/>
      <point x="3059" y="407" type="curve" smooth="yes"/>
      <point x="2937" y="287"/>
      <point x="2737" y="164"/>
      <point x="2425" y="164" type="curve" smooth="yes"/>
      <point x="2326" y="164"/>
      <point x="2245" y="208"/>
      <point x="2195" y="248" type="curve"/>
      <point x="2094" y="198"/>
      <point x="1967" y="174"/>
      <point x="1815" y="174" type="curve" smooth="yes"/>
      <point x="1617" y="174"/>
      <point x="1324" y="215"/>
      <point x="1184" y="438" type="curve" smooth="yes"/>
      <point x="1148" y="496"/>
      <point x="1115" y="577"/>
      <point x="1115" y="684" type="curve" smooth="yes"/>
      <point x="1115" y="1200"/>
      <point x="1594" y="1389"/>
      <point x="2045" y="1452" type="curve"/>
      <point x="2045" y="1484" type="line" smooth="yes"/>
      <point x="2045" y="1589"/>
      <point x="1976" y="1720"/>
      <point x="1805" y="1720" type="curve" smooth="yes"/>
      <point x="1609" y="1720"/>
      <point x="1555" y="1639"/>
      <point x="1530" y="1526" type="curve" smooth="yes"/>
      <point x="1509" y="1432"/>
      <point x="1425" y="1362"/>
      <point x="1325" y="1362" type="curve" smooth="yes"/>
      <point x="1209" y="1362"/>
      <point x="1115" y="1456"/>
      <point x="1115" y="1572" type="curve" smooth="yes"/>
      <point x="1115" y="1581"/>
      <point x="1163" y="2140"/>
      <point x="1805" y="2140" type="curve" smooth="yes"/>
      <point x="2197" y="2140"/>
      <point x="2465" y="1834"/>
      <point x="2465" y="1484" type="curve" smooth="yes"/>
      <point x="2465" y="1271" type="line" smooth="yes"/>
      <point x="2465" y="1269"/>
      <point x="2465" y="1266"/>
      <point x="2465" y="1264" type="curve" smooth="yes"/>
      <point x="2465" y="585" type="line"/>
      <point x="2660" y="596"/>
      <point x="2940" y="707"/>
      <point x="2940" y="1260" type="curve" smooth="yes"/>
      <point x="2940" y="1953"/>
      <point x="2423" y="2520"/>
      <point x="1785" y="2520" type="curve" smooth="yes"/>
      <point x="1147" y="2520"/>
      <point x="630" y="1953"/>
      <point x="630" y="1260" type="curve" smooth="yes"/>
      <point x="630" y="567"/>
      <point x="1147" y="0"/>
    </contour>
    <contour>
      <point x="1535" y="684" type="curve" smooth="yes"/>
      <point x="1535" y="609"/>
      <point x="1736" y="594"/>
      <point x="1815" y="594" type="curve" smooth="yes"/>
      <point x="1817" y="594"/>
      <point x="2009" y="595"/>
      <point x="2038" y="646" type="curve" smooth="yes"/>
      <point x="2040" y="649"/>
      <point x="2045" y="658"/>
      <point x="2045" y="684" type="curve" smooth="yes"/>
      <point x="2045" y="1027" type="line"/>
      <point x="1917" y="1006"/>
      <point x="1648" y="946"/>
      <point x="1566" y="810" type="curve" smooth="yes"/>
      <point x="1552" y="787"/>
      <point x="1535" y="749"/>
    </contour>
  </outline>
</glyph>
<glyph name="A" format="2">
  <advance width="2841"/>
  <unicode hex="0041"/>
  <outline>
    <contour>
      <point x="210" y="-0" type="curve" smooth="yes"/>
      <point x="210" y="23"/>
      <point x="214" y="46"/>
      <point x="221" y="67" type="curve" smooth="yes"/>
      <point x="1064" y="2587" type="line" smooth="yes"/>
      <point x="1093" y="2672"/>
      <point x="1173" y="2730"/>
      <point x="1263" y="2730" type="curve" smooth="yes"/>
      <point x="1368" y="2730" type="line" smooth="yes"/>
      <point x="1458" y="2730"/>
      <point x="1538" y="2672"/>
      <point x="1567" y="2587" type="curve" smooth="yes"/>
      <point x="2410" y="67" type="line" smooth="yes"/>
      <point x="2417" y="46"/>
      <point x="2421" y="23"/>
      <point x="2421" y="0" type="curve" smooth="yes"/>
      <point x="2421" y="-116"/>
      <point x="2327" y="-210"/>
      <point x="2211" y="-210" type="curve" smooth="yes"/>
      <point x="2118" y="-210"/>
      <point x="2040" y="-150"/>
      <point x="2012" y="-67" type="curve" smooth="yes"/>
      <point x="1778" y="630" type="line"/>
      <point x="853" y="630" type="line"/>
      <point x="619" y="-67" type="line" smooth="yes"/>
      <point x="591" y="-150"/>
      <point x="513" y="-210"/>
      <point x="420" y="-210" type="curve" smooth="yes"/>
      <point x="304" y="-210"/>
      <point x="210" y="-116"/>
    </contour>
    <contour>
      <point x="993" y="1050" type="line"/>
      <point x="1638" y="1050" type="line"/>
      <point x="1316" y="2015" type="line"/>
    </contour>
    <contour>
      <point x="2012" y="-67" type="line"/>
    </contour>
  </outline>
</glyph>
<glyph name="B" format="2">
  <advance width="2667"/>
  <unicode hex="0042"/>
  <outline>
    <contour>
      <point x="420" y="-210" type="line" smooth="yes"/>
      <point x="327" y="-210"/>
      <point x="215" y="-142"/>
      <point x="210" y="0" type="curve"/>
      <point x="210" y="2520" type="line" smooth="yes"/>
      <point x="210" y="2637"/>
      <point x="305" y="2730"/>
      <point x="420" y="2730" type="curve" smooth="yes"/>
      <point x="1368" y="2730" type="line" smooth="yes"/>
      <point x="1810" y="2730"/>
      <point x="2169" y="2371"/>
      <point x="2169" y="1929" type="curve" smooth="yes"/>
      <point x="2169" y="1702"/>
      <point x="2074" y="1497"/>
      <point x="1922" y="1351" type="curve"/>
      <point x="2120" y="1190"/>
      <point x="2247" y="944"/>
      <point x="2247" y="669" type="curve" smooth="yes"/>
      <point x="2247" y="184"/>
      <point x="1853" y="-210"/>
      <point x="1368" y="-210" type="curve" smooth="yes"/>
    </contour>
    <contour>
      <point x="630" y="210" type="line"/>
      <point x="1368" y="210" type="line" smooth="yes"/>
      <point x="1621" y="210"/>
      <point x="1827" y="416"/>
      <point x="1827" y="669" type="curve" smooth="yes"/>
      <point x="1827" y="922"/>
      <point x="1621" y="1128"/>
      <point x="1368" y="1128" type="curve" smooth="yes"/>
      <point x="630" y="1128" type="line"/>
    </contour>
    <contour>
      <point x="630" y="1548" type="line"/>
      <point x="1368" y="1548" type="line" smooth="yes"/>
      <point x="1578" y="1548"/>
      <point x="1749" y="1719"/>
      <point x="1749" y="1929" type="curve" smooth="yes"/>
      <point x="1749" y="2139"/>
      <point x="1578" y="2310"/>
      <point x="1368" y="2310" type="curve" smooth="yes"/>
      <point x="630" y="2310" type="line"/>
    </contour>
  </outline>
</glyph>
<glyph name="C" format="2">
  <advance width="2753"/>
  <unicode hex="0043"/>
  <outline>
    <contour>
      <point x="1325" y="-210" type="curve" smooth="yes"/>
      <point x="707" y="-210"/>
      <point x="210" y="443"/>
      <point x="210" y="1260" type="curve" smooth="yes"/>
      <point x="210" y="2076"/>
      <point x="707" y="2730"/>
      <point x="1325" y="2730" type="curve" smooth="yes"/>
      <point x="2058" y="2730"/>
      <point x="2300" y="1987"/>
      <point x="2300" y="1800" type="curve" smooth="yes"/>
      <point x="2300" y="1684"/>
      <point x="2206" y="1590"/>
      <point x="2090" y="1590" type="curve" smooth="yes"/>
      <point x="1987" y="1590"/>
      <point x="1900" y="1664"/>
      <point x="1883" y="1763" type="curve" smooth="yes"/>
      <point x="1869" y="1843"/>
      <point x="1768" y="2310"/>
      <point x="1325" y="2310" type="curve" smooth="yes"/>
      <point x="952" y="2310"/>
      <point x="630" y="1838"/>
      <point x="630" y="1260" type="curve" smooth="yes"/>
      <point x="630" y="682"/>
      <point x="952" y="210"/>
      <point x="1325" y="210" type="curve" smooth="yes"/>
      <point x="1659" y="210"/>
      <point x="1887" y="473"/>
      <point x="1914" y="779" type="curve" smooth="yes"/>
      <point x="1923" y="887"/>
      <point x="2013" y="970"/>
      <point x="2123" y="970" type="curve" smooth="yes"/>
      <point x="2239" y="970"/>
      <point x="2333" y="876"/>
      <point x="2333" y="760" type="curve" smooth="yes"/>
      <point x="2333" y="424"/>
      <point x="2017" y="-210"/>
    </contour>
  </outline>
</glyph>
<glyph name="D" format="2">
  <advance width="2653"/>
  <unicode hex="0044"/>
  <outline>
    <contour>
      <point x="420" y="-210" type="line" smooth="yes"/>
      <point x="327" y="-210"/>
      <point x="215" y="-142"/>
      <point x="210" y="0" type="curve"/>
      <point x="210" y="2522" type="line" smooth="yes"/>
      <point x="210" y="2638"/>
      <point x="304" y="2731"/>
      <point x="420" y="2731" type="curve" smooth="yes"/>
      <point x="421" y="2731" type="line" smooth="yes"/>
      <point x="421" y="2731"/>
      <point x="619" y="2730"/>
      <point x="1118" y="2730" type="curve" smooth="yes"/>
      <point x="1736" y="2730"/>
      <point x="2233" y="2077"/>
      <point x="2233" y="1260" type="curve" smooth="yes"/>
      <point x="2233" y="444"/>
      <point x="1736" y="-210"/>
      <point x="1118" y="-210" type="curve" smooth="yes"/>
    </contour>
    <contour>
      <point x="1813" y="1260" type="curve" smooth="yes"/>
      <point x="1813" y="1838"/>
      <point x="1491" y="2310"/>
      <point x="1118" y="2310" type="curve" smooth="yes"/>
      <point x="902" y="2310"/>
      <point x="742" y="2310"/>
      <point x="630" y="2310" type="curve"/>
      <point x="630" y="210" type="line"/>
      <point x="1118" y="210" type="line" smooth="yes"/>
      <point x="1491" y="210"/>
      <point x="1813" y="682"/>
    </contour>
  </outline>
</glyph>
<glyph name="F" format="2">
  <advance width="2612"/>
  <unicode hex="0046"/>
  <outline>
    <contour>
      <point x="420" y="-210" type="line"/>
      <point x="327" y="-210"/>
      <point x="215" y="-142"/>
      <point x="210" y="0" type="curve"/>
      <point x="210" y="2520" type="line" smooth="yes"/>
      <point x="210" y="2637"/>
      <point x="305" y="2730"/>
      <point x="420" y="2730" type="curve" smooth="yes"/>
      <point x="1982" y="2730" type="line" smooth="yes"/>
      <point x="2098" y="2730"/>
      <point x="2192" y="2636"/>
      <point x="2192" y="2520" type="curve" smooth="yes"/>
      <point x="2192" y="2519" type="line" smooth="yes"/>
      <point x="2192" y="2403"/>
      <point x="2098" y="2309"/>
      <point x="1982" y="2309" type="curve" smooth="yes"/>
      <point x="631" y="2309" type="line"/>
      <point x="631" y="1549" type="line"/>
      <point x="1529" y="1549" type="line" smooth="yes"/>
      <point x="1645" y="1549"/>
      <point x="1739" y="1455"/>
      <point x="1739" y="1339" type="curve"/>
      <point x="1739" y="1338" type="line"/>
      <point x="1739" y="1223"/>
      <point x="1645" y="1128"/>
      <point x="1529" y="1128" type="curve" smooth="yes"/>
      <point x="631" y="1128" type="line"/>
      <point x="631" y="0" type="line" smooth="yes"/>
      <point x="631" y="-117"/>
      <point x="536" y="-210"/>
      <point x="421" y="-210" type="curve"/>
    </contour>
  </outline>
</glyph>
<glyph name="G" format="2">
  <advance width="2641"/>
  <unicode hex="0047"/>
  <outline>
    <contour>
      <point x="1325" y="-210" type="curve" smooth="yes"/>
      <point x="707" y="-210"/>
      <point x="210" y="443"/>
      <point x="210" y="1260" type="curve" smooth="yes"/>
      <point x="210" y="2076"/>
      <point x="707" y="2730"/>
      <point x="1325" y="2730" type="curve" smooth="yes"/>
      <point x="1564" y="2730"/>
      <point x="1781" y="2631"/>
      <point x="1954" y="2477" type="curve" smooth="yes"/>
      <point x="2143" y="2309"/>
      <point x="2221" y="1943"/>
      <point x="2221" y="1905" type="curve" smooth="yes"/>
      <point x="2221" y="1789"/>
      <point x="2127" y="1695"/>
      <point x="2011" y="1695" type="curve" smooth="yes"/>
      <point x="1914" y="1695"/>
      <point x="1832" y="1761"/>
      <point x="1808" y="1851" type="curve" smooth="yes"/>
      <point x="1798" y="1887"/>
      <point x="1737" y="2107"/>
      <point x="1674" y="2164" type="curve" smooth="yes"/>
      <point x="1564" y="2262"/>
      <point x="1445" y="2310"/>
      <point x="1325" y="2310" type="curve" smooth="yes"/>
      <point x="952" y="2310"/>
      <point x="630" y="1838"/>
      <point x="630" y="1260" type="curve" smooth="yes"/>
      <point x="630" y="682"/>
      <point x="952" y="210"/>
      <point x="1325" y="210" type="curve" smooth="yes"/>
      <point x="1493" y="210"/>
      <point x="1665" y="307"/>
      <point x="1801" y="502" type="curve"/>
      <point x="1802" y="853" type="line"/>
      <point x="1410" y="853" type="line" smooth="yes"/>
      <point x="1294" y="853"/>
      <point x="1200" y="947"/>
      <point x="1200" y="1063" type="curve" smooth="yes"/>
      <point x="1200" y="1179"/>
      <point x="1294" y="1273"/>
      <point x="1410" y="1273" type="curve" smooth="yes"/>
      <point x="2012" y="1273" type="line" smooth="yes"/>
      <point x="2128" y="1273"/>
      <point x="2222" y="1179"/>
      <point x="2222" y="1063" type="curve" smooth="yes"/>
      <point x="2221" y="439" type="line" smooth="yes"/>
      <point x="2221" y="400"/>
      <point x="2210" y="362"/>
      <point x="2190" y="329" type="curve" smooth="yes"/>
      <point x="2190" y="328" type="line" smooth="yes"/>
      <point x="1998" y="17"/>
      <point x="1691" y="-210"/>
    </contour>
  </outline>
</glyph>
<glyph name="J" format="2">
  <advance width="2264"/>
  <unicode hex="004A"/>
  <outline>
    <contour>
      <point x="1844" y="529" type="line" smooth="yes"/>
      <point x="1844" y="228"/>
      <point x="1525" y="-210"/>
      <point x="1048" y="-210" type="curve" smooth="yes"/>
      <point x="620" y="-210"/>
      <point x="271" y="108"/>
      <point x="234" y="509" type="curve" smooth="yes"/>
      <point x="211" y="760" type="line" smooth="yes"/>
      <point x="211" y="764"/>
      <point x="210" y="771"/>
      <point x="210" y="780" type="curve" smooth="yes"/>
      <point x="210" y="896"/>
      <point x="304" y="990"/>
      <point x="420" y="990" type="curve" smooth="yes"/>
      <point x="529" y="990"/>
      <point x="619" y="907"/>
      <point x="629" y="800" type="curve" smooth="yes"/>
      <point x="652" y="549" type="line" smooth="yes"/>
      <point x="669" y="358"/>
      <point x="842" y="210"/>
      <point x="1048" y="210" type="curve" smooth="yes"/>
      <point x="1217" y="210"/>
      <point x="1402" y="356"/>
      <point x="1424" y="540" type="curve"/>
      <point x="1424" y="2520" type="line" smooth="yes"/>
      <point x="1424" y="2636"/>
      <point x="1518" y="2730"/>
      <point x="1634" y="2730" type="curve" smooth="yes"/>
      <point x="1750" y="2730"/>
      <point x="1844" y="2636"/>
      <point x="1844" y="2520" type="curve" smooth="yes"/>
    </contour>
  </outline>
</glyph>
<glyph name="K" format="2">
  <advance width="2612"/>
  <unicode hex="004B"/>
  <outline>
    <contour>
      <point x="210" y="0" type="curve" smooth="yes"/>
      <point x="210" y="2520" type="line" smooth="yes"/>
      <point x="210" y="2637"/>
      <point x="305" y="2730"/>
      <point x="420" y="2730" type="curve"/>
      <point x="421" y="2730" type="line"/>
      <point x="537" y="2730"/>
      <point x="631" y="2636"/>
      <point x="631" y="2520" type="curve" smooth="yes"/>
      <point x="631" y="1465" type="line"/>
      <point x="1833" y="2668" type="line" smooth="yes"/>
      <point x="1871" y="2706"/>
      <point x="1924" y="2730"/>
      <point x="1982" y="2730" type="curve" smooth="yes"/>
      <point x="2098" y="2730"/>
      <point x="2192" y="2636"/>
      <point x="2192" y="2520" type="curve" smooth="yes"/>
      <point x="2192" y="2462"/>
      <point x="2169" y="2410"/>
      <point x="2131" y="2372" type="curve" smooth="yes"/>
      <point x="1258" y="1498" type="line"/>
      <point x="2222" y="120" type="line" smooth="yes"/>
      <point x="2246" y="86"/>
      <point x="2260" y="45"/>
      <point x="2260" y="0" type="curve" smooth="yes"/>
      <point x="2260" y="-116"/>
      <point x="2166" y="-210"/>
      <point x="2050" y="-210" type="curve" smooth="yes"/>
      <point x="1979" y="-210"/>
      <point x="1916" y="-175"/>
      <point x="1878" y="-121" type="curve" smooth="yes"/>
      <point x="956" y="1197" type="line"/>
      <point x="630" y="870" type="line"/>
      <point x="630" y="0" type="line" smooth="yes"/>
      <point x="630" y="-116"/>
      <point x="536" y="-210"/>
      <point x="420" y="-210" type="curve" smooth="yes"/>
      <point x="304" y="-210"/>
      <point x="210" y="-116"/>
    </contour>
  </outline>
</glyph>
<glyph name="L" format="2">
  <advance width="2680"/>
  <unicode hex="004C"/>
  <outline>
    <contour>
      <point x="420" y="-210" type="line" smooth="yes"/>
      <point x="327" y="-210"/>
      <point x="215" y="-142"/>
      <point x="210" y="0" type="curve"/>
      <point x="210" y="2520" type="line" smooth="yes"/>
      <point x="210" y="2637"/>
      <point x="305" y="2730"/>
      <point x="420" y="2730" type="curve"/>
      <point x="421" y="2730" type="line"/>
      <point x="537" y="2730"/>
      <point x="631" y="2636"/>
      <point x="631" y="2520" type="curve" smooth="yes"/>
      <point x="631" y="211" type="line"/>
      <point x="2050" y="211" type="line" smooth="yes"/>
      <point x="2166" y="211"/>
      <point x="2260" y="117"/>
      <point x="2260" y="1" type="curve"/>
      <point x="2260" y="0" type="line"/>
      <point x="2260" y="-116"/>
      <point x="2166" y="-210"/>
      <point x="2050" y="-210" type="curve" smooth="yes"/>
    </contour>
  </outline>
</glyph>
<glyph name="M" format="2">
  <advance width="3011"/>
  <unicode hex="004D"/>
  <outline>
    <contour>
      <point x="210" y="0" type="curve" smooth="yes"/>
      <point x="210" y="2520" type="line" smooth="yes"/>
      <point x="210" y="2637"/>
      <point x="305" y="2730"/>
      <point x="420" y="2730" type="curve" smooth="yes"/>
      <point x="525" y="2730" type="line" smooth="yes"/>
      <point x="614" y="2730"/>
      <point x="694" y="2672"/>
      <point x="723" y="2588" type="curve" smooth="yes"/>
      <point x="1401" y="621" type="line"/>
      <point x="2078" y="2588" type="line" smooth="yes"/>
      <point x="2107" y="2672"/>
      <point x="2188" y="2730"/>
      <point x="2277" y="2730" type="curve" smooth="yes"/>
      <point x="2381" y="2730" type="line" smooth="yes"/>
      <point x="2497" y="2730"/>
      <point x="2591" y="2636"/>
      <point x="2591" y="2520" type="curve" smooth="yes"/>
      <point x="2592" y="0" type="line" smooth="yes"/>
      <point x="2592" y="-116"/>
      <point x="2498" y="-210"/>
      <point x="2382" y="-210" type="curve" smooth="yes"/>
      <point x="2266" y="-210"/>
      <point x="2172" y="-116"/>
      <point x="2172" y="-0" type="curve" smooth="yes"/>
      <point x="2171" y="1568" type="line"/>
      <point x="1626" y="-15" type="line" smooth="yes"/>
      <point x="1597" y="-99"/>
      <point x="1516" y="-157"/>
      <point x="1427" y="-157" type="curve" smooth="yes"/>
      <point x="1374" y="-157" type="line" smooth="yes"/>
      <point x="1285" y="-157"/>
      <point x="1205" y="-99"/>
      <point x="1176" y="-15" type="curve" smooth="yes"/>
      <point x="630" y="1570" type="line"/>
      <point x="630" y="0" type="line" smooth="yes"/>
      <point x="630" y="-116"/>
      <point x="536" y="-210"/>
      <point x="420" y="-210" type="curve" smooth="yes"/>
      <point x="304" y="-210"/>
      <point x="210" y="-116"/>
    </contour>
  </outline>
</glyph>
<glyph name="N" format="2">
  <advance width="2680"/>
  <unicode hex="004E"/>
  <outline>
    <contour>
      <point x="210" y="0" type="curve" smooth="yes"/>
      <point x="210" y="2520" type="line" smooth="yes"/>
      <point x="210" y="2637"/>
      <point x="305" y="2730"/>
      <point x="420" y="2730" type="curve" smooth="yes"/>
      <point x="525" y="2730" type="line" smooth="yes"/>
      <point x="601" y="2730"/>
      <point x="671" y="2689"/>
      <point x="708" y="2623" type="curve" smooth="yes"/>
      <point x="1840" y="614" type="line"/>
      <point x="1840" y="2520" type="line" smooth="yes"/>
      <point x="1840" y="2636"/>
      <point x="1934" y="2730"/>
      <point x="2050" y="2730" type="curve" smooth="yes"/>
      <point x="2166" y="2730"/>
      <point x="2260" y="2636"/>
      <point x="2260" y="2520" type="curve" smooth="yes"/>
      <point x="2260" y="-0" type="line" smooth="yes"/>
      <point x="2260" y="-116"/>
      <point x="2166" y="-210"/>
      <point x="2050" y="-210" type="curve" smooth="yes"/>
      <point x="1945" y="-210" type="line" smooth="yes"/>
      <point x="1869" y="-210"/>
      <point x="1799" y="-169"/>
      <point x="1762" y="-103" type="curve" smooth="yes"/>
      <point x="630" y="1906" type="line"/>
      <point x="630" y="0" type="line" smooth="yes"/>
      <point x="630" y="-116"/>
      <point x="536" y="-210"/>
      <point x="420" y="-210" type="curve" smooth="yes"/>
      <point x="304" y="-210"/>
      <point x="210" y="-116"/>
    </contour>
  </outline>
</glyph>
<glyph name="O" format="2">
  <advance width="2863"/>
  <unicode hex="004F"/>
  <outline>
    <contour>
      <point x="210" y="1260" type="curve" smooth="yes"/>
      <point x="210" y="2076"/>
      <point x="707" y="2730"/>
      <point x="1325" y="2730" type="curve" smooth="yes"/>
      <point x="1944" y="2730"/>
      <point x="2443" y="2076"/>
      <point x="2443" y="1260" type="curve" smooth="yes"/>
      <point x="2443" y="444"/>
      <point x="1946" y="-210"/>
      <point x="1328" y="-210" type="curve" smooth="yes"/>
      <point x="709" y="-210"/>
      <point x="210" y="444"/>
    </contour>
    <contour>
      <point x="1325" y="2310" type="curve" smooth="yes"/>
      <point x="952" y="2310"/>
      <point x="630" y="1838"/>
      <point x="630" y="1260" type="curve" smooth="yes"/>
      <point x="630" y="682"/>
      <point x="955" y="210"/>
      <point x="1328" y="210" type="curve" smooth="yes"/>
      <point x="1701" y="210"/>
      <point x="2023" y="682"/>
      <point x="2023" y="1260" type="curve" smooth="yes"/>
      <point x="2023" y="1838"/>
      <point x="1698" y="2310"/>
    </contour>
  </outline>
</glyph>
<glyph name="P" format="2">
  <advance width="2605"/>
  <unicode hex="0050"/>
  <outline>
    <contour>
      <point x="210" y="0" type="curve" smooth="yes"/>
      <point x="210" y="2520" type="line" smooth="yes"/>
      <point x="210" y="2637"/>
      <point x="305" y="2730"/>
      <point x="420" y="2730" type="curve" smooth="yes"/>
      <point x="1370" y="2730" type="line" smooth="yes"/>
      <point x="1818" y="2730"/>
      <point x="2185" y="2337"/>
      <point x="2185" y="1851" type="curve" smooth="yes"/>
      <point x="2185" y="1365"/>
      <point x="1818" y="972"/>
      <point x="1370" y="972" type="curve" smooth="yes"/>
      <point x="630" y="972" type="line"/>
      <point x="630" y="0" type="line" smooth="yes"/>
      <point x="630" y="-116"/>
      <point x="536" y="-210"/>
      <point x="420" y="-210" type="curve" smooth="yes"/>
      <point x="304" y="-210"/>
      <point x="210" y="-116"/>
    </contour>
    <contour>
      <point x="630" y="1392" type="line"/>
      <point x="1370" y="1392" type="line" smooth="yes"/>
      <point x="1587" y="1392"/>
      <point x="1765" y="1599"/>
      <point x="1765" y="1851" type="curve" smooth="yes"/>
      <point x="1765" y="2103"/>
      <point x="1587" y="2310"/>
      <point x="1370" y="2310" type="curve" smooth="yes"/>
      <point x="630" y="2310" type="line"/>
    </contour>
  </outline>
</glyph>
<glyph name="Q" format="2">
  <advance width="2863"/>
  <unicode hex="0051"/>
  <outline>
    <contour>
      <point x="2587" y="-80" type="line"/>
      <point x="2587" y="-277"/>
      <point x="2293" y="-387"/>
      <point x="2147" y="-387" type="curve" smooth="yes"/>
      <point x="2047" y="-387"/>
      <point x="1869" y="-350"/>
      <point x="1680" y="-136" type="curve"/>
      <point x="1571" y="-183"/>
      <point x="1452" y="-210"/>
      <point x="1328" y="-210" type="curve" smooth="yes"/>
      <point x="709" y="-210"/>
      <point x="210" y="444"/>
      <point x="210" y="1260" type="curve" smooth="yes"/>
      <point x="210" y="2076"/>
      <point x="707" y="2730"/>
      <point x="1325" y="2730" type="curve" smooth="yes"/>
      <point x="1944" y="2730"/>
      <point x="2443" y="2076"/>
      <point x="2443" y="1260" type="curve" smooth="yes"/>
      <point x="2443" y="1052"/>
      <point x="2404" y="508"/>
      <point x="2025" y="110" type="curve"/>
      <point x="2041" y="95"/>
      <point x="2094" y="42"/>
      <point x="2147" y="34" type="curve"/>
      <point x="2216" y="38"/>
      <point x="2261" y="131"/>
      <point x="2377" y="131" type="curve" smooth="yes"/>
      <point x="2493" y="131"/>
      <point x="2587" y="37"/>
      <point x="2587" y="-79" type="curve"/>
    </contour>
    <contour>
      <point x="1325" y="2310" type="curve" smooth="yes"/>
      <point x="952" y="2310"/>
      <point x="630" y="1838"/>
      <point x="630" y="1260" type="curve" smooth="yes"/>
      <point x="630" y="682"/>
      <point x="955" y="210"/>
      <point x="1328" y="210" type="curve" smooth="yes"/>
      <point x="1371" y="210"/>
      <point x="1413" y="216"/>
      <point x="1455" y="228" type="curve"/>
      <point x="1428" y="292"/>
      <point x="1428" y="292"/>
      <point x="1422" y="294" type="curve"/>
      <point x="1250" y="294" type="line" smooth="yes"/>
      <point x="1134" y="294"/>
      <point x="1040" y="388"/>
      <point x="1040" y="504" type="curve" smooth="yes"/>
      <point x="1040" y="620"/>
      <point x="1134" y="714"/>
      <point x="1250" y="714" type="curve" smooth="yes"/>
      <point x="1459" y="714" type="line" smooth="yes"/>
      <point x="1484" y="714"/>
      <point x="1508" y="709"/>
      <point x="1531" y="701" type="curve" smooth="yes"/>
      <point x="1663" y="653" type="line" smooth="yes"/>
      <point x="1722" y="632"/>
      <point x="1768" y="584"/>
      <point x="1789" y="525" type="curve" smooth="yes"/>
      <point x="1789" y="525"/>
      <point x="1793" y="514"/>
      <point x="1800" y="496" type="curve"/>
      <point x="1876" y="602"/>
      <point x="2023" y="861"/>
      <point x="2023" y="1260" type="curve" smooth="yes"/>
      <point x="2023" y="1838"/>
      <point x="1698" y="2310"/>
    </contour>
  </outline>
</glyph>
<glyph name="R" format="2">
  <advance width="2727"/>
  <unicode hex="0052"/>
  <outline>
    <contour>
      <point x="210" y="0" type="curve" smooth="yes"/>
      <point x="210" y="2520" type="line" smooth="yes"/>
      <point x="210" y="2637"/>
      <point x="305" y="2730"/>
      <point x="420" y="2730" type="curve" smooth="yes"/>
      <point x="1428" y="2730" type="line" smooth="yes"/>
      <point x="1915" y="2730"/>
      <point x="2307" y="2370"/>
      <point x="2307" y="1929" type="curve" smooth="yes"/>
      <point x="2307" y="1589"/>
      <point x="2073" y="1296"/>
      <point x="1741" y="1180" type="curve"/>
      <point x="2285" y="94" type="line" smooth="yes"/>
      <point x="2299" y="66"/>
      <point x="2307" y="34"/>
      <point x="2307" y="-0" type="curve" smooth="yes"/>
      <point x="2307" y="-116"/>
      <point x="2213" y="-210"/>
      <point x="2097" y="-210" type="curve" smooth="yes"/>
      <point x="2015" y="-210"/>
      <point x="1943" y="-162"/>
      <point x="1909" y="-94" type="curve" smooth="yes"/>
      <point x="1298" y="1127" type="line"/>
      <point x="630" y="1127" type="line"/>
      <point x="630" y="0" type="line" smooth="yes"/>
      <point x="630" y="-116"/>
      <point x="536" y="-210"/>
      <point x="420" y="-210" type="curve" smooth="yes"/>
      <point x="304" y="-210"/>
      <point x="210" y="-116"/>
    </contour>
    <contour>
      <point x="630" y="1548" type="line"/>
      <point x="1428" y="1548" type="line" smooth="yes"/>
      <point x="1679" y="1548"/>
      <point x="1887" y="1719"/>
      <point x="1887" y="1929" type="curve" smooth="yes"/>
      <point x="1887" y="2139"/>
      <point x="1679" y="2310"/>
      <point x="1428" y="2310" type="curve" smooth="yes"/>
      <point x="630" y="2310" type="line"/>
    </contour>
  </outline>
</glyph>
<glyph name="S" format="2">
  <advance width="2771"/>
  <unicode hex="0053"/>
  <outline>
    <contour>
      <point x="210" y="750" type="curve" smooth="yes"/>
      <point x="210" y="866"/>
      <point x="304" y="960"/>
      <point x="420" y="960" type="curve" smooth="yes"/>
      <point x="518" y="960"/>
      <point x="601" y="893"/>
      <point x="624" y="802" type="curve" smooth="yes"/>
      <point x="674" y="606"/>
      <point x="673" y="606"/>
      <point x="674" y="602" type="curve" smooth="yes"/>
      <point x="721" y="385"/>
      <point x="983" y="210"/>
      <point x="1299" y="210" type="curve" smooth="yes"/>
      <point x="1645" y="210"/>
      <point x="1931" y="422"/>
      <point x="1931" y="673" type="curve" smooth="yes"/>
      <point x="1931" y="924"/>
      <point x="1645" y="1137"/>
      <point x="1299" y="1137" type="curve" smooth="yes"/>
      <point x="1228" y="1137" type="line" smooth="yes"/>
      <point x="698" y="1137"/>
      <point x="274" y="1493"/>
      <point x="274" y="1933" type="curve" smooth="yes"/>
      <point x="274" y="2373"/>
      <point x="698" y="2730"/>
      <point x="1228" y="2730" type="curve" smooth="yes"/>
      <point x="1321" y="2730"/>
      <point x="1845" y="2711"/>
      <point x="2091" y="2275" type="curve" smooth="yes"/>
      <point x="2131" y="2204"/>
      <point x="2182" y="2000"/>
      <point x="2182" y="1933" type="curve" smooth="yes"/>
      <point x="2182" y="1817"/>
      <point x="2088" y="1723"/>
      <point x="1972" y="1723" type="curve" smooth="yes"/>
      <point x="1867" y="1723"/>
      <point x="1779" y="1801"/>
      <point x="1764" y="1903" type="curve" smooth="yes"/>
      <point x="1760" y="1929"/>
      <point x="1747" y="2006"/>
      <point x="1719" y="2078" type="curve"/>
      <point x="1636" y="2213"/>
      <point x="1446" y="2310"/>
      <point x="1228" y="2310" type="curve" smooth="yes"/>
      <point x="935" y="2310"/>
      <point x="694" y="2135"/>
      <point x="694" y="1933" type="curve" smooth="yes"/>
      <point x="694" y="1731"/>
      <point x="935" y="1557"/>
      <point x="1228" y="1557" type="curve" smooth="yes"/>
      <point x="1299" y="1557" type="line" smooth="yes"/>
      <point x="1883" y="1557"/>
      <point x="2351" y="1160"/>
      <point x="2351" y="673" type="curve" smooth="yes"/>
      <point x="2351" y="186"/>
      <point x="1883" y="-210"/>
      <point x="1299" y="-210" type="curve" smooth="yes"/>
      <point x="1150" y="-210"/>
      <point x="755" y="-178"/>
      <point x="469" y="130" type="curve" smooth="yes"/>
      <point x="370" y="236"/>
      <point x="301" y="366"/>
      <point x="265" y="509" type="curve" smooth="yes"/>
      <point x="216" y="698" type="line" smooth="yes"/>
      <point x="212" y="714"/>
      <point x="210" y="732"/>
    </contour>
  </outline>
</glyph>
<glyph name="T" format="2">
  <advance width="2940"/>
  <unicode hex="0054"/>
  <outline>
    <contour>
      <point x="210" y="2519" type="curve" smooth="yes"/>
      <point x="210" y="2520" type="line" smooth="yes"/>
      <point x="210" y="2637"/>
      <point x="305" y="2730"/>
      <point x="420" y="2730" type="curve" smooth="yes"/>
      <point x="2310" y="2730" type="line" smooth="yes"/>
      <point x="2425" y="2730"/>
      <point x="2520" y="2637"/>
      <point x="2520" y="2520" type="curve"/>
      <point x="2520" y="2519" type="line"/>
      <point x="2520" y="2403"/>
      <point x="2426" y="2309"/>
      <point x="2310" y="2309" type="curve" smooth="yes"/>
      <point x="1576" y="2309" type="line"/>
      <point x="1576" y="0" type="line" smooth="yes"/>
      <point x="1576" y="-116"/>
      <point x="1482" y="-210"/>
      <point x="1366" y="-210" type="curve" smooth="yes"/>
      <point x="1250" y="-210"/>
      <point x="1156" y="-116"/>
      <point x="1156" y="-0" type="curve" smooth="yes"/>
      <point x="1155" y="2309" type="line"/>
      <point x="420" y="2309" type="line" smooth="yes"/>
      <point x="304" y="2309"/>
      <point x="210" y="2403"/>
    </contour>
  </outline>
</glyph>
<glyph name="U" format="2">
  <advance width="2680"/>
  <unicode hex="0055"/>
  <outline>
    <contour>
      <point x="210" y="675" type="curve" smooth="yes"/>
      <point x="210" y="2520" type="line" smooth="yes"/>
      <point x="210" y="2636"/>
      <point x="304" y="2730"/>
      <point x="420" y="2730" type="curve" smooth="yes"/>
      <point x="536" y="2730"/>
      <point x="630" y="2636"/>
      <point x="630" y="2520" type="curve" smooth="yes"/>
      <point x="630" y="675" type="line" smooth="yes"/>
      <point x="630" y="420"/>
      <point x="904" y="210"/>
      <point x="1235" y="210" type="curve" smooth="yes"/>
      <point x="1566" y="210"/>
      <point x="1840" y="420"/>
      <point x="1840" y="675" type="curve" smooth="yes"/>
      <point x="1840" y="2520" type="line" smooth="yes"/>
      <point x="1840" y="2636"/>
      <point x="1934" y="2730"/>
      <point x="2050" y="2730" type="curve" smooth="yes"/>
      <point x="2166" y="2730"/>
      <point x="2260" y="2636"/>
      <point x="2260" y="2520" type="curve" smooth="yes"/>
      <point x="2260" y="675" type="line" smooth="yes"/>
      <point x="2260" y="187"/>
      <point x="1804" y="-210"/>
      <point x="1235" y="-210" type="curve" smooth="yes"/>
      <point x="666" y="-210"/>
      <point x="210" y="187"/>
    </contour>
  </outline>
</glyph>
<glyph name="V" format="2">
  <advance width="2841"/>
  <unicode hex="0056"/>
  <outline>
    <contour>
      <point x="210" y="2520" type="curve" smooth="yes"/>
      <point x="210" y="2636"/>
      <point x="304" y="2730"/>
      <point x="420" y="2730" type="curve" smooth="yes"/>
      <point x="513" y="2730"/>
      <point x="591" y="2670"/>
      <point x="619" y="2587" type="curve" smooth="yes"/>
      <point x="1316" y="505" type="line"/>
      <point x="2012" y="2587" type="line" smooth="yes"/>
      <point x="2040" y="2670"/>
      <point x="2118" y="2730"/>
      <point x="2211" y="2730" type="curve" smooth="yes"/>
      <point x="2327" y="2730"/>
      <point x="2421" y="2636"/>
      <point x="2421" y="2520" type="curve" smooth="yes"/>
      <point x="2421" y="2497"/>
      <point x="2417" y="2474"/>
      <point x="2410" y="2453" type="curve" smooth="yes"/>
      <point x="1567" y="-67" type="line" smooth="yes"/>
      <point x="1538" y="-152"/>
      <point x="1458" y="-210"/>
      <point x="1368" y="-210" type="curve" smooth="yes"/>
      <point x="1263" y="-210" type="line" smooth="yes"/>
      <point x="1173" y="-210"/>
      <point x="1093" y="-152"/>
      <point x="1064" y="-67" type="curve" smooth="yes"/>
      <point x="221" y="2453" type="line" smooth="yes"/>
      <point x="214" y="2474"/>
      <point x="210" y="2497"/>
    </contour>
  </outline>
</glyph>
<glyph name="W" format="2">
  <advance width="3486"/>
  <unicode hex="0057"/>
  <outline>
    <contour>
      <point x="210" y="2520" type="curve" smooth="yes"/>
      <point x="210" y="2636"/>
      <point x="304" y="2730"/>
      <point x="420" y="2730" type="curve" smooth="yes"/>
      <point x="521" y="2730"/>
      <point x="605" y="2659"/>
      <point x="625" y="2564" type="curve" smooth="yes"/>
      <point x="1009" y="763" type="line"/>
      <point x="1381" y="2511" type="line" smooth="yes"/>
      <point x="1402" y="2607"/>
      <point x="1487" y="2677"/>
      <point x="1586" y="2677" type="curve" smooth="yes"/>
      <point x="1691" y="2677" type="line" smooth="yes"/>
      <point x="1790" y="2677"/>
      <point x="1875" y="2608"/>
      <point x="1896" y="2511" type="curve" smooth="yes"/>
      <point x="2268" y="763" type="line"/>
      <point x="2651" y="2561" type="line" smooth="yes"/>
      <point x="2671" y="2656"/>
      <point x="2755" y="2727"/>
      <point x="2856" y="2727" type="curve" smooth="yes"/>
      <point x="2972" y="2727"/>
      <point x="3066" y="2633"/>
      <point x="3066" y="2517" type="curve" smooth="yes"/>
      <point x="3066" y="2502"/>
      <point x="3064" y="2487"/>
      <point x="3061" y="2473" type="curve" smooth="yes"/>
      <point x="2525" y="-44" type="line" smooth="yes"/>
      <point x="2504" y="-140"/>
      <point x="2419" y="-210"/>
      <point x="2320" y="-210" type="curve" smooth="yes"/>
      <point x="2215" y="-210" type="line" smooth="yes"/>
      <point x="2116" y="-210"/>
      <point x="2031" y="-141"/>
      <point x="2010" y="-44" type="curve" smooth="yes"/>
      <point x="1638" y="1704" type="line"/>
      <point x="1266" y="-44" type="line" smooth="yes"/>
      <point x="1245" y="-140"/>
      <point x="1160" y="-210"/>
      <point x="1061" y="-210" type="curve" smooth="yes"/>
      <point x="956" y="-210" type="line" smooth="yes"/>
      <point x="857" y="-210"/>
      <point x="772" y="-140"/>
      <point x="751" y="-44" type="curve" smooth="yes"/>
      <point x="215" y="2476" type="line" smooth="yes"/>
      <point x="212" y="2490"/>
      <point x="210" y="2505"/>
    </contour>
  </outline>
</glyph>
<glyph name="X" format="2">
  <advance width="2830"/>
  <unicode hex="0058"/>
  <outline>
    <contour>
      <point x="210" y="0" type="curve" smooth="yes"/>
      <point x="210" y="43"/>
      <point x="223" y="84"/>
      <point x="246" y="117" type="curve" smooth="yes"/>
      <point x="1057" y="1320" type="line"/>
      <point x="814" y="1681"/>
      <point x="570" y="2042"/>
      <point x="327" y="2403" type="curve" smooth="yes"/>
      <point x="312" y="2425"/>
      <point x="291" y="2465"/>
      <point x="291" y="2520" type="curve" smooth="yes"/>
      <point x="291" y="2635"/>
      <point x="385" y="2730"/>
      <point x="501" y="2730" type="curve"/>
      <point x="502" y="2730" type="line"/>
      <point x="572" y="2730"/>
      <point x="637" y="2695"/>
      <point x="676" y="2637" type="curve" smooth="yes"/>
      <point x="1310" y="1696" type="line"/>
      <point x="1944" y="2637" type="line" smooth="yes"/>
      <point x="1983" y="2695"/>
      <point x="2048" y="2730"/>
      <point x="2118" y="2730" type="curve"/>
      <point x="2119" y="2730" type="line"/>
      <point x="2235" y="2730"/>
      <point x="2329" y="2635"/>
      <point x="2329" y="2520" type="curve" smooth="yes"/>
      <point x="2329" y="2494"/>
      <point x="2324" y="2448"/>
      <point x="2293" y="2403" type="curve" smooth="yes"/>
      <point x="1563" y="1320" type="line"/>
      <point x="2374" y="117" type="line" smooth="yes"/>
      <point x="2397" y="84"/>
      <point x="2410" y="43"/>
      <point x="2410" y="0" type="curve" smooth="yes"/>
      <point x="2410" y="-116"/>
      <point x="2316" y="-210"/>
      <point x="2200" y="-210" type="curve" smooth="yes"/>
      <point x="2127" y="-210"/>
      <point x="2063" y="-174"/>
      <point x="2026" y="-118" type="curve" smooth="yes"/>
      <point x="1310" y="944" type="line"/>
      <point x="594" y="-118" type="line" smooth="yes"/>
      <point x="557" y="-174"/>
      <point x="493" y="-210"/>
      <point x="420" y="-210" type="curve" smooth="yes"/>
      <point x="304" y="-210"/>
      <point x="210" y="-116"/>
    </contour>
  </outline>
</glyph>
<glyph name="Y" format="2">
  <advance width="2704"/>
  <unicode hex="0059"/>
  <outline>
    <contour>
      <point x="1248" y="-210" type="curve"/>
      <point x="1083" y="-203"/>
      <point x="1037" y="-71"/>
      <point x="1037" y="0" type="curve" smooth="yes"/>
      <point x="1037" y="1273" type="line"/>
      <point x="248" y="2400" type="line" smooth="yes"/>
      <point x="224" y="2434"/>
      <point x="210" y="2475"/>
      <point x="210" y="2520" type="curve" smooth="yes"/>
      <point x="210" y="2636"/>
      <point x="304" y="2730"/>
      <point x="420" y="2730" type="curve" smooth="yes"/>
      <point x="491" y="2730"/>
      <point x="554" y="2695"/>
      <point x="592" y="2641" type="curve" smooth="yes"/>
      <point x="1247" y="1705" type="line"/>
      <point x="1902" y="2641" type="line" smooth="yes"/>
      <point x="1940" y="2695"/>
      <point x="2003" y="2730"/>
      <point x="2074" y="2730" type="curve" smooth="yes"/>
      <point x="2190" y="2730"/>
      <point x="2284" y="2636"/>
      <point x="2284" y="2520" type="curve" smooth="yes"/>
      <point x="2284" y="2475"/>
      <point x="2270" y="2434"/>
      <point x="2246" y="2400" type="curve" smooth="yes"/>
      <point x="1458" y="1273" type="line"/>
      <point x="1458" y="-0" type="line" smooth="yes"/>
      <point x="1458" y="-115"/>
      <point x="1365" y="-210"/>
    </contour>
  </outline>
</glyph>
<glyph name="Z" format="2">
  <advance width="2789"/>
  <unicode hex="005A"/>
  <outline>
    <contour>
      <point x="210" y="105" type="line" smooth="yes"/>
      <point x="210" y="148"/>
      <point x="223" y="191"/>
      <point x="248" y="226" type="curve" smooth="yes"/>
      <point x="1707" y="2310" type="line"/>
      <point x="542" y="2310" type="line" smooth="yes"/>
      <point x="426" y="2310"/>
      <point x="332" y="2404"/>
      <point x="332" y="2520" type="curve" smooth="yes"/>
      <point x="332" y="2636"/>
      <point x="426" y="2730"/>
      <point x="542" y="2730" type="curve" smooth="yes"/>
      <point x="2037" y="2730" type="line" smooth="yes"/>
      <point x="2153" y="2730"/>
      <point x="2247" y="2636"/>
      <point x="2247" y="2520" type="curve" smooth="yes"/>
      <point x="2247" y="2415" type="line" smooth="yes"/>
      <point x="2247" y="2372"/>
      <point x="2234" y="2330"/>
      <point x="2209" y="2295" type="curve" smooth="yes"/>
      <point x="750" y="210" type="line"/>
      <point x="2159" y="210" type="line" smooth="yes"/>
      <point x="2275" y="210"/>
      <point x="2369" y="116"/>
      <point x="2369" y="0" type="curve" smooth="yes"/>
      <point x="2369" y="-116"/>
      <point x="2275" y="-210"/>
      <point x="2159" y="-210" type="curve" smooth="yes"/>
      <point x="420" y="-210" type="line" smooth="yes"/>
      <point x="305" y="-210"/>
      <point x="210" y="-117"/>
      <point x="210" y="0" type="curve" smooth="yes"/>
    </contour>
  </outline>
</glyph>
<glyph name="bracketleft" format="2">
  <advance width="1850"/>
  <unicode hex="005B"/>
  <outline>
    <contour>
      <point x="210" y="-280" type="curve" smooth="yes"/>
      <point x="210" y="2730" type="line" smooth="yes"/>
      <point x="210" y="2847"/>
      <point x="306" y="2940"/>
      <point x="420" y="2940" type="curve" smooth="yes"/>
      <point x="1220" y="2940" type="line" smooth="yes"/>
      <point x="1336" y="2940"/>
      <point x="1430" y="2846"/>
      <point x="1430" y="2730" type="curve" smooth="yes"/>
      <point x="1430" y="2614"/>
      <point x="1336" y="2520"/>
      <point x="1220" y="2520" type="curve" smooth="yes"/>
      <point x="630" y="2520" type="line"/>
      <point x="630" y="-70" type="line"/>
      <point x="1220" y="-70" type="line" smooth="yes"/>
      <point x="1336" y="-70"/>
      <point x="1430" y="-164"/>
      <point x="1430" y="-280" type="curve" smooth="yes"/>
      <point x="1430" y="-396"/>
      <point x="1336" y="-490"/>
      <point x="1220" y="-490" type="curve" smooth="yes"/>
      <point x="420" y="-490" type="line" smooth="yes"/>
      <point x="303" y="-490"/>
      <point x="210" y="-395"/>
    </contour>
  </outline>
</glyph>
<glyph name="backslash" format="2">
  <advance width="2680"/>
  <unicode hex="005C"/>
  <outline>
    <contour>
      <point x="210" y="2660" type="curve" smooth="yes"/>
      <point x="210" y="2776"/>
      <point x="304" y="2870"/>
      <point x="420" y="2870" type="curve" smooth="yes"/>
      <point x="497" y="2870"/>
      <point x="565" y="2829"/>
      <point x="601" y="2766" type="curve" smooth="yes"/>
      <point x="2232" y="-35" type="line" smooth="yes"/>
      <point x="2250" y="-66"/>
      <point x="2260" y="-102"/>
      <point x="2260" y="-140" type="curve" smooth="yes"/>
      <point x="2260" y="-256"/>
      <point x="2166" y="-350"/>
      <point x="2050" y="-350" type="curve" smooth="yes"/>
      <point x="1973" y="-350"/>
      <point x="1905" y="-308"/>
      <point x="1869" y="-246" type="curve" smooth="yes"/>
      <point x="238" y="2555" type="line" smooth="yes"/>
      <point x="220" y="2586"/>
      <point x="210" y="2622"/>
    </contour>
  </outline>
</glyph>
<glyph name="bracketright" format="2">
  <advance width="1850"/>
  <unicode hex="005D"/>
  <outline>
    <contour>
      <point x="210" y="-280" type="curve" smooth="yes"/>
      <point x="210" y="-164"/>
      <point x="304" y="-70"/>
      <point x="420" y="-70" type="curve" smooth="yes"/>
      <point x="1010" y="-70" type="line"/>
      <point x="1010" y="2520" type="line"/>
      <point x="420" y="2520" type="line" smooth="yes"/>
      <point x="304" y="2520"/>
      <point x="210" y="2614"/>
      <point x="210" y="2730" type="curve" smooth="yes"/>
      <point x="210" y="2846"/>
      <point x="304" y="2940"/>
      <point x="420" y="2940" type="curve" smooth="yes"/>
      <point x="1220" y="2940" type="line" smooth="yes"/>
      <point x="1335" y="2940"/>
      <point x="1430" y="2847"/>
      <point x="1430" y="2730" type="curve" smooth="yes"/>
      <point x="1430" y="-280" type="line" smooth="yes"/>
      <point x="1430" y="-395"/>
      <point x="1337" y="-490"/>
      <point x="1220" y="-490" type="curve" smooth="yes"/>
      <point x="420" y="-490" type="line" smooth="yes"/>
      <point x="304" y="-490"/>
      <point x="210" y="-396"/>
    </contour>
  </outline>
</glyph>
<glyph name="asciicircum" format="2">
  <advance width="1942"/>
  <unicode hex="005E"/>
  <outline>
    <contour>
      <point x="210" y="1748" type="curve" smooth="yes"/>
      <point x="210" y="1786"/>
      <point x="220" y="1822"/>
      <point x="238" y="1853" type="curve" smooth="yes"/>
      <point x="684" y="2625" type="line" smooth="yes"/>
      <point x="720" y="2688"/>
      <point x="788" y="2730"/>
      <point x="866" y="2730" type="curve" smooth="yes"/>
      <point x="944" y="2730"/>
      <point x="1012" y="2688"/>
      <point x="1048" y="2625" type="curve" smooth="yes"/>
      <point x="1494" y="1853" type="line" smooth="yes"/>
      <point x="1512" y="1822"/>
      <point x="1522" y="1786"/>
      <point x="1522" y="1748" type="curve" smooth="yes"/>
      <point x="1522" y="1632"/>
      <point x="1428" y="1538"/>
      <point x="1312" y="1538" type="curve" smooth="yes"/>
      <point x="1234" y="1538"/>
      <point x="1166" y="1581"/>
      <point x="1130" y="1643" type="curve" smooth="yes"/>
      <point x="866" y="2100" type="line"/>
      <point x="602" y="1643" type="line" smooth="yes"/>
      <point x="566" y="1581"/>
      <point x="498" y="1538"/>
      <point x="420" y="1538" type="curve" smooth="yes"/>
      <point x="304" y="1538"/>
      <point x="210" y="1632"/>
    </contour>
  </outline>
</glyph>
<glyph name="underscore" format="2">
  <advance width="2730"/>
  <unicode hex="005F"/>
  <outline>
    <contour>
      <point x="210" y="-210" type="curve" smooth="yes"/>
      <point x="210" y="-94"/>
      <point x="304" y="0"/>
      <point x="420" y="0" type="curve" smooth="yes"/>
      <point x="2100" y="0" type="line" smooth="yes"/>
      <point x="2216" y="0"/>
      <point x="2310" y="-94"/>
      <point x="2310" y="-210" type="curve" smooth="yes"/>
      <point x="2310" y="-326"/>
      <point x="2216" y="-420"/>
      <point x="2100" y="-420" type="curve" smooth="yes"/>
      <point x="420" y="-420" type="line" smooth="yes"/>
      <point x="304" y="-420"/>
      <point x="210" y="-326"/>
    </contour>
  </outline>
</glyph>
<glyph name="grave" format="2">
  <advance width="1294"/>
  <unicode hex="0060"/>
  <outline>
    <contour>
      <point x="209" y="2450" type="curve" smooth="yes"/>
      <point x="209" y="2603"/>
      <point x="335" y="2730"/>
      <point x="490" y="2730" type="curve" smooth="yes"/>
      <point x="587" y="2730"/>
      <point x="681" y="2678"/>
      <point x="732" y="2589" type="curve" smooth="yes"/>
      <point x="767" y="2529" type="line" smooth="yes"/>
      <point x="776" y="2514"/>
      <point x="782" y="2499"/>
      <point x="787" y="2482" type="curve" smooth="yes"/>
      <point x="867" y="2204" type="line" smooth="yes"/>
      <point x="872" y="2186"/>
      <point x="875" y="2167"/>
      <point x="875" y="2147" type="curve" smooth="yes"/>
      <point x="875" y="2030"/>
      <point x="780" y="1937"/>
      <point x="665" y="1937" type="curve" smooth="yes"/>
      <point x="612" y="1937"/>
      <point x="556" y="1958"/>
      <point x="514" y="2001" type="curve" smooth="yes"/>
      <point x="313" y="2208" type="line" smooth="yes"/>
      <point x="301" y="2220"/>
      <point x="291" y="2235"/>
      <point x="282" y="2250" type="curve" smooth="yes"/>
      <point x="247" y="2310" type="line" smooth="yes"/>
      <point x="222" y="2353"/>
      <point x="209" y="2401"/>
    </contour>
  </outline>
</glyph>
<glyph name="a" format="2">
  <advance width="2205"/>
  <unicode hex="0061"/>
  <outline>
    <contour>
      <point x="910" y="-230" type="curve" smooth="yes"/>
      <point x="531" y="-230"/>
      <point x="210" y="-26"/>
      <point x="210" y="315" type="curve" smooth="yes"/>
      <point x="210" y="911"/>
      <point x="876" y="1037"/>
      <point x="1155" y="1064" type="curve"/>
      <point x="1155" y="1087"/>
      <point x="1155" y="1100"/>
      <point x="1155" y="1100" type="curve" smooth="yes"/>
      <point x="1155" y="1210"/>
      <point x="1068" y="1330"/>
      <point x="900" y="1330" type="curve" smooth="yes"/>
      <point x="697" y="1330"/>
      <point x="649" y="1249"/>
      <point x="625" y="1142" type="curve" smooth="yes"/>
      <point x="604" y="1048"/>
      <point x="520" y="978"/>
      <point x="420" y="978" type="curve" smooth="yes"/>
      <point x="304" y="978"/>
      <point x="210" y="1072"/>
      <point x="210" y="1188" type="curve" smooth="yes"/>
      <point x="210" y="1197"/>
      <point x="254" y="1750"/>
      <point x="900" y="1750" type="curve" smooth="yes"/>
      <point x="1293" y="1750"/>
      <point x="1575" y="1449"/>
      <point x="1575" y="1100" type="curve" smooth="yes"/>
      <point x="1575" y="877" type="line" smooth="yes"/>
      <point x="1575" y="873"/>
      <point x="1575" y="870"/>
      <point x="1575" y="866" type="curve" smooth="yes"/>
      <point x="1575" y="280" type="line" smooth="yes"/>
      <point x="1575" y="237"/>
      <point x="1579" y="207"/>
      <point x="1584" y="188" type="curve"/>
      <point x="1618" y="191"/>
      <point x="1648" y="196"/>
      <point x="1648" y="196" type="curve" smooth="yes"/>
      <point x="1655" y="197"/>
      <point x="1666" y="198"/>
      <point x="1680" y="198" type="curve" smooth="yes"/>
      <point x="1796" y="198"/>
      <point x="1890" y="104"/>
      <point x="1890" y="-12" type="curve" smooth="yes"/>
      <point x="1890" y="-117"/>
      <point x="1813" y="-204"/>
      <point x="1712" y="-220" type="curve" smooth="yes"/>
      <point x="1699" y="-222"/>
      <point x="1615" y="-234"/>
      <point x="1535" y="-234" type="curve" smooth="yes"/>
      <point x="1440" y="-234"/>
      <point x="1357" y="-192"/>
      <point x="1298" y="-135" type="curve"/>
      <point x="1240" y="-167"/>
      <point x="1101" y="-230"/>
    </contour>
    <contour>
      <point x="910" y="190" type="curve" smooth="yes"/>
      <point x="947" y="190"/>
      <point x="1154" y="204"/>
      <point x="1154" y="315" type="curve"/>
      <point x="1154" y="315"/>
      <point x="1154" y="470"/>
      <point x="1154" y="642" type="curve"/>
      <point x="1129" y="639"/>
      <point x="730" y="588"/>
      <point x="650" y="418" type="curve" smooth="yes"/>
      <point x="638" y="394"/>
      <point x="630" y="362"/>
      <point x="630" y="315" type="curve" smooth="yes"/>
      <point x="630" y="225"/>
      <point x="811" y="190"/>
    </contour>
  </outline>
</glyph>
<glyph name="b" format="2">
  <advance width="1995"/>
  <unicode hex="0062"/>
  <outline>
    <contour>
      <point x="1575" y="758" type="curve" smooth="yes"/>
      <point x="1575" y="204"/>
      <point x="1250" y="-234"/>
      <point x="840" y="-234" type="curve" smooth="yes"/>
      <point x="741" y="-234"/>
      <point x="644" y="-209"/>
      <point x="555" y="-161" type="curve"/>
      <point x="518" y="-192"/>
      <point x="472" y="-211"/>
      <point x="420" y="-211" type="curve" smooth="yes"/>
      <point x="304" y="-211"/>
      <point x="210" y="-117"/>
      <point x="210" y="-1" type="curve" smooth="yes"/>
      <point x="210" y="2520" type="line" smooth="yes"/>
      <point x="210" y="2636"/>
      <point x="304" y="2730"/>
      <point x="420" y="2730" type="curve" smooth="yes"/>
      <point x="536" y="2730"/>
      <point x="630" y="2636"/>
      <point x="630" y="2520" type="curve" smooth="yes"/>
      <point x="630" y="1710" type="line"/>
      <point x="688" y="1733"/>
      <point x="758" y="1750"/>
      <point x="840" y="1750" type="curve" smooth="yes"/>
      <point x="1250" y="1750"/>
      <point x="1575" y="1312"/>
    </contour>
    <contour>
      <point x="1155" y="758" type="curve" smooth="yes"/>
      <point x="1155" y="1081"/>
      <point x="993" y="1330"/>
      <point x="840" y="1330" type="curve" smooth="yes"/>
      <point x="754" y="1330"/>
      <point x="680" y="1253"/>
      <point x="630" y="1169" type="curve"/>
      <point x="630" y="339" type="line"/>
      <point x="666" y="278"/>
      <point x="738" y="186"/>
      <point x="840" y="186" type="curve" smooth="yes"/>
      <point x="993" y="186"/>
      <point x="1155" y="435"/>
    </contour>
  </outline>
</glyph>
<glyph name="c" format="2">
  <advance width="2058"/>
  <unicode hex="0063"/>
  <outline>
    <contour>
      <point x="956" y="-234" type="curve" smooth="yes"/>
      <point x="541" y="-234"/>
      <point x="210" y="204"/>
      <point x="210" y="758" type="curve" smooth="yes"/>
      <point x="210" y="1312"/>
      <point x="541" y="1750"/>
      <point x="956" y="1750" type="curve" smooth="yes"/>
      <point x="1434" y="1750"/>
      <point x="1599" y="1273"/>
      <point x="1599" y="1093" type="curve" smooth="yes"/>
      <point x="1599" y="977"/>
      <point x="1505" y="883"/>
      <point x="1389" y="883" type="curve" smooth="yes"/>
      <point x="1282" y="883"/>
      <point x="1193" y="963"/>
      <point x="1180" y="1067" type="curve" smooth="yes"/>
      <point x="1173" y="1125"/>
      <point x="1136" y="1330"/>
      <point x="956" y="1330" type="curve" smooth="yes"/>
      <point x="795" y="1330"/>
      <point x="630" y="1079"/>
      <point x="630" y="758" type="curve" smooth="yes"/>
      <point x="630" y="437"/>
      <point x="795" y="186"/>
      <point x="956" y="186" type="curve" smooth="yes"/>
      <point x="1108" y="186"/>
      <point x="1207" y="317"/>
      <point x="1219" y="465" type="curve" smooth="yes"/>
      <point x="1228" y="573"/>
      <point x="1318" y="658"/>
      <point x="1428" y="658" type="curve" smooth="yes"/>
      <point x="1544" y="658"/>
      <point x="1638" y="564"/>
      <point x="1638" y="448" type="curve" smooth="yes"/>
      <point x="1638" y="195"/>
      <point x="1415" y="-234"/>
    </contour>
  </outline>
</glyph>
<glyph name="d" format="2">
  <advance width="1995"/>
  <unicode hex="0064"/>
  <outline>
    <contour>
      <point x="945" y="-234" type="curve" smooth="yes"/>
      <point x="535" y="-234"/>
      <point x="210" y="204"/>
      <point x="210" y="758" type="curve" smooth="yes"/>
      <point x="210" y="1312"/>
      <point x="535" y="1750"/>
      <point x="945" y="1750" type="curve" smooth="yes"/>
      <point x="1006" y="1750"/>
      <point x="1078" y="1740"/>
      <point x="1155" y="1710" type="curve"/>
      <point x="1155" y="2520" type="line" smooth="yes"/>
      <point x="1155" y="2636"/>
      <point x="1249" y="2730"/>
      <point x="1365" y="2730" type="curve" smooth="yes"/>
      <point x="1481" y="2730"/>
      <point x="1575" y="2636"/>
      <point x="1575" y="2520" type="curve" smooth="yes"/>
      <point x="1575" y="-1" type="line" smooth="yes"/>
      <point x="1575" y="-117"/>
      <point x="1481" y="-211"/>
      <point x="1365" y="-211" type="curve" smooth="yes"/>
      <point x="1313" y="-211"/>
      <point x="1267" y="-192"/>
      <point x="1230" y="-161" type="curve"/>
      <point x="1163" y="-197"/>
      <point x="1065" y="-234"/>
    </contour>
    <contour>
      <point x="945" y="1330" type="curve" smooth="yes"/>
      <point x="792" y="1330"/>
      <point x="630" y="1081"/>
      <point x="630" y="758" type="curve" smooth="yes"/>
      <point x="630" y="435"/>
      <point x="792" y="186"/>
      <point x="945" y="186" type="curve" smooth="yes"/>
      <point x="992" y="186"/>
      <point x="1077" y="208"/>
      <point x="1155" y="339" type="curve"/>
      <point x="1155" y="1169" type="line"/>
      <point x="1124" y="1222"/>
      <point x="1048" y="1330"/>
    </contour>
  </outline>
</glyph>
<glyph name="e" format="2">
  <advance width="2064"/>
  <unicode hex="0065"/>
  <outline>
    <contour>
      <point x="945" y="-234" type="curve" smooth="yes"/>
      <point x="537" y="-234"/>
      <point x="210" y="200"/>
      <point x="210" y="748" type="curve" smooth="yes"/>
      <point x="210" y="1306"/>
      <point x="531" y="1750"/>
      <point x="945" y="1750" type="curve" smooth="yes"/>
      <point x="1402" y="1750"/>
      <point x="1644" y="1221"/>
      <point x="1644" y="948" type="curve" smooth="yes"/>
      <point x="1644" y="745"/>
      <point x="1508" y="666"/>
      <point x="1400" y="666" type="curve" smooth="yes"/>
      <point x="634" y="666" type="line"/>
      <point x="659" y="387"/>
      <point x="808" y="186"/>
      <point x="945" y="186" type="curve" smooth="yes"/>
      <point x="1071" y="186"/>
      <point x="1182" y="310"/>
      <point x="1232" y="490" type="curve" smooth="yes"/>
      <point x="1257" y="579"/>
      <point x="1338" y="643"/>
      <point x="1434" y="643" type="curve" smooth="yes"/>
      <point x="1550" y="643"/>
      <point x="1644" y="549"/>
      <point x="1644" y="433" type="curve" smooth="yes"/>
      <point x="1644" y="301"/>
      <point x="1433" y="-234"/>
    </contour>
    <contour>
      <point x="1188" y="1086" type="line"/>
      <point x="1165" y="1143"/>
      <point x="1079" y="1330"/>
      <point x="945" y="1330" type="curve" smooth="yes"/>
      <point x="838" y="1330"/>
      <point x="745" y="1212"/>
      <point x="693" y="1086" type="curve"/>
    </contour>
  </outline>
</glyph>
<glyph name="f" format="2">
  <advance width="2099"/>
  <unicode hex="0066"/>
  <outline>
    <contour>
      <point x="104" y="1590" type="curve" smooth="yes"/>
      <point x="104" y="1706"/>
      <point x="198" y="1800"/>
      <point x="314" y="1800" type="curve" smooth="yes"/>
      <point x="524" y="1801" type="line"/>
      <point x="525" y="2101" type="line" smooth="yes"/>
      <point x="525" y="2448"/>
      <point x="806" y="2731"/>
      <point x="1154" y="2731" type="curve" smooth="yes"/>
      <point x="1502" y="2731"/>
      <point x="1784" y="2449"/>
      <point x="1784" y="2101" type="curve" smooth="yes"/>
      <point x="1784" y="2046" type="line" smooth="yes"/>
      <point x="1784" y="1930"/>
      <point x="1690" y="1836"/>
      <point x="1574" y="1836" type="curve" smooth="yes"/>
      <point x="1458" y="1836"/>
      <point x="1364" y="1930"/>
      <point x="1364" y="2046" type="curve" smooth="yes"/>
      <point x="1364" y="2101" type="line" smooth="yes"/>
      <point x="1364" y="2217"/>
      <point x="1270" y="2311"/>
      <point x="1154" y="2311" type="curve" smooth="yes"/>
      <point x="1038" y="2311"/>
      <point x="945" y="2218"/>
      <point x="945" y="2101" type="curve" smooth="yes"/>
      <point x="944" y="1801" type="line"/>
      <point x="1294" y="1800" type="line" smooth="yes"/>
      <point x="1410" y="1800"/>
      <point x="1504" y="1706"/>
      <point x="1504" y="1590" type="curve" smooth="yes"/>
      <point x="1504" y="1474"/>
      <point x="1410" y="1380"/>
      <point x="1294" y="1380" type="curve" smooth="yes"/>
      <point x="944" y="1380" type="line"/>
      <point x="944" y="1" type="line" smooth="yes"/>
      <point x="944" y="-115"/>
      <point x="850" y="-209"/>
      <point x="734" y="-209" type="curve" smooth="yes"/>
      <point x="618" y="-209"/>
      <point x="524" y="-115"/>
      <point x="524" y="1" type="curve" smooth="yes"/>
      <point x="524" y="1380" type="line"/>
      <point x="314" y="1380" type="line" smooth="yes"/>
      <point x="198" y="1380"/>
      <point x="104" y="1474"/>
    </contour>
  </outline>
</glyph>
<glyph name="g" format="2">
  <advance width="2009"/>
  <unicode hex="0067"/>
  <outline>
    <contour>
      <point x="998" y="-633" type="curve" smooth="yes"/>
      <point x="562" y="-633"/>
      <point x="157" y="-422"/>
      <point x="157" y="-104" type="curve" smooth="yes"/>
      <point x="157" y="-67"/>
      <point x="161" y="46"/>
      <point x="263" y="153" type="curve"/>
      <point x="229" y="224"/>
      <point x="210" y="302"/>
      <point x="210" y="386" type="curve" smooth="yes"/>
      <point x="210" y="521"/>
      <point x="260" y="645"/>
      <point x="343" y="740" type="curve"/>
      <point x="304" y="809"/>
      <point x="253" y="927"/>
      <point x="253" y="1080" type="curve" smooth="yes"/>
      <point x="253" y="1369"/>
      <point x="438" y="1627"/>
      <point x="713" y="1680" type="curve"/>
      <point x="780" y="1823"/>
      <point x="926" y="1922"/>
      <point x="1094" y="1922" type="curve" smooth="yes"/>
      <point x="1318" y="1922"/>
      <point x="1358" y="1774"/>
      <point x="1358" y="1705" type="curve" smooth="yes"/>
      <point x="1358" y="1616"/>
      <point x="1303" y="1541"/>
      <point x="1225" y="1510" type="curve"/>
      <point x="1285" y="1448"/>
      <point x="1411" y="1288"/>
      <point x="1411" y="1041" type="curve" smooth="yes"/>
      <point x="1411" y="703"/>
      <point x="1163" y="432"/>
      <point x="849" y="432" type="curve" smooth="yes"/>
      <point x="783" y="432"/>
      <point x="720" y="444"/>
      <point x="661" y="466" type="curve"/>
      <point x="642" y="445"/>
      <point x="630" y="417"/>
      <point x="630" y="386" type="curve" smooth="yes"/>
      <point x="630" y="368"/>
      <point x="634" y="351"/>
      <point x="641" y="335" type="curve"/>
      <point x="708" y="347"/>
      <point x="779" y="353"/>
      <point x="852" y="353" type="curve" smooth="yes"/>
      <point x="1288" y="353"/>
      <point x="1693" y="142"/>
      <point x="1693" y="-176" type="curve" smooth="yes"/>
      <point x="1693" y="-437"/>
      <point x="1418" y="-633"/>
    </contour>
    <contour>
      <point x="605" y="-112" type="curve"/>
      <point x="687" y="-170"/>
      <point x="840" y="-213"/>
      <point x="998" y="-213" type="curve" smooth="yes"/>
      <point x="1043" y="-213"/>
      <point x="1160" y="-209"/>
      <point x="1245" y="-168" type="curve"/>
      <point x="1163" y="-110"/>
      <point x="1010" y="-67"/>
      <point x="852" y="-67" type="curve" smooth="yes"/>
      <point x="807" y="-67"/>
      <point x="690" y="-71"/>
    </contour>
    <contour>
      <point x="673" y="1080" type="curve" smooth="yes"/>
      <point x="673" y="954"/>
      <point x="761" y="852"/>
      <point x="849" y="852" type="curve" smooth="yes"/>
      <point x="933" y="852"/>
      <point x="991" y="942"/>
      <point x="991" y="1041" type="curve" smooth="yes"/>
      <point x="991" y="1167"/>
      <point x="903" y="1269"/>
      <point x="815" y="1269" type="curve" smooth="yes"/>
      <point x="731" y="1269"/>
      <point x="673" y="1179"/>
    </contour>
  </outline>
</glyph>
<glyph name="h" format="2">
  <advance width="1994"/>
  <unicode hex="0068"/>
  <outline>
    <contour>
      <point x="210" y="-0" type="curve" smooth="yes"/>
      <point x="210" y="2520" type="line" smooth="yes"/>
      <point x="210" y="2636"/>
      <point x="304" y="2730"/>
      <point x="420" y="2730" type="curve" smooth="yes"/>
      <point x="536" y="2730"/>
      <point x="630" y="2636"/>
      <point x="630" y="2520" type="curve" smooth="yes"/>
      <point x="630" y="1698" type="line"/>
      <point x="711" y="1732"/>
      <point x="799" y="1750"/>
      <point x="892" y="1750" type="curve" smooth="yes"/>
      <point x="1269" y="1750"/>
      <point x="1574" y="1445"/>
      <point x="1574" y="1068" type="curve" smooth="yes"/>
      <point x="1574" y="0" type="line" smooth="yes"/>
      <point x="1574" y="-116"/>
      <point x="1480" y="-210"/>
      <point x="1364" y="-210" type="curve" smooth="yes"/>
      <point x="1248" y="-210"/>
      <point x="1154" y="-116"/>
      <point x="1154" y="0" type="curve" smooth="yes"/>
      <point x="1154" y="1068" type="line" smooth="yes"/>
      <point x="1154" y="1213"/>
      <point x="1037" y="1330"/>
      <point x="892" y="1330" type="curve" smooth="yes"/>
      <point x="747" y="1330"/>
      <point x="631" y="1214"/>
      <point x="631" y="1068" type="curve" smooth="yes"/>
      <point x="630" y="-0" type="line" smooth="yes"/>
      <point x="630" y="-116"/>
      <point x="536" y="-210"/>
      <point x="420" y="-210" type="curve" smooth="yes"/>
      <point x="304" y="-210"/>
      <point x="210" y="-116"/>
    </contour>
  </outline>
</glyph>
<glyph name="i" format="2">
  <advance width="1050"/>
  <unicode hex="0069"/>
  <outline>
    <contour>
      <point x="158" y="2345" type="curve" smooth="yes"/>
      <point x="158" y="2491"/>
      <point x="276" y="2608"/>
      <point x="420" y="2608" type="curve" smooth="yes"/>
      <point x="564" y="2608"/>
      <point x="683" y="2491"/>
      <point x="683" y="2345" type="curve" smooth="yes"/>
      <point x="683" y="2199"/>
      <point x="564" y="2082"/>
      <point x="420" y="2082" type="curve" smooth="yes"/>
      <point x="274" y="2082"/>
      <point x="158" y="2201"/>
    </contour>
    <contour>
      <point x="210" y="0" type="curve" smooth="yes"/>
      <point x="210" y="1540" type="line" smooth="yes"/>
      <point x="210" y="1656"/>
      <point x="304" y="1750"/>
      <point x="420" y="1750" type="curve" smooth="yes"/>
      <point x="536" y="1750"/>
      <point x="630" y="1656"/>
      <point x="630" y="1540" type="curve" smooth="yes"/>
      <point x="630" y="0" type="line" smooth="yes"/>
      <point x="630" y="-116"/>
      <point x="536" y="-210"/>
      <point x="420" y="-210" type="curve" smooth="yes"/>
      <point x="304" y="-210"/>
      <point x="210" y="-116"/>
    </contour>
    <contour>
      <point x="263" y="2345" type="line"/>
      <point x="420" y="2188" type="line"/>
      <point x="578" y="2345" type="line"/>
      <point x="420" y="2502" type="line"/>
    </contour>
  </outline>
</glyph>
<glyph name="j" format="2">
  <advance width="1503"/>
  <unicode hex="006A"/>
  <outline>
    <contour>
      <point x="103" y="0" type="line" smooth="yes"/>
      <point x="103" y="116"/>
      <point x="197" y="210"/>
      <point x="313" y="210" type="curve" smooth="yes"/>
      <point x="429" y="210"/>
      <point x="523" y="116"/>
      <point x="523" y="0" type="curve" smooth="yes"/>
      <point x="523" y="-55" type="line" smooth="yes"/>
      <point x="523" y="-94"/>
      <point x="554" y="-125"/>
      <point x="593" y="-125" type="curve" smooth="yes"/>
      <point x="632" y="-125"/>
      <point x="663" y="-94"/>
      <point x="663" y="-55" type="curve" smooth="yes"/>
      <point x="663" y="1540" type="line" smooth="yes"/>
      <point x="663" y="1656"/>
      <point x="757" y="1750"/>
      <point x="873" y="1750" type="curve" smooth="yes"/>
      <point x="989" y="1750"/>
      <point x="1083" y="1656"/>
      <point x="1083" y="1540" type="curve" smooth="yes"/>
      <point x="1083" y="-55" type="line" smooth="yes"/>
      <point x="1083" y="-326"/>
      <point x="864" y="-545"/>
      <point x="593" y="-545" type="curve" smooth="yes"/>
      <point x="322" y="-545"/>
      <point x="103" y="-326"/>
      <point x="103" y="-55" type="curve" smooth="yes"/>
    </contour>
    <contour>
      <point x="611" y="2345" type="curve" smooth="yes"/>
      <point x="611" y="2491"/>
      <point x="730" y="2608"/>
      <point x="874" y="2608" type="curve" smooth="yes"/>
      <point x="1020" y="2608"/>
      <point x="1136" y="2489"/>
      <point x="1136" y="2345" type="curve" smooth="yes"/>
      <point x="1136" y="2199"/>
      <point x="1018" y="2082"/>
      <point x="874" y="2082" type="curve" smooth="yes"/>
      <point x="730" y="2082"/>
      <point x="611" y="2199"/>
    </contour>
    <contour>
      <point x="716" y="2345" type="line"/>
      <point x="874" y="2188" type="line"/>
      <point x="1031" y="2345" type="line"/>
      <point x="874" y="2502" type="line"/>
    </contour>
  </outline>
</glyph>
<glyph name="k" format="2">
  <advance width="2054"/>
  <unicode hex="006B"/>
  <outline>
    <contour>
      <point x="210" y="-0" type="curve" smooth="yes"/>
      <point x="210" y="0"/>
      <point x="210" y="280"/>
      <point x="210" y="653" type="curve" smooth="yes"/>
      <point x="210" y="1400"/>
      <point x="210" y="2520"/>
      <point x="210" y="2520" type="curve" smooth="yes"/>
      <point x="210" y="2636"/>
      <point x="304" y="2730"/>
      <point x="420" y="2730" type="curve" smooth="yes"/>
      <point x="536" y="2730"/>
      <point x="630" y="2636"/>
      <point x="630" y="2520" type="curve" smooth="yes"/>
      <point x="630" y="937" type="line"/>
      <point x="1275" y="1583" type="line" smooth="yes"/>
      <point x="1313" y="1621"/>
      <point x="1366" y="1645"/>
      <point x="1424" y="1645" type="curve" smooth="yes"/>
      <point x="1540" y="1645"/>
      <point x="1634" y="1551"/>
      <point x="1634" y="1435" type="curve" smooth="yes"/>
      <point x="1634" y="1377"/>
      <point x="1611" y="1325"/>
      <point x="1573" y="1287" type="curve" smooth="yes"/>
      <point x="1227" y="941" type="line"/>
      <point x="1710" y="105" type="line" smooth="yes"/>
      <point x="1728" y="74"/>
      <point x="1738" y="38"/>
      <point x="1738" y="-0" type="curve" smooth="yes"/>
      <point x="1738" y="-116"/>
      <point x="1644" y="-210"/>
      <point x="1528" y="-210" type="curve" smooth="yes"/>
      <point x="1450" y="-210"/>
      <point x="1382" y="-168"/>
      <point x="1346" y="-105" type="curve" smooth="yes"/>
      <point x="920" y="633" type="line"/>
      <point x="631" y="344" type="line"/>
      <point x="630" y="-1" type="line" smooth="yes"/>
      <point x="630" y="-117"/>
      <point x="536" y="-210"/>
      <point x="420" y="-210" type="curve" smooth="yes"/>
      <point x="304" y="-210"/>
      <point x="210" y="-116"/>
    </contour>
  </outline>
</glyph>
<glyph name="l" format="2">
  <advance width="1050"/>
  <unicode hex="006C"/>
  <outline>
    <contour>
      <point x="210" y="2520" type="line" smooth="yes"/>
      <point x="210" y="2637"/>
      <point x="305" y="2730"/>
      <point x="420" y="2730" type="curve"/>
      <point x="421" y="2730" type="line"/>
      <point x="537" y="2730"/>
      <point x="631" y="2636"/>
      <point x="631" y="2520" type="curve" smooth="yes"/>
      <point x="631" y="0" type="line" smooth="yes"/>
      <point x="631" y="-117"/>
      <point x="536" y="-210"/>
      <point x="421" y="-210" type="curve"/>
      <point x="420" y="-210" type="line"/>
      <point x="305" y="-210"/>
      <point x="210" y="-117"/>
      <point x="210" y="0" type="curve" smooth="yes"/>
    </contour>
  </outline>
</glyph>
<glyph name="m" format="2">
  <advance width="2654"/>
  <unicode hex="006D"/>
  <outline>
    <contour>
      <point x="210" y="-0" type="curve" smooth="yes"/>
      <point x="210" y="1516" type="line" smooth="yes"/>
      <point x="210" y="1632"/>
      <point x="304" y="1726"/>
      <point x="420" y="1726" type="curve" smooth="yes"/>
      <point x="469" y="1726"/>
      <point x="515" y="1709"/>
      <point x="551" y="1680" type="curve"/>
      <point x="631" y="1724"/>
      <point x="723" y="1750"/>
      <point x="821" y="1750" type="curve" smooth="yes"/>
      <point x="910" y="1750"/>
      <point x="1074" y="1727"/>
      <point x="1223" y="1583" type="curve"/>
      <point x="1289" y="1648"/>
      <point x="1427" y="1750"/>
      <point x="1625" y="1750" type="curve" smooth="yes"/>
      <point x="1962" y="1750"/>
      <point x="2235" y="1448"/>
      <point x="2235" y="1068" type="curve" smooth="yes"/>
      <point x="2234" y="-0" type="line" smooth="yes"/>
      <point x="2234" y="-116"/>
      <point x="2140" y="-210"/>
      <point x="2024" y="-210" type="curve" smooth="yes"/>
      <point x="1908" y="-210"/>
      <point x="1814" y="-116"/>
      <point x="1814" y="0" type="curve" smooth="yes"/>
      <point x="1815" y="1068" type="line" smooth="yes"/>
      <point x="1815" y="1211"/>
      <point x="1728" y="1330"/>
      <point x="1625" y="1330" type="curve" smooth="yes"/>
      <point x="1522" y="1330"/>
      <point x="1433" y="1211"/>
      <point x="1433" y="1068" type="curve" smooth="yes"/>
      <point x="1432" y="-0" type="line" smooth="yes"/>
      <point x="1432" y="-116"/>
      <point x="1338" y="-210"/>
      <point x="1222" y="-210" type="curve" smooth="yes"/>
      <point x="1106" y="-210"/>
      <point x="1012" y="-116"/>
      <point x="1012" y="-0" type="curve" smooth="yes"/>
      <point x="1012" y="1068" type="line" smooth="yes"/>
      <point x="1012" y="1211"/>
      <point x="924" y="1330"/>
      <point x="821" y="1330" type="curve" smooth="yes"/>
      <point x="718" y="1330"/>
      <point x="631" y="1211"/>
      <point x="631" y="1068" type="curve" smooth="yes"/>
      <point x="630" y="-0" type="line" smooth="yes"/>
      <point x="630" y="-116"/>
      <point x="536" y="-210"/>
      <point x="420" y="-210" type="curve" smooth="yes"/>
      <point x="304" y="-210"/>
      <point x="210" y="-116"/>
    </contour>
  </outline>
</glyph>
<glyph name="n" format="2">
  <advance width="1994"/>
  <unicode hex="006E"/>
  <outline>
    <contour>
      <point x="210" y="-0" type="curve" smooth="yes"/>
      <point x="210" y="1516" type="line" smooth="yes"/>
      <point x="210" y="1632"/>
      <point x="304" y="1726"/>
      <point x="420" y="1726" type="curve" smooth="yes"/>
      <point x="477" y="1726"/>
      <point x="528" y="1704"/>
      <point x="566" y="1667" type="curve"/>
      <point x="663" y="1720"/>
      <point x="774" y="1750"/>
      <point x="892" y="1750" type="curve" smooth="yes"/>
      <point x="1269" y="1750"/>
      <point x="1574" y="1445"/>
      <point x="1574" y="1068" type="curve" smooth="yes"/>
      <point x="1574" y="0" type="line" smooth="yes"/>
      <point x="1574" y="-116"/>
      <point x="1480" y="-210"/>
      <point x="1364" y="-210" type="curve" smooth="yes"/>
      <point x="1248" y="-210"/>
      <point x="1154" y="-116"/>
      <point x="1154" y="0" type="curve" smooth="yes"/>
      <point x="1154" y="1068" type="line" smooth="yes"/>
      <point x="1154" y="1213"/>
      <point x="1037" y="1330"/>
      <point x="892" y="1330" type="curve" smooth="yes"/>
      <point x="747" y="1330"/>
      <point x="631" y="1214"/>
      <point x="631" y="1068" type="curve" smooth="yes"/>
      <point x="630" y="-0" type="line" smooth="yes"/>
      <point x="630" y="-116"/>
      <point x="536" y="-210"/>
      <point x="420" y="-210" type="curve" smooth="yes"/>
      <point x="304" y="-210"/>
      <point x="210" y="-116"/>
    </contour>
  </outline>
</glyph>
<glyph name="o" format="2">
  <advance width="2105"/>
  <unicode hex="006F"/>
  <outline>
    <contour>
      <point x="945" y="-234" type="curve" smooth="yes"/>
      <point x="537" y="-234"/>
      <point x="210" y="200"/>
      <point x="210" y="748" type="curve" smooth="yes"/>
      <point x="210" y="1306"/>
      <point x="531" y="1750"/>
      <point x="945" y="1750" type="curve" smooth="yes"/>
      <point x="1355" y="1750"/>
      <point x="1680" y="1312"/>
      <point x="1680" y="758" type="curve" smooth="yes"/>
      <point x="1680" y="204"/>
      <point x="1355" y="-234"/>
    </contour>
    <contour>
      <point x="945" y="1330" type="curve" smooth="yes"/>
      <point x="791" y="1330"/>
      <point x="630" y="1074"/>
      <point x="630" y="748" type="curve" smooth="yes"/>
      <point x="630" y="430"/>
      <point x="794" y="186"/>
      <point x="945" y="186" type="curve" smooth="yes"/>
      <point x="1098" y="186"/>
      <point x="1260" y="435"/>
      <point x="1260" y="758" type="curve" smooth="yes"/>
      <point x="1260" y="1081"/>
      <point x="1098" y="1330"/>
    </contour>
  </outline>
</glyph>
<glyph name="p" format="2">
  <advance width="1995"/>
  <unicode hex="0070"/>
  <outline>
    <contour>
      <point x="1575" y="758" type="curve" smooth="yes"/>
      <point x="1575" y="204"/>
      <point x="1250" y="-234"/>
      <point x="840" y="-234" type="curve" smooth="yes"/>
      <point x="779" y="-234"/>
      <point x="707" y="-224"/>
      <point x="630" y="-194" type="curve"/>
      <point x="630" y="-1004" type="line" smooth="yes"/>
      <point x="630" y="-1120"/>
      <point x="536" y="-1214"/>
      <point x="420" y="-1214" type="curve" smooth="yes"/>
      <point x="304" y="-1214"/>
      <point x="210" y="-1120"/>
      <point x="210" y="-1004" type="curve" smooth="yes"/>
      <point x="210" y="1516" type="line" smooth="yes"/>
      <point x="210" y="1632"/>
      <point x="304" y="1726"/>
      <point x="420" y="1726" type="curve" smooth="yes"/>
      <point x="471" y="1726"/>
      <point x="519" y="1708"/>
      <point x="555" y="1677" type="curve"/>
      <point x="622" y="1713"/>
      <point x="719" y="1750"/>
      <point x="840" y="1750" type="curve" smooth="yes"/>
      <point x="1250" y="1750"/>
      <point x="1575" y="1312"/>
    </contour>
    <contour>
      <point x="840" y="1330" type="curve" smooth="yes"/>
      <point x="793" y="1330"/>
      <point x="708" y="1308"/>
      <point x="630" y="1177" type="curve"/>
      <point x="630" y="347" type="line"/>
      <point x="661" y="294"/>
      <point x="737" y="186"/>
      <point x="840" y="186" type="curve" smooth="yes"/>
      <point x="993" y="186"/>
      <point x="1155" y="435"/>
      <point x="1155" y="758" type="curve" smooth="yes"/>
      <point x="1155" y="1081"/>
      <point x="993" y="1330"/>
    </contour>
  </outline>
</glyph>
<glyph name="q" format="2">
  <advance width="1995"/>
  <unicode hex="0071"/>
  <outline>
    <contour>
      <point x="945" y="-234" type="curve" smooth="yes"/>
      <point x="535" y="-234"/>
      <point x="210" y="204"/>
      <point x="210" y="758" type="curve" smooth="yes"/>
      <point x="210" y="1312"/>
      <point x="535" y="1750"/>
      <point x="945" y="1750" type="curve" smooth="yes"/>
      <point x="1020" y="1750"/>
      <point x="1122" y="1735"/>
      <point x="1230" y="1677" type="curve"/>
      <point x="1266" y="1708"/>
      <point x="1314" y="1726"/>
      <point x="1365" y="1726" type="curve" smooth="yes"/>
      <point x="1481" y="1726"/>
      <point x="1575" y="1632"/>
      <point x="1575" y="1516" type="curve" smooth="yes"/>
      <point x="1575" y="-1004" type="line" smooth="yes"/>
      <point x="1575" y="-1120"/>
      <point x="1481" y="-1214"/>
      <point x="1365" y="-1214" type="curve" smooth="yes"/>
      <point x="1249" y="-1214"/>
      <point x="1155" y="-1120"/>
      <point x="1155" y="-1004" type="curve" smooth="yes"/>
      <point x="1155" y="-194" type="line"/>
      <point x="1097" y="-217"/>
      <point x="1027" y="-234"/>
    </contour>
    <contour>
      <point x="945" y="1330" type="curve" smooth="yes"/>
      <point x="792" y="1330"/>
      <point x="630" y="1081"/>
      <point x="630" y="758" type="curve" smooth="yes"/>
      <point x="630" y="435"/>
      <point x="792" y="186"/>
      <point x="945" y="186" type="curve" smooth="yes"/>
      <point x="1031" y="186"/>
      <point x="1105" y="263"/>
      <point x="1155" y="347" type="curve"/>
      <point x="1155" y="1177" type="line"/>
      <point x="1119" y="1238"/>
      <point x="1047" y="1330"/>
    </contour>
  </outline>
</glyph>
<glyph name="r" format="2">
  <advance width="1890"/>
  <unicode hex="0072"/>
  <outline>
    <contour>
      <point x="210" y="0" type="curve" smooth="yes"/>
      <point x="210" y="1540" type="line" smooth="yes"/>
      <point x="210" y="1656"/>
      <point x="304" y="1750"/>
      <point x="420" y="1750" type="curve" smooth="yes"/>
      <point x="478" y="1750"/>
      <point x="530" y="1726"/>
      <point x="568" y="1688" type="curve"/>
      <point x="650" y="1727"/>
      <point x="743" y="1750"/>
      <point x="840" y="1750" type="curve" smooth="yes"/>
      <point x="1188" y="1750"/>
      <point x="1470" y="1468"/>
      <point x="1470" y="1120" type="curve" smooth="yes"/>
      <point x="1470" y="1065" type="line" smooth="yes"/>
      <point x="1470" y="949"/>
      <point x="1376" y="855"/>
      <point x="1260" y="855" type="curve" smooth="yes"/>
      <point x="1144" y="855"/>
      <point x="1050" y="949"/>
      <point x="1050" y="1065" type="curve" smooth="yes"/>
      <point x="1050" y="1120" type="line" smooth="yes"/>
      <point x="1050" y="1236"/>
      <point x="956" y="1330"/>
      <point x="840" y="1330" type="curve" smooth="yes"/>
      <point x="724" y="1330"/>
      <point x="631" y="1237"/>
      <point x="631" y="1120" type="curve" smooth="yes"/>
      <point x="631" y="1113"/>
      <point x="631" y="1106"/>
      <point x="630" y="1099" type="curve" smooth="yes"/>
      <point x="630" y="0" type="line" smooth="yes"/>
      <point x="630" y="-116"/>
      <point x="536" y="-210"/>
      <point x="420" y="-210" type="curve" smooth="yes"/>
      <point x="304" y="-210"/>
      <point x="210" y="-116"/>
    </contour>
  </outline>
</glyph>
<glyph name="s" format="2">
  <advance width="2023"/>
  <unicode hex="0073"/>
  <outline>
    <contour>
      <point x="893" y="-234" type="curve" smooth="yes"/>
      <point x="366" y="-234"/>
      <point x="210" y="272"/>
      <point x="210" y="389" type="curve" smooth="yes"/>
      <point x="210" y="505"/>
      <point x="304" y="599"/>
      <point x="420" y="599" type="curve" smooth="yes"/>
      <point x="521" y="599"/>
      <point x="605" y="528"/>
      <point x="625" y="433" type="curve" smooth="yes"/>
      <point x="644" y="345"/>
      <point x="704" y="186"/>
      <point x="893" y="186" type="curve" smooth="yes"/>
      <point x="928" y="186"/>
      <point x="1183" y="192"/>
      <point x="1183" y="379" type="curve" smooth="yes"/>
      <point x="1183" y="501"/>
      <point x="908" y="555"/>
      <point x="860" y="563" type="curve" smooth="yes"/>
      <point x="794" y="575"/>
      <point x="252" y="685"/>
      <point x="252" y="1149" type="curve" smooth="yes"/>
      <point x="252" y="1478"/>
      <point x="553" y="1750"/>
      <point x="893" y="1750" type="curve" smooth="yes"/>
      <point x="1354" y="1750"/>
      <point x="1546" y="1293"/>
      <point x="1546" y="1149" type="curve" smooth="yes"/>
      <point x="1546" y="1033"/>
      <point x="1452" y="939"/>
      <point x="1336" y="939" type="curve" smooth="yes"/>
      <point x="1235" y="939"/>
      <point x="1150" y="1010"/>
      <point x="1130" y="1105" type="curve" smooth="yes"/>
      <point x="1129" y="1108"/>
      <point x="1081" y="1330"/>
      <point x="893" y="1330" type="curve" smooth="yes"/>
      <point x="781" y="1330"/>
      <point x="672" y="1240"/>
      <point x="672" y="1149" type="curve" smooth="yes"/>
      <point x="672" y="1057"/>
      <point x="828" y="996"/>
      <point x="934" y="977" type="curve" smooth="yes"/>
      <point x="1126" y="943"/>
      <point x="1603" y="815"/>
      <point x="1603" y="379" type="curve" smooth="yes"/>
      <point x="1603" y="65"/>
      <point x="1350" y="-234"/>
    </contour>
  </outline>
</glyph>
<glyph name="t" format="2">
  <advance width="1925"/>
  <unicode hex="0074"/>
  <outline>
    <contour>
      <point x="105" y="1540" type="curve" smooth="yes"/>
      <point x="105" y="1656"/>
      <point x="199" y="1750"/>
      <point x="315" y="1750" type="curve" smooth="yes"/>
      <point x="525" y="1750" type="line"/>
      <point x="525" y="1820"/>
      <point x="525" y="1890"/>
      <point x="525" y="1960" type="curve" smooth="yes"/>
      <point x="525" y="2076"/>
      <point x="619" y="2170"/>
      <point x="735" y="2170" type="curve" smooth="yes"/>
      <point x="851" y="2170"/>
      <point x="945" y="2076"/>
      <point x="945" y="1960" type="curve" smooth="yes"/>
      <point x="945" y="1751" type="line"/>
      <point x="1295" y="1750" type="line" smooth="yes"/>
      <point x="1411" y="1750"/>
      <point x="1505" y="1656"/>
      <point x="1505" y="1540" type="curve" smooth="yes"/>
      <point x="1505" y="1424"/>
      <point x="1411" y="1330"/>
      <point x="1295" y="1330" type="curve" smooth="yes"/>
      <point x="945" y="1330" type="line"/>
      <point x="945" y="280" type="line" smooth="yes"/>
      <point x="945" y="241"/>
      <point x="976" y="210"/>
      <point x="1015" y="210" type="curve" smooth="yes"/>
      <point x="1054" y="210"/>
      <point x="1085" y="241"/>
      <point x="1085" y="280" type="curve" smooth="yes"/>
      <point x="1085" y="335" type="line" smooth="yes"/>
      <point x="1085" y="451"/>
      <point x="1179" y="545"/>
      <point x="1295" y="545" type="curve" smooth="yes"/>
      <point x="1411" y="545"/>
      <point x="1505" y="451"/>
      <point x="1505" y="335" type="curve" smooth="yes"/>
      <point x="1505" y="280" type="line" smooth="yes"/>
      <point x="1505" y="9"/>
      <point x="1286" y="-210"/>
      <point x="1015" y="-210" type="curve" smooth="yes"/>
      <point x="744" y="-210"/>
      <point x="525" y="9"/>
      <point x="525" y="280" type="curve" smooth="yes"/>
      <point x="525" y="1329" type="line"/>
      <point x="315" y="1330" type="line" smooth="yes"/>
      <point x="199" y="1330"/>
      <point x="105" y="1424"/>
    </contour>
  </outline>
</glyph>
<glyph name="u" format="2">
  <advance width="1994"/>
  <unicode hex="0075"/>
  <outline>
    <contour>
      <point x="210" y="448" type="curve" smooth="yes"/>
      <point x="210" y="1435" type="line" smooth="yes"/>
      <point x="210" y="1551"/>
      <point x="304" y="1645"/>
      <point x="420" y="1645" type="curve" smooth="yes"/>
      <point x="536" y="1645"/>
      <point x="630" y="1551"/>
      <point x="630" y="1435" type="curve" smooth="yes"/>
      <point x="630" y="448" type="line" smooth="yes"/>
      <point x="630" y="303"/>
      <point x="747" y="186"/>
      <point x="892" y="186" type="curve" smooth="yes"/>
      <point x="1037" y="186"/>
      <point x="1153" y="302"/>
      <point x="1153" y="448" type="curve" smooth="yes"/>
      <point x="1154" y="1435" type="line" smooth="yes"/>
      <point x="1154" y="1551"/>
      <point x="1248" y="1645"/>
      <point x="1364" y="1645" type="curve" smooth="yes"/>
      <point x="1480" y="1645"/>
      <point x="1574" y="1551"/>
      <point x="1574" y="1435" type="curve" smooth="yes"/>
      <point x="1574" y="0" type="line" smooth="yes"/>
      <point x="1574" y="-116"/>
      <point x="1480" y="-210"/>
      <point x="1364" y="-210" type="curve" smooth="yes"/>
      <point x="1307" y="-210"/>
      <point x="1256" y="-188"/>
      <point x="1218" y="-151" type="curve"/>
      <point x="1121" y="-204"/>
      <point x="1010" y="-234"/>
      <point x="892" y="-234" type="curve" smooth="yes"/>
      <point x="515" y="-234"/>
      <point x="210" y="71"/>
    </contour>
  </outline>
</glyph>
<glyph name="v" format="2">
  <advance width="2151"/>
  <unicode hex="0076"/>
  <outline>
    <contour>
      <point x="210" y="1435" type="curve" smooth="yes"/>
      <point x="210" y="1551"/>
      <point x="304" y="1645"/>
      <point x="420" y="1645" type="curve" smooth="yes"/>
      <point x="511" y="1645"/>
      <point x="588" y="1587"/>
      <point x="617" y="1507" type="curve" smooth="yes"/>
      <point x="970" y="538" type="line"/>
      <point x="1324" y="1507" type="line" smooth="yes"/>
      <point x="1353" y="1587"/>
      <point x="1430" y="1645"/>
      <point x="1521" y="1645" type="curve" smooth="yes"/>
      <point x="1637" y="1645"/>
      <point x="1731" y="1551"/>
      <point x="1731" y="1435" type="curve" smooth="yes"/>
      <point x="1731" y="1410"/>
      <point x="1726" y="1385"/>
      <point x="1718" y="1363" type="curve" smooth="yes"/>
      <point x="1195" y="-72" type="line" smooth="yes"/>
      <point x="1165" y="-155"/>
      <point x="1086" y="-210"/>
      <point x="998" y="-210" type="curve" smooth="yes"/>
      <point x="943" y="-210" type="line" smooth="yes"/>
      <point x="855" y="-210"/>
      <point x="776" y="-155"/>
      <point x="746" y="-72" type="curve" smooth="yes"/>
      <point x="223" y="1363" type="line" smooth="yes"/>
      <point x="215" y="1385"/>
      <point x="210" y="1410"/>
    </contour>
  </outline>
</glyph>
<glyph name="w" format="2">
  <advance width="2652"/>
  <unicode hex="0077"/>
  <outline>
    <contour>
      <point x="210" y="1435" type="curve" smooth="yes"/>
      <point x="210" y="1551"/>
      <point x="304" y="1645"/>
      <point x="420" y="1645" type="curve" smooth="yes"/>
      <point x="517" y="1645"/>
      <point x="599" y="1579"/>
      <point x="623" y="1489" type="curve" smooth="yes"/>
      <point x="820" y="755" type="line"/>
      <point x="1003" y="1439" type="line" smooth="yes"/>
      <point x="1027" y="1530"/>
      <point x="1111" y="1595"/>
      <point x="1206" y="1595" type="curve" smooth="yes"/>
      <point x="1236" y="1595" type="line" smooth="yes"/>
      <point x="1331" y="1595"/>
      <point x="1415" y="1531"/>
      <point x="1439" y="1440" type="curve" smooth="yes"/>
      <point x="1622" y="755" type="line"/>
      <point x="1819" y="1489" type="line" smooth="yes"/>
      <point x="1843" y="1579"/>
      <point x="1925" y="1645"/>
      <point x="2022" y="1645" type="curve" smooth="yes"/>
      <point x="2138" y="1645"/>
      <point x="2232" y="1551"/>
      <point x="2232" y="1435" type="curve" smooth="yes"/>
      <point x="2232" y="1416"/>
      <point x="2230" y="1398"/>
      <point x="2225" y="1381" type="curve" smooth="yes"/>
      <point x="1840" y="-55" type="line" smooth="yes"/>
      <point x="1815" y="-146"/>
      <point x="1732" y="-210"/>
      <point x="1637" y="-210" type="curve" smooth="yes"/>
      <point x="1607" y="-210" type="line" smooth="yes"/>
      <point x="1512" y="-210"/>
      <point x="1428" y="-145"/>
      <point x="1404" y="-54" type="curve" smooth="yes"/>
      <point x="1221" y="629" type="line"/>
      <point x="1038" y="-55" type="line" smooth="yes"/>
      <point x="1014" y="-146"/>
      <point x="930" y="-210"/>
      <point x="835" y="-210" type="curve" smooth="yes"/>
      <point x="805" y="-210" type="line" smooth="yes"/>
      <point x="710" y="-210"/>
      <point x="627" y="-145"/>
      <point x="602" y="-54" type="curve" smooth="yes"/>
      <point x="217" y="1381" type="line" smooth="yes"/>
      <point x="212" y="1398"/>
      <point x="210" y="1416"/>
    </contour>
  </outline>
</glyph>
<glyph name="x" format="2">
  <advance width="2084"/>
  <unicode hex="0078"/>
  <outline>
    <contour>
      <point x="210" y="0" type="curve" smooth="yes"/>
      <point x="210" y="45"/>
      <point x="224" y="86"/>
      <point x="248" y="120" type="curve" smooth="yes"/>
      <point x="681" y="739" type="line"/>
      <point x="279" y="1315" type="line" smooth="yes"/>
      <point x="255" y="1349"/>
      <point x="241" y="1390"/>
      <point x="241" y="1435" type="curve" smooth="yes"/>
      <point x="241" y="1551"/>
      <point x="335" y="1645"/>
      <point x="451" y="1645" type="curve" smooth="yes"/>
      <point x="522" y="1645"/>
      <point x="585" y="1609"/>
      <point x="623" y="1555" type="curve" smooth="yes"/>
      <point x="937" y="1106" type="line"/>
      <point x="1252" y="1556" type="line" smooth="yes"/>
      <point x="1290" y="1610"/>
      <point x="1353" y="1645"/>
      <point x="1424" y="1645" type="curve" smooth="yes"/>
      <point x="1540" y="1645"/>
      <point x="1634" y="1551"/>
      <point x="1634" y="1435" type="curve" smooth="yes"/>
      <point x="1634" y="1390"/>
      <point x="1620" y="1349"/>
      <point x="1596" y="1315" type="curve" smooth="yes"/>
      <point x="1194" y="739" type="line"/>
      <point x="1626" y="120" type="line" smooth="yes"/>
      <point x="1650" y="86"/>
      <point x="1664" y="45"/>
      <point x="1664" y="0" type="curve" smooth="yes"/>
      <point x="1664" y="-116"/>
      <point x="1570" y="-210"/>
      <point x="1454" y="-210" type="curve" smooth="yes"/>
      <point x="1383" y="-210"/>
      <point x="1320" y="-174"/>
      <point x="1282" y="-120" type="curve" smooth="yes"/>
      <point x="937" y="373" type="line"/>
      <point x="592" y="-121" type="line" smooth="yes"/>
      <point x="554" y="-175"/>
      <point x="491" y="-210"/>
      <point x="420" y="-210" type="curve" smooth="yes"/>
      <point x="304" y="-210"/>
      <point x="210" y="-116"/>
    </contour>
  </outline>
</glyph>
<glyph name="y" format="2">
  <advance width="2151"/>
  <unicode hex="0079"/>
  <outline>
    <contour>
      <point x="105" y="-83" type="curve" smooth="yes"/>
      <point x="105" y="33"/>
      <point x="199" y="127"/>
      <point x="315" y="127" type="curve" smooth="yes"/>
      <point x="431" y="127"/>
      <point x="525" y="33"/>
      <point x="525" y="-83" type="curve" smooth="yes"/>
      <point x="525" y="-122"/>
      <point x="556" y="-153"/>
      <point x="595" y="-153" type="curve" smooth="yes"/>
      <point x="630" y="-153"/>
      <point x="683" y="-142"/>
      <point x="740" y="-56" type="curve"/>
      <point x="223" y="1363" type="line" smooth="yes"/>
      <point x="215" y="1386"/>
      <point x="210" y="1410"/>
      <point x="210" y="1435" type="curve" smooth="yes"/>
      <point x="210" y="1551"/>
      <point x="304" y="1645"/>
      <point x="420" y="1645" type="curve" smooth="yes"/>
      <point x="511" y="1645"/>
      <point x="588" y="1588"/>
      <point x="617" y="1507" type="curve" smooth="yes"/>
      <point x="970" y="538" type="line"/>
      <point x="1324" y="1507" type="line" smooth="yes"/>
      <point x="1353" y="1588"/>
      <point x="1430" y="1645"/>
      <point x="1521" y="1645" type="curve" smooth="yes"/>
      <point x="1637" y="1645"/>
      <point x="1731" y="1551"/>
      <point x="1731" y="1435" type="curve" smooth="yes"/>
      <point x="1731" y="1410"/>
      <point x="1726" y="1386"/>
      <point x="1718" y="1363" type="curve" smooth="yes"/>
      <point x="1196" y="-72" type="line" smooth="yes"/>
      <point x="1133" y="-245"/>
      <point x="965" y="-573"/>
      <point x="595" y="-573" type="curve" smooth="yes"/>
      <point x="324" y="-573"/>
      <point x="105" y="-354"/>
    </contour>
  </outline>
</glyph>
<glyph name="z" format="2">
  <advance width="2084"/>
  <unicode hex="007A"/>
  <outline>
    <contour>
      <point x="210" y="-0" type="curve" smooth="yes"/>
      <point x="210" y="13"/>
      <point x="211" y="67"/>
      <point x="248" y="120" type="curve" smooth="yes"/>
      <point x="1021" y="1225" type="line"/>
      <point x="450" y="1225" type="line" smooth="yes"/>
      <point x="334" y="1225"/>
      <point x="240" y="1319"/>
      <point x="240" y="1435" type="curve" smooth="yes"/>
      <point x="240" y="1551"/>
      <point x="334" y="1645"/>
      <point x="450" y="1645" type="curve" smooth="yes"/>
      <point x="1424" y="1645" type="line" smooth="yes"/>
      <point x="1540" y="1645"/>
      <point x="1634" y="1550"/>
      <point x="1634" y="1435" type="curve" smooth="yes"/>
      <point x="1634" y="1422"/>
      <point x="1633" y="1368"/>
      <point x="1596" y="1315" type="curve" smooth="yes"/>
      <point x="823" y="210" type="line"/>
      <point x="1454" y="210" type="line" smooth="yes"/>
      <point x="1570" y="210"/>
      <point x="1664" y="116"/>
      <point x="1664" y="0" type="curve" smooth="yes"/>
      <point x="1664" y="-116"/>
      <point x="1570" y="-210"/>
      <point x="1454" y="-210" type="curve" smooth="yes"/>
      <point x="420" y="-210" type="line" smooth="yes"/>
      <point x="304" y="-210"/>
      <point x="210" y="-115"/>
    </contour>
  </outline>
</glyph>
<glyph name="braceleft" format="2">
  <advance width="1890"/>
  <unicode hex="007B"/>
  <outline>
    <contour>
      <point x="-57281" y="-56269" type="curve" smooth="yes"/>
      <point x="-57281" y="-41426"/>
      <point x="-51596" y="-26585"/>
      <point x="-40240" y="-15311" type="curve" smooth="yes"/>
      <point x="-28991" y="-4143"/>
      <point x="-14284" y="1435"/>
      <point x="420" y="1435" type="curve" smooth="yes"/>
      <point x="560" y="1435" type="line" smooth="yes"/>
      <point x="573" y="1435"/>
      <point x="603" y="1454"/>
      <point x="621" y="1485" type="curve" smooth="yes"/>
      <point x="627" y="1495"/>
      <point x="629" y="1504"/>
      <point x="630" y="1505" type="curve" smooth="yes"/>
      <point x="630" y="2310" type="line" smooth="yes"/>
      <point x="630" y="2658"/>
      <point x="912" y="2940"/>
      <point x="1260" y="2940" type="curve" smooth="yes"/>
      <point x="1376" y="2940"/>
      <point x="1470" y="2846"/>
      <point x="1470" y="2730" type="curve" smooth="yes"/>
      <point x="1470" y="2614"/>
      <point x="1376" y="2520"/>
      <point x="1260" y="2520" type="curve" smooth="yes"/>
      <point x="1144" y="2520"/>
      <point x="1050" y="2426"/>
      <point x="1050" y="2310" type="curve" smooth="yes"/>
      <point x="1050" y="1505" type="line" smooth="yes"/>
      <point x="1050" y="1448"/>
      <point x="1037" y="1340"/>
      <point x="952" y="1225" type="curve"/>
      <point x="990" y="1173"/>
      <point x="1050" y="1072"/>
      <point x="1050" y="945" type="curve" smooth="yes"/>
      <point x="1050" y="140" type="line" smooth="yes"/>
      <point x="1050" y="24"/>
      <point x="1144" y="-70"/>
      <point x="1260" y="-70" type="curve" smooth="yes"/>
      <point x="1376" y="-70"/>
      <point x="1470" y="-164"/>
      <point x="1470" y="-280" type="curve" smooth="yes"/>
      <point x="1470" y="-396"/>
      <point x="1376" y="-490"/>
      <point x="1260" y="-490" type="curve" smooth="yes"/>
      <point x="912" y="-490"/>
      <point x="630" y="-208"/>
      <point x="630" y="140" type="curve" smooth="yes"/>
      <point x="630" y="943" type="line"/>
      <point x="625" y="971"/>
      <point x="586" y="1014"/>
      <point x="558" y="1014" type="curve"/>
      <point x="-0" y="-113960" type="line"/>
      <point x="-14703" y="-113855"/>
      <point x="-29370" y="-108172"/>
      <point x="-40537" y="-96924" type="curve" smooth="yes"/>
      <point x="-51703" y="-85677"/>
      <point x="-57281" y="-70971"/>
    </contour>
  </outline>
</glyph>
<glyph name="bar" format="2">
  <advance width="1050"/>
  <unicode hex="007C"/>
  <outline>
    <contour>
      <point x="210" y="-420" type="curve" smooth="yes"/>
      <point x="210" y="2800" type="line" smooth="yes"/>
      <point x="210" y="2916"/>
      <point x="304" y="3010"/>
      <point x="420" y="3010" type="curve" smooth="yes"/>
      <point x="536" y="3010"/>
      <point x="630" y="2916"/>
      <point x="630" y="2800" type="curve" smooth="yes"/>
      <point x="630" y="-420" type="line" smooth="yes"/>
      <point x="630" y="-536"/>
      <point x="536" y="-630"/>
      <point x="420" y="-630" type="curve" smooth="yes"/>
      <point x="304" y="-630"/>
      <point x="210" y="-536"/>
    </contour>
  </outline>
</glyph>
<glyph name="braceright" format="2">
  <advance width="1890"/>
  <unicode hex="007D"/>
  <outline>
    <contour>
      <point x="1260" y="1435" type="line" smooth="yes"/>
      <point x="1277" y="1435"/>
      <point x="1326" y="1426"/>
      <point x="1326" y="1323" type="curve" smooth="yes"/>
      <point x="1326" y="1295"/>
      <point x="1321" y="1202"/>
      <point x="1260" y="1085" type="curve"/>
      <point x="1260" y="1015" type="line"/>
      <point x="1217" y="1015" type="line"/>
      <point x="1174" y="956"/>
      <point x="1126" y="919"/>
      <point x="1088" y="919" type="curve"/>
      <point x="1122" y="1014" type="line"/>
      <point x="1121" y="1014"/>
      <point x="1121" y="1014"/>
      <point x="1120" y="1014" type="curve" smooth="yes"/>
      <point x="1098" y="1014"/>
      <point x="1057" y="976"/>
      <point x="1050" y="943" type="curve"/>
      <point x="1050" y="140" type="line" smooth="yes"/>
      <point x="1050" y="-208"/>
      <point x="768" y="-490"/>
      <point x="420" y="-490" type="curve" smooth="yes"/>
      <point x="304" y="-490"/>
      <point x="210" y="-396"/>
      <point x="210" y="-280" type="curve" smooth="yes"/>
      <point x="210" y="-164"/>
      <point x="304" y="-70"/>
      <point x="420" y="-70" type="curve" smooth="yes"/>
      <point x="536" y="-70"/>
      <point x="630" y="24"/>
      <point x="630" y="140" type="curve" smooth="yes"/>
      <point x="630" y="945" type="line" smooth="yes"/>
      <point x="630" y="1002"/>
      <point x="643" y="1110"/>
      <point x="728" y="1225" type="curve"/>
      <point x="690" y="1277"/>
      <point x="630" y="1379"/>
      <point x="630" y="1505" type="curve" smooth="yes"/>
      <point x="630" y="2310" type="line" smooth="yes"/>
      <point x="630" y="2426"/>
      <point x="536" y="2520"/>
      <point x="420" y="2520" type="curve" smooth="yes"/>
      <point x="304" y="2520"/>
      <point x="210" y="2614"/>
      <point x="210" y="2730" type="curve" smooth="yes"/>
      <point x="210" y="2846"/>
      <point x="304" y="2940"/>
      <point x="420" y="2940" type="curve" smooth="yes"/>
      <point x="768" y="2940"/>
      <point x="1050" y="2658"/>
      <point x="1050" y="2310" type="curve" smooth="yes"/>
      <point x="1050" y="1507" type="line"/>
      <point x="1056" y="1478"/>
      <point x="1097" y="1435"/>
      <point x="1120" y="1435" type="curve" smooth="yes"/>
    </contour>
  </outline>
</glyph>
<glyph name="cent" format="2">
  <advance width="2058"/>
  <unicode hex="00A2"/>
  <outline>
    <contour>
      <point x="1175" y="1711" type="curve"/>
      <point x="1529" y="1578"/>
      <point x="1599" y="1182"/>
      <point x="1599" y="1093" type="curve" smooth="yes"/>
      <point x="1599" y="977"/>
      <point x="1505" y="883"/>
      <point x="1389" y="883" type="curve" smooth="yes"/>
      <point x="1282" y="883"/>
      <point x="1193" y="963"/>
      <point x="1180" y="1067" type="curve" smooth="yes"/>
      <point x="1177" y="1088"/>
      <point x="1174" y="1110"/>
      <point x="1169" y="1129" type="curve"/>
      <point x="1160" y="297" type="line"/>
      <point x="1170" y="312"/>
      <point x="1211" y="371"/>
      <point x="1219" y="465" type="curve" smooth="yes"/>
      <point x="1228" y="573"/>
      <point x="1318" y="658"/>
      <point x="1428" y="658" type="curve" smooth="yes"/>
      <point x="1544" y="658"/>
      <point x="1638" y="564"/>
      <point x="1638" y="448" type="curve" smooth="yes"/>
      <point x="1638" y="285"/>
      <point x="1522" y="-88"/>
      <point x="1155" y="-204" type="curve"/>
      <point x="1153" y="-429"/>
      <point x="990" y="-444"/>
      <point x="945" y="-444" type="curve" smooth="yes"/>
      <point x="829" y="-444"/>
      <point x="735" y="-350"/>
      <point x="735" y="-234" type="curve" smooth="yes"/>
      <point x="735" y="-233"/>
      <point x="735" y="-233"/>
      <point x="735" y="-191" type="curve"/>
      <point x="422" y="-65"/>
      <point x="210" y="316"/>
      <point x="210" y="758" type="curve" smooth="yes"/>
      <point x="210" y="889"/>
      <point x="235" y="1324"/>
      <point x="549" y="1593" type="curve" smooth="yes"/>
      <point x="609" y="1645"/>
      <point x="679" y="1686"/>
      <point x="755" y="1714" type="curve"/>
      <point x="755" y="1757" type="line" smooth="yes"/>
      <point x="756" y="1872"/>
      <point x="850" y="1965"/>
      <point x="965" y="1965" type="curve" smooth="yes"/>
      <point x="1081" y="1965"/>
      <point x="1175" y="1871"/>
      <point x="1175" y="1755" type="curve" smooth="yes"/>
      <point x="1175" y="1754"/>
      <point x="1175" y="1754"/>
    </contour>
    <contour>
      <point x="749" y="1190" type="line"/>
      <point x="711" y="1134"/>
      <point x="630" y="988"/>
      <point x="630" y="758" type="curve" smooth="yes"/>
      <point x="630" y="606"/>
      <point x="668" y="453"/>
      <point x="741" y="339" type="curve"/>
    </contour>
  </outline>
</glyph>
<glyph name="sterling" format="2">
  <advance width="2731"/>
  <unicode hex="00A3"/>
  <outline>
    <contour>
      <point x="210" y="1380" type="curve" smooth="yes"/>
      <point x="210" y="1496"/>
      <point x="303" y="1590"/>
      <point x="419" y="1590" type="curve" smooth="yes"/>
      <point x="630" y="1591" type="line"/>
      <point x="630" y="1890" type="line" smooth="yes"/>
      <point x="630" y="2354"/>
      <point x="1007" y="2730"/>
      <point x="1471" y="2730" type="curve" smooth="yes"/>
      <point x="1935" y="2730"/>
      <point x="2311" y="2354"/>
      <point x="2311" y="1890" type="curve" smooth="yes"/>
      <point x="2311" y="1835" type="line" smooth="yes"/>
      <point x="2311" y="1719"/>
      <point x="2217" y="1625"/>
      <point x="2101" y="1625" type="curve" smooth="yes"/>
      <point x="1985" y="1625"/>
      <point x="1891" y="1719"/>
      <point x="1891" y="1835" type="curve" smooth="yes"/>
      <point x="1891" y="1890" type="line" smooth="yes"/>
      <point x="1891" y="2122"/>
      <point x="1703" y="2310"/>
      <point x="1471" y="2310" type="curve" smooth="yes"/>
      <point x="1239" y="2310"/>
      <point x="1050" y="2122"/>
      <point x="1050" y="1890" type="curve" smooth="yes"/>
      <point x="1050" y="1591" type="line"/>
      <point x="1470" y="1590" type="line" smooth="yes"/>
      <point x="1586" y="1590"/>
      <point x="1680" y="1496"/>
      <point x="1680" y="1380" type="curve" smooth="yes"/>
      <point x="1680" y="1264"/>
      <point x="1586" y="1170"/>
      <point x="1470" y="1170" type="curve" smooth="yes"/>
      <point x="1470" y="1170"/>
      <point x="1273" y="1170"/>
      <point x="1050" y="1170" type="curve"/>
      <point x="1050" y="420" type="line" smooth="yes"/>
      <point x="1050" y="346"/>
      <point x="1037" y="276"/>
      <point x="1014" y="210" type="curve"/>
      <point x="2101" y="210" type="line" smooth="yes"/>
      <point x="2217" y="210"/>
      <point x="2311" y="116"/>
      <point x="2311" y="0" type="curve" smooth="yes"/>
      <point x="2311" y="-116"/>
      <point x="2217" y="-210"/>
      <point x="2101" y="-210" type="curve" smooth="yes"/>
      <point x="420" y="-210" type="line" smooth="yes"/>
      <point x="305" y="-210"/>
      <point x="210" y="-117"/>
      <point x="210" y="0" type="curve"/>
      <point x="210" y="1" type="line"/>
      <point x="210" y="118"/>
      <point x="305" y="211"/>
      <point x="420" y="211" type="curve" smooth="yes"/>
      <point x="537" y="211"/>
      <point x="630" y="304"/>
      <point x="630" y="420" type="curve" smooth="yes"/>
      <point x="630" y="670"/>
      <point x="630" y="920"/>
      <point x="630" y="1170" type="curve"/>
      <point x="507" y="1170"/>
      <point x="420" y="1170"/>
      <point x="420" y="1170" type="curve" smooth="yes"/>
      <point x="304" y="1170"/>
      <point x="210" y="1264"/>
    </contour>
  </outline>
</glyph>
<glyph name="yen" format="2">
  <advance width="2704"/>
  <unicode hex="00A5"/>
  <outline>
    <contour>
      <point x="1248" y="-210" type="curve"/>
      <point x="1083" y="-203"/>
      <point x="1037" y="-71"/>
      <point x="1037" y="0" type="curve" smooth="yes"/>
      <point x="1037" y="498" type="line"/>
      <point x="420" y="498" type="line" smooth="yes"/>
      <point x="304" y="498"/>
      <point x="210" y="592"/>
      <point x="210" y="708" type="curve" smooth="yes"/>
      <point x="210" y="824"/>
      <point x="304" y="918"/>
      <point x="420" y="918" type="curve" smooth="yes"/>
      <point x="1037" y="918" type="line"/>
      <point x="1037" y="1023" type="line"/>
      <point x="420" y="1023" type="line" smooth="yes"/>
      <point x="304" y="1023"/>
      <point x="210" y="1117"/>
      <point x="210" y="1233" type="curve" smooth="yes"/>
      <point x="210" y="1349"/>
      <point x="304" y="1443"/>
      <point x="420" y="1443" type="curve" smooth="yes"/>
      <point x="918" y="1443" type="line"/>
      <point x="248" y="2400" type="line" smooth="yes"/>
      <point x="224" y="2434"/>
      <point x="210" y="2475"/>
      <point x="210" y="2520" type="curve" smooth="yes"/>
      <point x="210" y="2636"/>
      <point x="304" y="2730"/>
      <point x="420" y="2730" type="curve" smooth="yes"/>
      <point x="491" y="2730"/>
      <point x="554" y="2695"/>
      <point x="592" y="2641" type="curve" smooth="yes"/>
      <point x="1247" y="1705" type="line"/>
      <point x="1902" y="2641" type="line" smooth="yes"/>
      <point x="1940" y="2695"/>
      <point x="2003" y="2730"/>
      <point x="2074" y="2730" type="curve" smooth="yes"/>
      <point x="2190" y="2730"/>
      <point x="2284" y="2636"/>
      <point x="2284" y="2520" type="curve" smooth="yes"/>
      <point x="2284" y="2475"/>
      <point x="2270" y="2434"/>
      <point x="2246" y="2400" type="curve" smooth="yes"/>
      <point x="1577" y="1443" type="line"/>
      <point x="2074" y="1443" type="line" smooth="yes"/>
      <point x="2190" y="1443"/>
      <point x="2284" y="1349"/>
      <point x="2284" y="1233" type="curve" smooth="yes"/>
      <point x="2284" y="1117"/>
      <point x="2190" y="1023"/>
      <point x="2074" y="1023" type="curve" smooth="yes"/>
      <point x="1458" y="1023" type="line"/>
      <point x="1458" y="918" type="line"/>
      <point x="2074" y="918" type="line" smooth="yes"/>
      <point x="2190" y="918"/>
      <point x="2284" y="824"/>
      <point x="2284" y="708" type="curve" smooth="yes"/>
      <point x="2284" y="592"/>
      <point x="2190" y="498"/>
      <point x="2074" y="498" type="curve" smooth="yes"/>
      <point x="1458" y="498" type="line"/>
      <point x="1458" y="-0" type="line" smooth="yes"/>
      <point x="1458" y="-115"/>
      <point x="1365" y="-210"/>
    </contour>
  </outline>
</glyph>
<glyph name="brokenbar" format="2">
  <advance width="1050"/>
  <unicode hex="00A6"/>
  <outline>
    <contour>
      <point x="210" y="-420" type="curve" smooth="yes"/>
      <point x="210" y="875" type="line" smooth="yes"/>
      <point x="210" y="991"/>
      <point x="304" y="1085"/>
      <point x="420" y="1085" type="curve" smooth="yes"/>
      <point x="536" y="1085"/>
      <point x="630" y="991"/>
      <point x="630" y="875" type="curve" smooth="yes"/>
      <point x="630" y="-420" type="line" smooth="yes"/>
      <point x="630" y="-536"/>
      <point x="536" y="-630"/>
      <point x="420" y="-630" type="curve" smooth="yes"/>
      <point x="304" y="-630"/>
      <point x="210" y="-536"/>
    </contour>
    <contour>
      <point x="210" y="1505" type="curve" smooth="yes"/>
      <point x="210" y="2800" type="line" smooth="yes"/>
      <point x="210" y="2916"/>
      <point x="304" y="3010"/>
      <point x="420" y="3010" type="curve" smooth="yes"/>
      <point x="536" y="3010"/>
      <point x="630" y="2916"/>
      <point x="630" y="2800" type="curve" smooth="yes"/>
      <point x="630" y="1505" type="line" smooth="yes"/>
      <point x="630" y="1389"/>
      <point x="536" y="1295"/>
      <point x="420" y="1295" type="curve" smooth="yes"/>
      <point x="304" y="1295"/>
      <point x="210" y="1389"/>
    </contour>
  </outline>
</glyph>
<glyph name="uni00AD" format="2">
  <advance width="1650"/>
  <unicode hex="00AD"/>
  <outline>
    <contour>
      <point x="210" y="1339" type="curve" smooth="yes"/>
      <point x="210" y="1455"/>
      <point x="304" y="1549"/>
      <point x="420" y="1549" type="curve" smooth="yes"/>
      <point x="1020" y="1549" type="line" smooth="yes"/>
      <point x="1136" y="1549"/>
      <point x="1230" y="1455"/>
      <point x="1230" y="1339" type="curve" smooth="yes"/>
      <point x="1230" y="1223"/>
      <point x="1136" y="1129"/>
      <point x="1020" y="1129" type="curve" smooth="yes"/>
      <point x="420" y="1129" type="line" smooth="yes"/>
      <point x="304" y="1129"/>
      <point x="210" y="1223"/>
    </contour>
  </outline>
</glyph>
<glyph name="degree" format="2">
  <advance width="1994"/>
  <unicode hex="00B0"/>
  <outline>
    <contour>
      <point x="210" y="2048" type="curve" smooth="yes"/>
      <point x="210" y="2425"/>
      <point x="515" y="2730"/>
      <point x="892" y="2730" type="curve" smooth="yes"/>
      <point x="1269" y="2730"/>
      <point x="1574" y="2425"/>
      <point x="1574" y="2048" type="curve" smooth="yes"/>
      <point x="1574" y="1671"/>
      <point x="1269" y="1366"/>
      <point x="892" y="1366" type="curve" smooth="yes"/>
      <point x="515" y="1366"/>
      <point x="210" y="1671"/>
    </contour>
    <contour>
      <point x="630" y="2048" type="curve" smooth="yes"/>
      <point x="630" y="1903"/>
      <point x="747" y="1786"/>
      <point x="892" y="1786" type="curve" smooth="yes"/>
      <point x="1037" y="1786"/>
      <point x="1154" y="1903"/>
      <point x="1154" y="2048" type="curve" smooth="yes"/>
      <point x="1154" y="2193"/>
      <point x="1037" y="2310"/>
      <point x="892" y="2310" type="curve" smooth="yes"/>
      <point x="747" y="2310"/>
      <point x="630" y="2193"/>
    </contour>
  </outline>
</glyph>
<glyph name="mu" format="2">
  <advance width="2205"/>
  <unicode hex="00B5"/>
  <outline>
    <contour>
      <point x="210" y="-1004" type="curve" smooth="yes"/>
      <point x="210" y="1435" type="line" smooth="yes"/>
      <point x="210" y="1551"/>
      <point x="304" y="1645"/>
      <point x="420" y="1645" type="curve" smooth="yes"/>
      <point x="536" y="1645"/>
      <point x="630" y="1551"/>
      <point x="630" y="1435" type="curve" smooth="yes"/>
      <point x="631" y="448" type="line" smooth="yes"/>
      <point x="631" y="302"/>
      <point x="747" y="186"/>
      <point x="892" y="186" type="curve" smooth="yes"/>
      <point x="1037" y="186"/>
      <point x="1153" y="302"/>
      <point x="1153" y="448" type="curve" smooth="yes"/>
      <point x="1154" y="1435" type="line" smooth="yes"/>
      <point x="1154" y="1551"/>
      <point x="1248" y="1645"/>
      <point x="1364" y="1645" type="curve" smooth="yes"/>
      <point x="1480" y="1645"/>
      <point x="1574" y="1551"/>
      <point x="1574" y="1435" type="curve" smooth="yes"/>
      <point x="1575" y="268" type="line" smooth="yes"/>
      <point x="1575" y="232"/>
      <point x="1578" y="206"/>
      <point x="1582" y="188" type="curve"/>
      <point x="1617" y="191"/>
      <point x="1648" y="196"/>
      <point x="1648" y="196" type="curve" smooth="yes"/>
      <point x="1655" y="197"/>
      <point x="1666" y="198"/>
      <point x="1680" y="198" type="curve" smooth="yes"/>
      <point x="1796" y="198"/>
      <point x="1890" y="104"/>
      <point x="1890" y="-12" type="curve" smooth="yes"/>
      <point x="1890" y="-117"/>
      <point x="1813" y="-204"/>
      <point x="1712" y="-220" type="curve" smooth="yes"/>
      <point x="1699" y="-222"/>
      <point x="1615" y="-234"/>
      <point x="1535" y="-234" type="curve" smooth="yes"/>
      <point x="1478" y="-234"/>
      <point x="1367" y="-219"/>
      <point x="1275" y="-117" type="curve"/>
      <point x="1166" y="-191"/>
      <point x="1034" y="-234"/>
      <point x="892" y="-234" type="curve" smooth="yes"/>
      <point x="799" y="-234"/>
      <point x="711" y="-216"/>
      <point x="630" y="-182" type="curve"/>
      <point x="630" y="-1004" type="line" smooth="yes"/>
      <point x="630" y="-1120"/>
      <point x="536" y="-1214"/>
      <point x="420" y="-1214" type="curve" smooth="yes"/>
      <point x="304" y="-1214"/>
      <point x="210" y="-1120"/>
    </contour>
  </outline>
</glyph>
<glyph name="periodcentered" format="2">
  <advance width="1260"/>
  <unicode hex="00B7"/>
  <outline>
    <contour>
      <point x="210" y="1338" type="curve" smooth="yes"/>
      <point x="210" y="1512"/>
      <point x="351" y="1653"/>
      <point x="525" y="1653" type="curve" smooth="yes"/>
      <point x="699" y="1653"/>
      <point x="840" y="1512"/>
      <point x="840" y="1338" type="curve" smooth="yes"/>
      <point x="840" y="1164"/>
      <point x="699" y="1023"/>
      <point x="525" y="1023" type="curve" smooth="yes"/>
      <point x="351" y="1023"/>
      <point x="210" y="1164"/>
    </contour>
    <contour>
      <point x="420" y="1338" type="line"/>
      <point x="525" y="1233" type="line"/>
      <point x="630" y="1338" type="line"/>
      <point x="525" y="1443" type="line"/>
    </contour>
  </outline>
</glyph>
<glyph name="ordmasculine" format="2">
  <advance width="2012"/>
  <unicode hex="00BA"/>
  <outline>
    <contour>
      <point x="210" y="504" type="curve" smooth="yes"/>
      <point x="210" y="620"/>
      <point x="304" y="714"/>
      <point x="420" y="714" type="curve" smooth="yes"/>
      <point x="1382" y="714" type="line" smooth="yes"/>
      <point x="1498" y="714"/>
      <point x="1592" y="620"/>
      <point x="1592" y="504" type="curve" smooth="yes"/>
      <point x="1592" y="388"/>
      <point x="1498" y="294"/>
      <point x="1382" y="294" type="curve" smooth="yes"/>
      <point x="420" y="294" type="line" smooth="yes"/>
      <point x="304" y="294"/>
      <point x="210" y="388"/>
    </contour>
    <contour>
      <point x="210" y="1851" type="curve" smooth="yes"/>
      <point x="210" y="2342"/>
      <point x="518" y="2730"/>
      <point x="901" y="2730" type="curve" smooth="yes"/>
      <point x="1284" y="2730"/>
      <point x="1592" y="2342"/>
      <point x="1592" y="1851" type="curve" smooth="yes"/>
      <point x="1592" y="1360"/>
      <point x="1284" y="972"/>
      <point x="901" y="972" type="curve" smooth="yes"/>
      <point x="518" y="972"/>
      <point x="210" y="1360"/>
    </contour>
    <contour>
      <point x="630" y="1851" type="curve" smooth="yes"/>
      <point x="630" y="1594"/>
      <point x="767" y="1392"/>
      <point x="901" y="1392" type="curve" smooth="yes"/>
      <point x="1035" y="1392"/>
      <point x="1172" y="1594"/>
      <point x="1172" y="1851" type="curve" smooth="yes"/>
      <point x="1172" y="2108"/>
      <point x="1035" y="2310"/>
      <point x="901" y="2310" type="curve" smooth="yes"/>
      <point x="767" y="2310"/>
      <point x="630" y="2108"/>
    </contour>
  </outline>
</glyph>
<glyph name="multiply" format="2">
  <advance width="2250"/>
  <unicode hex="00D7"/>
  <outline>
    <contour>
      <point x="210" y="1938" type="curve" smooth="yes"/>
      <point x="210" y="2054"/>
      <point x="304" y="2148"/>
      <point x="420" y="2148" type="curve" smooth="yes"/>
      <point x="478" y="2148"/>
      <point x="530" y="2124"/>
      <point x="568" y="2086" type="curve" smooth="yes"/>
      <point x="1020" y="1635" type="line"/>
      <point x="1472" y="2086" type="line" smooth="yes"/>
      <point x="1510" y="2124"/>
      <point x="1562" y="2148"/>
      <point x="1620" y="2148" type="curve" smooth="yes"/>
      <point x="1736" y="2148"/>
      <point x="1830" y="2054"/>
      <point x="1830" y="1938" type="curve" smooth="yes"/>
      <point x="1830" y="1880"/>
      <point x="1807" y="1828"/>
      <point x="1769" y="1790" type="curve" smooth="yes"/>
      <point x="1318" y="1338" type="line"/>
      <point x="1769" y="886" type="line" smooth="yes"/>
      <point x="1807" y="848"/>
      <point x="1830" y="796"/>
      <point x="1830" y="738" type="curve" smooth="yes"/>
      <point x="1830" y="622"/>
      <point x="1736" y="528"/>
      <point x="1620" y="528" type="curve" smooth="yes"/>
      <point x="1562" y="528"/>
      <point x="1510" y="552"/>
      <point x="1472" y="590" type="curve" smooth="yes"/>
      <point x="1020" y="1041" type="line"/>
      <point x="568" y="590" type="line" smooth="yes"/>
      <point x="530" y="552"/>
      <point x="478" y="528"/>
      <point x="420" y="528" type="curve" smooth="yes"/>
      <point x="304" y="528"/>
      <point x="210" y="622"/>
      <point x="210" y="738" type="curve" smooth="yes"/>
      <point x="210" y="796"/>
      <point x="234" y="848"/>
      <point x="272" y="886" type="curve" smooth="yes"/>
      <point x="723" y="1338" type="line"/>
      <point x="272" y="1790" type="line" smooth="yes"/>
      <point x="234" y="1828"/>
      <point x="210" y="1880"/>
    </contour>
  </outline>
</glyph>
<glyph name="divide" format="2">
  <advance width="2250"/>
  <unicode hex="00F7"/>
  <outline>
    <contour>
      <point x="210" y="1339" type="curve" smooth="yes"/>
      <point x="210" y="1455"/>
      <point x="304" y="1549"/>
      <point x="420" y="1549" type="curve" smooth="yes"/>
      <point x="884" y="1549" type="line"/>
      <point x="778" y="1600"/>
      <point x="705" y="1708"/>
      <point x="705" y="1833" type="curve" smooth="yes"/>
      <point x="705" y="2007"/>
      <point x="846" y="2148"/>
      <point x="1020" y="2148" type="curve" smooth="yes"/>
      <point x="1194" y="2148"/>
      <point x="1335" y="2007"/>
      <point x="1335" y="1833" type="curve" smooth="yes"/>
      <point x="1335" y="1708"/>
      <point x="1262" y="1600"/>
      <point x="1156" y="1549" type="curve"/>
      <point x="1620" y="1549" type="line" smooth="yes"/>
      <point x="1736" y="1549"/>
      <point x="1830" y="1455"/>
      <point x="1830" y="1339" type="curve" smooth="yes"/>
      <point x="1830" y="1223"/>
      <point x="1736" y="1129"/>
      <point x="1620" y="1129" type="curve" smooth="yes"/>
      <point x="1152" y="1129" type="line"/>
      <point x="1260" y="1079"/>
      <point x="1335" y="970"/>
      <point x="1335" y="843" type="curve" smooth="yes"/>
      <point x="1335" y="669"/>
      <point x="1194" y="528"/>
      <point x="1020" y="528" type="curve" smooth="yes"/>
      <point x="846" y="528"/>
      <point x="705" y="669"/>
      <point x="705" y="843" type="curve" smooth="yes"/>
      <point x="705" y="970"/>
      <point x="780" y="1079"/>
      <point x="888" y="1129" type="curve"/>
      <point x="420" y="1129" type="line" smooth="yes"/>
      <point x="304" y="1129"/>
      <point x="210" y="1223"/>
    </contour>
    <contour>
      <point x="915" y="843" type="line"/>
      <point x="1020" y="738" type="line"/>
      <point x="1125" y="843" type="line"/>
      <point x="1020" y="948" type="line"/>
    </contour>
    <contour>
      <point x="915" y="1833" type="line"/>
      <point x="1020" y="1728" type="line"/>
      <point x="1125" y="1833" type="line"/>
      <point x="1020" y="1938" type="line"/>
    </contour>
  </outline>
</glyph>
<glyph name="endash" format="2">
  <advance width="2680"/>
  <unicode hex="2013"/>
  <outline>
    <contour>
      <point x="210" y="1338" type="curve" smooth="yes"/>
      <point x="210" y="1454"/>
      <point x="304" y="1548"/>
      <point x="420" y="1548" type="curve" smooth="yes"/>
      <point x="2050" y="1548" type="line" smooth="yes"/>
      <point x="2166" y="1548"/>
      <point x="2260" y="1454"/>
      <point x="2260" y="1338" type="curve" smooth="yes"/>
      <point x="2260" y="1222"/>
      <point x="2166" y="1128"/>
      <point x="2050" y="1128" type="curve" smooth="yes"/>
      <point x="420" y="1128" type="line" smooth="yes"/>
      <point x="304" y="1128"/>
      <point x="210" y="1222"/>
    </contour>
  </outline>
</glyph>
<glyph name="emdash" format="2">
  <advance width="3011"/>
  <unicode hex="2014"/>
  <outline>
    <contour>
      <point x="210" y="1338" type="curve" smooth="yes"/>
      <point x="210" y="1454"/>
      <point x="304" y="1548"/>
      <point x="420" y="1548" type="curve" smooth="yes"/>
      <point x="2381" y="1548" type="line" smooth="yes"/>
      <point x="2497" y="1548"/>
      <point x="2591" y="1454"/>
      <point x="2591" y="1338" type="curve" smooth="yes"/>
      <point x="2591" y="1222"/>
      <point x="2497" y="1128"/>
      <point x="2381" y="1128" type="curve" smooth="yes"/>
      <point x="420" y="1128" type="line" smooth="yes"/>
      <point x="304" y="1128"/>
      <point x="210" y="1222"/>
    </contour>
  </outline>
</glyph>
<glyph name="quoteleft" format="2">
  <advance width="1260"/>
  <unicode hex="2018"/>
  <outline>
    <contour>
      <point x="210" y="2100" type="curve" smooth="yes"/>
      <point x="210" y="2421"/>
      <point x="495" y="2659"/>
      <point x="524" y="2683" type="curve" smooth="yes"/>
      <point x="560" y="2712"/>
      <point x="606" y="2730"/>
      <point x="656" y="2730" type="curve" smooth="yes"/>
      <point x="772" y="2730"/>
      <point x="866" y="2636"/>
      <point x="866" y="2520" type="curve" smooth="yes"/>
      <point x="866" y="2454"/>
      <point x="836" y="2397"/>
      <point x="789" y="2358" type="curve" smooth="yes"/>
      <point x="781" y="2352"/>
      <point x="766" y="2337"/>
      <point x="750" y="2320" type="curve"/>
      <point x="806" y="2263"/>
      <point x="840" y="2186"/>
      <point x="840" y="2100" type="curve" smooth="yes"/>
      <point x="840" y="1926"/>
      <point x="699" y="1785"/>
      <point x="525" y="1785" type="curve" smooth="yes"/>
      <point x="351" y="1785"/>
      <point x="210" y="1926"/>
    </contour>
  </outline>
</glyph>
<glyph name="quoteright" format="2">
  <advance width="1260"/>
  <unicode hex="2019"/>
  <outline>
    <contour>
      <point x="183" y="1994" type="curve" smooth="yes"/>
      <point x="183" y="2060"/>
      <point x="214" y="2118"/>
      <point x="261" y="2157" type="curve" smooth="yes"/>
      <point x="269" y="2164"/>
      <point x="284" y="2178"/>
      <point x="300" y="2195" type="curve"/>
      <point x="244" y="2252"/>
      <point x="210" y="2329"/>
      <point x="210" y="2415" type="curve" smooth="yes"/>
      <point x="210" y="2589"/>
      <point x="351" y="2730"/>
      <point x="525" y="2730" type="curve" smooth="yes"/>
      <point x="699" y="2730"/>
      <point x="840" y="2589"/>
      <point x="840" y="2415" type="curve" smooth="yes"/>
      <point x="840" y="2095"/>
      <point x="558" y="1858"/>
      <point x="526" y="1832" type="curve" smooth="yes"/>
      <point x="490" y="1802"/>
      <point x="443" y="1785"/>
      <point x="393" y="1785" type="curve" smooth="yes"/>
      <point x="277" y="1785"/>
      <point x="183" y="1878"/>
    </contour>
  </outline>
</glyph>
<glyph name="quotedblleft" format="2">
  <advance width="2100"/>
  <unicode hex="201C"/>
  <outline>
    <contour>
      <point x="210" y="2100" type="curve" smooth="yes"/>
      <point x="210" y="2421"/>
      <point x="495" y="2659"/>
      <point x="524" y="2683" type="curve" smooth="yes"/>
      <point x="560" y="2712"/>
      <point x="606" y="2730"/>
      <point x="656" y="2730" type="curve" smooth="yes"/>
      <point x="772" y="2730"/>
      <point x="866" y="2636"/>
      <point x="866" y="2520" type="curve" smooth="yes"/>
      <point x="866" y="2454"/>
      <point x="836" y="2397"/>
      <point x="789" y="2358" type="curve" smooth="yes"/>
      <point x="781" y="2352"/>
      <point x="766" y="2337"/>
      <point x="750" y="2320" type="curve"/>
      <point x="806" y="2263"/>
      <point x="840" y="2186"/>
      <point x="840" y="2100" type="curve" smooth="yes"/>
      <point x="840" y="1926"/>
      <point x="699" y="1785"/>
      <point x="525" y="1785" type="curve" smooth="yes"/>
      <point x="351" y="1785"/>
      <point x="210" y="1926"/>
    </contour>
    <contour>
      <point x="1050" y="2100" type="curve" smooth="yes"/>
      <point x="1050" y="2421"/>
      <point x="1335" y="2659"/>
      <point x="1364" y="2683" type="curve" smooth="yes"/>
      <point x="1400" y="2712"/>
      <point x="1446" y="2730"/>
      <point x="1496" y="2730" type="curve" smooth="yes"/>
      <point x="1612" y="2730"/>
      <point x="1706" y="2636"/>
      <point x="1706" y="2520" type="curve" smooth="yes"/>
      <point x="1706" y="2454"/>
      <point x="1676" y="2397"/>
      <point x="1629" y="2358" type="curve" smooth="yes"/>
      <point x="1621" y="2352"/>
      <point x="1606" y="2337"/>
      <point x="1590" y="2320" type="curve"/>
      <point x="1646" y="2263"/>
      <point x="1680" y="2186"/>
      <point x="1680" y="2100" type="curve" smooth="yes"/>
      <point x="1680" y="1926"/>
      <point x="1539" y="1785"/>
      <point x="1365" y="1785" type="curve" smooth="yes"/>
      <point x="1191" y="1785"/>
      <point x="1050" y="1926"/>
    </contour>
  </outline>
</glyph>
<glyph name="quotedblright" format="2">
  <advance width="2100"/>
  <unicode hex="201D"/>
  <outline>
    <contour>
      <point x="182" y="1994" type="curve" smooth="yes"/>
      <point x="182" y="2060"/>
      <point x="213" y="2118"/>
      <point x="260" y="2157" type="curve" smooth="yes"/>
      <point x="268" y="2164"/>
      <point x="283" y="2178"/>
      <point x="299" y="2195" type="curve"/>
      <point x="243" y="2252"/>
      <point x="209" y="2329"/>
      <point x="209" y="2415" type="curve" smooth="yes"/>
      <point x="209" y="2589"/>
      <point x="350" y="2730"/>
      <point x="524" y="2730" type="curve" smooth="yes"/>
      <point x="698" y="2730"/>
      <point x="839" y="2589"/>
      <point x="839" y="2415" type="curve" smooth="yes"/>
      <point x="839" y="2095"/>
      <point x="557" y="1858"/>
      <point x="525" y="1832" type="curve" smooth="yes"/>
      <point x="489" y="1802"/>
      <point x="442" y="1785"/>
      <point x="392" y="1785" type="curve" smooth="yes"/>
      <point x="276" y="1785"/>
      <point x="182" y="1878"/>
    </contour>
    <contour>
      <point x="1022" y="1994" type="curve" smooth="yes"/>
      <point x="1022" y="2060"/>
      <point x="1053" y="2118"/>
      <point x="1100" y="2157" type="curve" smooth="yes"/>
      <point x="1108" y="2164"/>
      <point x="1123" y="2178"/>
      <point x="1139" y="2195" type="curve"/>
      <point x="1083" y="2252"/>
      <point x="1049" y="2329"/>
      <point x="1049" y="2415" type="curve" smooth="yes"/>
      <point x="1049" y="2589"/>
      <point x="1190" y="2730"/>
      <point x="1364" y="2730" type="curve" smooth="yes"/>
      <point x="1538" y="2730"/>
      <point x="1679" y="2589"/>
      <point x="1679" y="2415" type="curve" smooth="yes"/>
      <point x="1679" y="2095"/>
      <point x="1397" y="1858"/>
      <point x="1365" y="1832" type="curve" smooth="yes"/>
      <point x="1329" y="1802"/>
      <point x="1282" y="1785"/>
      <point x="1232" y="1785" type="curve" smooth="yes"/>
      <point x="1116" y="1785"/>
      <point x="1022" y="1878"/>
    </contour>
  </outline>
</glyph>
<glyph name="quotedblbase" format="2">
  <advance width="2100"/>
  <unicode hex="201E"/>
  <outline>
    <contour>
      <point x="183" y="-316" type="curve" smooth="yes"/>
      <point x="183" y="-250"/>
      <point x="214" y="-192"/>
      <point x="261" y="-153" type="curve" smooth="yes"/>
      <point x="269" y="-146"/>
      <point x="284" y="-132"/>
      <point x="300" y="-115" type="curve"/>
      <point x="244" y="-58"/>
      <point x="210" y="19"/>
      <point x="210" y="105" type="curve" smooth="yes"/>
      <point x="210" y="279"/>
      <point x="351" y="420"/>
      <point x="525" y="420" type="curve" smooth="yes"/>
      <point x="699" y="420"/>
      <point x="840" y="279"/>
      <point x="840" y="105" type="curve" smooth="yes"/>
      <point x="840" y="-215"/>
      <point x="558" y="-452"/>
      <point x="526" y="-478" type="curve" smooth="yes"/>
      <point x="490" y="-508"/>
      <point x="443" y="-525"/>
      <point x="393" y="-525" type="curve" smooth="yes"/>
      <point x="277" y="-525"/>
      <point x="183" y="-432"/>
    </contour>
    <contour>
      <point x="1023" y="-316" type="curve" smooth="yes"/>
      <point x="1023" y="-250"/>
      <point x="1054" y="-192"/>
      <point x="1101" y="-153" type="curve" smooth="yes"/>
      <point x="1109" y="-146"/>
      <point x="1124" y="-132"/>
      <point x="1140" y="-115" type="curve"/>
      <point x="1084" y="-58"/>
      <point x="1050" y="19"/>
      <point x="1050" y="105" type="curve" smooth="yes"/>
      <point x="1050" y="279"/>
      <point x="1191" y="420"/>
      <point x="1365" y="420" type="curve" smooth="yes"/>
      <point x="1539" y="420"/>
      <point x="1680" y="279"/>
      <point x="1680" y="105" type="curve" smooth="yes"/>
      <point x="1680" y="-215"/>
      <point x="1398" y="-452"/>
      <point x="1366" y="-478" type="curve" smooth="yes"/>
      <point x="1330" y="-508"/>
      <point x="1283" y="-525"/>
      <point x="1233" y="-525" type="curve" smooth="yes"/>
      <point x="1117" y="-525"/>
      <point x="1023" y="-432"/>
    </contour>
  </outline>
</glyph>
<glyph name="bullet" format="2">
  <advance width="1366"/>
  <unicode hex="2022"/>
  <outline>
    <contour>
      <point x="210" y="1338" type="curve" smooth="yes"/>
      <point x="210" y="1543"/>
      <point x="392" y="1706"/>
      <point x="578" y="1706" type="curve" smooth="yes"/>
      <point x="781" y="1706"/>
      <point x="946" y="1541"/>
      <point x="946" y="1338" type="curve" smooth="yes"/>
      <point x="946" y="1134"/>
      <point x="771" y="970"/>
      <point x="578" y="970" type="curve" smooth="yes"/>
      <point x="385" y="970"/>
      <point x="210" y="1134"/>
    </contour>
    <contour>
      <point x="526" y="1338" type="line"/>
      <point x="578" y="1286" type="line"/>
      <point x="630" y="1338" type="line"/>
      <point x="578" y="1390" type="line"/>
    </contour>
  </outline>
</glyph>
<glyph name="ellipsis" format="2">
  <advance width="2940"/>
  <unicode hex="2026"/>
  <outline>
    <contour>
      <point x="210" y="105" type="curve" smooth="yes"/>
      <point x="210" y="279"/>
      <point x="351" y="420"/>
      <point x="525" y="420" type="curve" smooth="yes"/>
      <point x="699" y="420"/>
      <point x="840" y="279"/>
      <point x="840" y="105" type="curve" smooth="yes"/>
      <point x="840" y="-69"/>
      <point x="699" y="-210"/>
      <point x="525" y="-210" type="curve" smooth="yes"/>
      <point x="351" y="-210"/>
      <point x="210" y="-69"/>
    </contour>
    <contour>
      <point x="420" y="105" type="line"/>
      <point x="525" y="0" type="line"/>
      <point x="630" y="105" type="line"/>
      <point x="525" y="210" type="line"/>
    </contour>
    <contour>
      <point x="1050" y="105" type="curve" smooth="yes"/>
      <point x="1050" y="279"/>
      <point x="1191" y="420"/>
      <point x="1365" y="420" type="curve" smooth="yes"/>
      <point x="1539" y="420"/>
      <point x="1680" y="279"/>
      <point x="1680" y="105" type="curve" smooth="yes"/>
      <point x="1680" y="-69"/>
      <point x="1539" y="-210"/>
      <point x="1365" y="-210" type="curve" smooth="yes"/>
      <point x="1191" y="-210"/>
      <point x="1050" y="-69"/>
    </contour>
    <contour>
      <point x="1260" y="105" type="line"/>
      <point x="1365" y="0" type="line"/>
      <point x="1470" y="105" type="line"/>
      <point x="1365" y="210" type="line"/>
    </contour>
    <contour>
      <point x="1890" y="105" type="curve" smooth="yes"/>
      <point x="1890" y="279"/>
      <point x="2031" y="420"/>
      <point x="2205" y="420" type="curve" smooth="yes"/>
      <point x="2379" y="420"/>
      <point x="2520" y="279"/>
      <point x="2520" y="105" type="curve" smooth="yes"/>
      <point x="2520" y="-69"/>
      <point x="2379" y="-210"/>
      <point x="2205" y="-210" type="curve" smooth="yes"/>
      <point x="2031" y="-210"/>
      <point x="1890" y="-69"/>
    </contour>
    <contour>
      <point x="2100" y="105" type="line"/>
      <point x="2205" y="0" type="line"/>
      <point x="2310" y="105" type="line"/>
      <point x="2205" y="210" type="line"/>
    </contour>
  </outline>
</glyph>
